<svg version="1.1" xmlns="http://www.w3.org/2000/svg" xmlns:xlink="http://www.w3.org/1999/xlink" width="219.73019" height="251.77519" viewBox="0,0,219.73019,251.77519"><g transform="translate(-210.1349,-54.1124)"><g data-paper-data="{&quot;isPaintingLayer&quot;:true}" fill-rule="evenodd" stroke-miterlimit="10" stroke-dasharray="" stroke-dashoffset="0" style="mix-blend-mode: normal"><g><path d="M276.4035,226.72688c1.4455,1.92734 7.95025,4.81833 -0.48184,10.1185c-8.673,5.05925 -30.59641,12.04584 -52.03799,-6.98659c-23.128,-20.71883 -10.84124,-48.90608 -0.24092,-49.86974c10.35942,-0.96366 6.26383,15.9005 13.73225,34.692c10.60033,27.22358 37.583,10.1185 39.0285,12.04584z" fill="#ffab19" stroke="#001026" stroke-width="1.2" stroke-linecap="round" stroke-linejoin="round"/><path d="M230.38841,192.51672c1.20458,10.60033 3.61375,17.82783 3.61375,17.82783c0,0 -3.85467,-4.81833 -9.63666,-3.85467c-6.98659,1.20458 -9.15483,6.98659 -9.39575,8.673c-1.68642,-4.09558 -3.13192,-9.15483 -2.65008,-17.82783c1.20458,-8.43208 6.50475,-17.10507 12.52766,-16.14141c4.81833,0.96366 4.57741,4.81833 5.54109,11.32308z" fill="#ffffff" stroke="none" stroke-width="1" stroke-linecap="butt" stroke-linejoin="miter"/></g><path d="M287.72658,251.78222c-1.68642,2.16825 -6.50475,10.60033 -18.06875,17.82783c-7.95025,5.05925 -28.42817,-3.37283 -28.42817,-3.37283c2.16825,22.16433 -15.9005,21.6825 -19.27333,14.455c-2.65008,-5.78199 -2.16825,-30.59641 3.13192,-32.52375c8.19117,-2.891 19.27333,1.92734 29.15091,1.92734c2.891,0 6.02291,-6.26383 12.76858,-13.0095c4.81833,-4.81833 11.08216,-13.73225 21.20066,-7.46841c8.673,5.54109 4.09558,15.65958 -0.48184,22.16433z" fill="#ffab19" stroke="#001026" stroke-width="1.2" stroke-linecap="round" stroke-linejoin="round"/><path d="M329.16425,200.70788c0.72276,5.30017 1.20458,25.53716 6.98659,28.66907c5.54109,2.891 22.40524,-1.92734 23.36892,9.87758c0.96366,11.564 -14.69592,11.80492 -27.70541,8.19117c-16.86417,-4.57741 -24.5735,-30.35549 -14.93683,-46.256c3.61375,-5.54109 11.564,-6.02291 12.28674,-0.48184z" fill="#ffab19" stroke="#001026" stroke-width="1.2" stroke-linecap="round" stroke-linejoin="round"/><g><path d="M323.14132,256.11871c1.4455,7.95025 -10.1185,26.019 -10.1185,26.019c0,0 14.455,9.87758 5.30017,19.99609c-6.74567,7.46841 -12.04584,1.4455 -29.63275,-15.65958c-2.65008,-2.65008 -2.65008,-6.50475 -0.48184,-9.15483c5.05925,-5.78199 12.28674,-15.65958 7.46841,-20.237c-6.74567,-4.81833 -14.455,-9.63666 -19.27333,-12.52766c-19.75517,-11.564 -5.30017,-25.77808 5.54109,-45.77416c5.78199,-10.84124 8.673,-7.95025 23.128,-5.05925c8.19117,1.20458 13.0095,1.92734 18.30967,1.68642c7.95025,-0.24092 6.50475,11.32308 4.33649,17.34599c0,0 -3.37283,8.91392 -6.50475,13.49134c-3.85467,5.78199 -8.19117,11.564 -11.08216,13.73225c0,0 11.32308,8.43208 13.0095,16.14141z" fill="#ffab19" stroke="#001026" stroke-width="1.2" stroke-linecap="round" stroke-linejoin="round"/><path d="M308.27291,239.74337c0,0 -3.61375,-2.891 -7.46841,-6.50475c-4.81833,-4.33649 -9.63666,-7.95025 -4.81833,-15.41867c4.33649,-5.78199 8.43208,-13.49134 19.27333,-6.50475c10.35942,6.50475 5.78199,12.52766 5.78199,12.52766c-5.30017,10.84124 -12.76858,15.9005 -12.76858,15.9005z" fill="#ffffff" stroke="none" stroke-width="1" stroke-linecap="butt" stroke-linejoin="miter"/></g><path d="M286.28108,208.41721c-5.30017,2.40917 -15.17775,-1.92734 -17.82783,-1.4455c-0.72276,0.24092 -5.05925,12.76858 -7.70933,20.237c-3.61375,10.60033 -19.99609,7.46841 -20.95975,-3.61375c-0.72276,-10.35942 8.673,-30.35549 11.80492,-33.96924c6.98659,-8.43208 30.73903,-1.66642 46.60845,2.54529" fill="#ffab19" stroke="#001026" stroke-width="1.2" stroke-linecap="round" stroke-linejoin="round"/><g><path d="M349.28078,54.95332c0.72276,-0.48184 1.92734,-0.24092 2.16825,0.72276l6.26383,25.77808c0,0 15.41867,11.32308 19.99609,19.27333c7.70933,13.25042 7.95025,24.09166 7.95025,24.09166c0,0 17.10507,5.05925 19.99609,18.79149c2.891,13.73225 -7.70933,39.75125 -53.00165,48.66516c-45.29233,8.91392 -81.67074,-3.37283 -98.77582,-30.83733c-17.10507,-27.4645 9.87758,-60.22916 8.43208,-58.30182l-5.05925,-43.12407c-0.24092,-0.96366 0.96366,-1.68642 1.92734,-1.20458l29.15091,19.03241c0,0 10.84124,-4.09558 22.16433,-4.57741c6.74567,-0.48184 12.52766,0 18.06875,0.96366z" fill="#ffab19" stroke="#001026" stroke-width="1.2" stroke-linecap="butt" stroke-linejoin="miter"/><path d="M384.93644,125.78281c0,0 16.62325,4.33649 19.51425,18.06875c2.891,13.73225 -8.673,38.54666 -53.48349,47.21966c-58.30182,12.04584 -86.00724,-22.64616 -69.86582,-48.18332c16.14141,-25.77808 43.84683,-3.85467 64.08383,-5.30017c17.34599,-1.20458 19.27333,-16.38233 39.75125,-11.80492z" fill="#ffffff" stroke="none" stroke-width="1" stroke-linecap="butt" stroke-linejoin="miter"/><path d="M309.04769,151.56089c0,-0.96366 0.96366,-1.68642 1.92734,-1.4455c4.57741,1.68642 17.58691,5.54109 32.04191,6.50475c13.0095,0.72276 20.71883,0 24.33258,-0.72276c1.20458,-0.24092 2.16825,0.96366 1.68642,2.16825c-2.16825,6.50475 -11.32308,24.5735 -36.61932,23.128c-21.92342,-2.40917 -24.09166,-17.82783 -23.36892,-29.63275z" fill="#ffffff" stroke="#001026" stroke-width="1.2" stroke-linecap="round" stroke-linejoin="round"/><path d="M429.2651,128.43289c-11.32308,9.15483 -28.66907,9.39575 -28.66907,9.39575" fill="none" stroke="#001026" stroke-width="1.2" stroke-linecap="round" stroke-linejoin="round"/><path d="M426.13318,155.41556c-15.17775,1.20458 -24.5735,-3.37283 -24.5735,-3.37283" fill="none" stroke="#001026" stroke-width="1.2" stroke-linecap="round" stroke-linejoin="round"/><path d="M344.22153,131.3239c5.05925,0 10.35942,0.48184 10.60033,2.16825c0.24092,3.37283 -3.37283,10.1185 -7.22751,10.35942c-4.33649,0.48184 -14.455,-5.54109 -14.455,-9.39575c-0.24092,-2.891 6.26383,-3.13192 11.08216,-3.13192z" fill="#001026" stroke="#001026" stroke-width="1.2" stroke-linecap="round" stroke-linejoin="round"/><path d="M235.80905,127.71014c0,0 20.71883,6.74567 29.15091,14.21408" fill="none" stroke="#001026" stroke-width="1.2" stroke-linecap="round" stroke-linejoin="round"/><path d="M265.6827,150.35631c-10.35942,4.09558 -28.18725,1.4455 -28.18725,1.4455" fill="none" stroke="#001026" stroke-width="1.2" stroke-linecap="round" stroke-linejoin="round"/><g><path d="M372.64969,103.13665c6.98659,10.84124 7.22751,23.128 0.48184,27.4645c-6.74567,4.33649 -17.82783,-0.72276 -25.05534,-11.564c-6.98659,-10.84124 -7.22751,-23.128 -0.48184,-27.4645c6.74567,-4.57741 18.06875,0.72276 25.05534,11.564z" fill="#ffffff" stroke="#001026" stroke-width="1.2" stroke-linecap="round" stroke-linejoin="round"/><path d="M371.68603,116.8689c0,2.65008 -1.92734,4.81833 -4.33649,4.81833c-2.40917,0 -4.33649,-2.16825 -4.33649,-4.81833c0,-2.65008 1.92734,-4.81833 4.33649,-4.81833c2.40917,0 4.33649,2.16825 4.33649,4.81833" fill="#001026" stroke="none" stroke-width="1" stroke-linecap="butt" stroke-linejoin="miter"/></g><g><path d="M312.90237,109.88231c7.22751,10.60033 6.74567,23.60982 0.24092,28.18725c-7.95025,4.57741 -18.55059,1.20458 -25.77808,-9.39575c-7.46841,-10.60033 -7.95025,-24.33258 -0.48184,-29.63275c7.46841,-5.54109 18.79149,0.24092 26.019,10.84124z" fill="#ffffff" stroke="#001026" stroke-width="1.2" stroke-linecap="round" stroke-linejoin="round"/><path d="M311.45687,123.85547c0,2.65008 -1.92734,4.81833 -4.33649,4.81833c-2.40917,0 -4.33649,-2.16825 -4.33649,-4.81833c0,-2.65008 1.92734,-4.81833 4.33649,-4.81833c2.40917,0.24092 4.33649,2.16825 4.33649,4.81833" fill="#001026" stroke="none" stroke-width="1" stroke-linecap="butt" stroke-linejoin="miter"/></g></g></g></g></svg>