<svg version="1.1" xmlns="http://www.w3.org/2000/svg" xmlns:xlink="http://www.w3.org/1999/xlink" width="316.57476" height="181.79836" viewBox="0,0,316.57476,181.79836"><g transform="translate(-161.71262,-88.9602)"><g data-paper-data="{&quot;isPaintingLayer&quot;:true}" fill-rule="evenodd" stroke-linecap="butt" stroke-linejoin="miter" stroke-miterlimit="10" stroke-dasharray="" stroke-dashoffset="0" style="mix-blend-mode: normal"><g><path d="M379.55362,178.60717c2.27798,4.69741 15.50668,30.45868 15.50668,30.45868c0,0 4.34559,6.95873 5.558,8.84701c1.04728,1.63037 1.27366,1.29522 3.02555,6.02938c0.89179,2.40881 -3.24948,5.29145 -8.22749,9.4657c-4.25005,3.56405 -5.83191,9.56403 -8.20299,9.71756c-1.58056,0.10306 -5.00366,2.30069 -5.00366,2.30069c-2.23519,0.92201 -5.33163,5.6021 -5.12615,4.94159c0.32552,-1.04352 0.34512,-10.46513 0.34512,-11.81441c0,-1.48795 1.39828,0.69007 2.82841,-0.32291c2.47006,-1.7483 0.69007,-2.92445 3.90395,-5.39091c1.93058,-1.48191 3.61273,-0.71212 6.4168,-3.19705c2.15679,-1.91277 1.45708,-3.75188 0.25561,-7.82798c-0.26786,-0.90486 -0.74136,-3.62416 -2.87006,-6.93652c-2.1287,-3.31007 -14.95249,-19.84868 -22.16945,-24.61599" fill="#b1b6cc" stroke="none" stroke-width="1"/><path d="M379.55362,178.60717c2.27798,4.69741 16.63105,32.64896 16.63105,32.64896c0,0 7.14722,10.18518 7.35873,12.25018c0.25333,2.45552 -0.87219,2.99566 -3.49398,6.1362c-2.26214,2.70967 -4.47642,2.74037 -6.11219,5.60586c-2.28778,4.00733 -6.72386,7.87714 -6.72386,7.87714c-3.97598,0.3069 -9.85084,6.42088 -10.12981,7.24228c-0.351,1.03617 0.27897,-9.88187 0.29857,-11.53822c0.01584,-1.48795 2.18505,0.90241 3.91734,-1.5358c1.01543,-1.42915 0.73287,-3.14919 2.5496,-4.26883c4.24515,-2.61755 3.68492,0.85455 7.18266,-3.79125c1.94152,-2.57949 0.71817,-4.10664 0.25937,-5.5469c-0.28763,-0.89979 -1.19902,-5.49643 -3.32771,-8.80879c-2.1287,-3.31007 -14.95249,-19.84868 -22.16945,-24.61599" fill="none" stroke="#424763" stroke-width="0.5625"/><path d="M377.17127,249.72491c-0.40751,0.6334 -1.17207,3.78618 -1.17207,3.78618c-1.52927,0.19273 -5.05641,4.62244 -5.05641,4.62244l-0.01094,-19.3613l6.44979,0.05782" fill="#313753" stroke="none" stroke-width="1"/><path d="M381.25145,206.07346c0,0 7.68049,-6.78936 8.16869,-8.28727l2.57035,5.29406l-5.94706,8.5388z" fill="#424763" stroke="none" stroke-width="1"/><path d="M373.21081,196.89603c0,0 9.91078,-8.04766 10.39767,-9.54427l2.57165,5.2939l-7.91177,9.86358z" fill="#424763" stroke="none" stroke-width="1"/><path d="M388.48425,215.76097c0,0 6.08769,-3.74715 6.60283,-5.51015c0,0 2.82972,3.17614 3.15883,4.02203c0,0 -7.10197,7.29519 -7.41263,7.54199l-0.30102,-0.70347z" fill="#424763" stroke="none" stroke-width="1"/><path d="M391.83549,225.12704c0,0 9.19147,-2.92445 9.99033,-5.23738c0.06615,-0.19649 1.94038,2.87659 1.71286,4.82987c-0.27293,2.35099 -3.21648,4.60023 -3.21648,4.60023c0,0 -8.5357,-0.93066 -8.97114,-0.54389c-0.43805,0.38677 1.11441,-2.26998 0.48444,-3.64882" fill="#424763" stroke="none" stroke-width="1"/><path d="M395.6741,233.09957c0,0 -1.50347,2.13376 -0.98717,1.06198c0.18718,-0.50453 -2.82008,4.0761 -2.82008,4.0761c0,0 -5.49055,-6.63828 -7.18005,-5.68311c-0.67913,0.37321 1.32119,-0.50959 1.32119,-0.50959l3.41216,-0.94781z" fill="#424763" stroke="none" stroke-width="1"/><path d="M381.29915,237.29408c0.08199,-0.15337 4.74069,6.24056 2.59844,7.03125c-0.93948,0.3461 -4.01027,2.89243 -4.01027,2.89243c0,0 0.33401,-5.9335 -0.00245,-8.84701c-0.04524,-0.39036 1.41429,-1.07668 1.41429,-1.07668" fill="#424763" stroke="none" stroke-width="1"/><path d="M346.50009,191.8994c1.22956,-0.09816 16.59316,-1.97778 16.59316,-1.97778l-16.52946,7.86473z" fill="#313753" stroke="none" stroke-width="1"/><path d="M350.50841,199.78128c0,0 10.26685,-1.98889 11.43156,-1.99509c0.5078,-0.00114 -1.45463,3.91522 -1.45463,3.91522z" fill="#313753" stroke="none" stroke-width="1"/></g><g><path d="M259.18708,156.4008c0,0 -0.12364,25.37352 -20.9412,44.35165c-17.38205,16.52276 -39.47082,17.29009 -39.47082,17.29009c0,0 -2.9447,-0.93181 -1.97337,10.2773c0.97149,11.2078 2.33678,24.42686 2.33678,24.42686c0,0 0.73532,4.48116 4.45568,7.14166c1.75924,1.32952 -11.14655,6.03673 -11.14655,6.03673c0,0 -2.23633,-37.24183 -7.50916,-55.04397c-1.24671,-4.24907 -0.73042,-3.61305 1.60506,-4.52656c2.57525,-1.00792 20.18008,-5.39712 20.54594,-28.2132c0.3657,-22.81478 13.16255,-45.99786 13.13331,-46.30476" fill="#b1b6cc" stroke="none" stroke-width="1"/><path d="M259.5807,151.48992c0,0 -0.51743,30.28441 -21.33499,49.26253c-17.38091,16.52276 -39.47082,17.29009 -39.47082,17.29009c0,0 -2.94356,-0.93181 -1.97337,10.2773c0.97133,11.2078 2.33662,24.42686 2.33662,24.42686c0,0 1.49024,5.55539 4.45568,7.14166c1.60522,0.48607 -11.14638,6.03673 -11.14638,6.03673c0,0 -2.2365,-37.24183 -7.50932,-55.04397c-1.24671,-4.24907 -0.72911,-3.61305 1.60506,-4.52656c2.57541,-1.00792 20.18024,-5.39712 20.54594,-28.2132c0.36586,-22.81478 13.16385,-45.99786 13.13462,-46.30476" fill="none" stroke="#424763" stroke-width="0.5625"/><path d="M193.28255,270.60568c0,0 2.62163,-1.82441 1.56096,-5.8489c0.53965,-0.21233 8.44276,-4.09194 8.44276,-4.09194l5.17875,2.65185l2.05046,7.28899z" fill="#424763" stroke="none" stroke-width="1"/><path d="M220.66097,167.60386c0,0 10.25705,23.12788 21.71931,28.94738c0.43544,0.22099 -4.13392,4.20121 -4.13392,4.20121c0,0 -7.78209,-6.34363 -17.5854,-33.14859" fill="#424763" stroke="none" stroke-width="1"/><path d="M209.89237,158.91039c0,0 11.33487,27.47642 19.1194,36.31722c5.94951,6.75506 -10.92997,-7.23003 -21.00474,-27.28238" fill="#424763" stroke="none" stroke-width="1"/><path d="M207.14563,172.4909c0,0 12.82135,28.20193 22.64164,34.95454l-5.17499,3.12943c0,0 -13.61285,-19.02729 -17.5119,-33.14614c0.0049,-3.37867 0.04524,-4.93783 0.04524,-4.93783" fill="#424763" stroke="none" stroke-width="1"/><path d="M206.02321,186.61923c0,0 3.76201,23.4926 10.72564,27.39295l-4.72975,1.57272c0,0 -6.16592,-6.73039 -8.74852,-21.99093c0.48068,-1.33327 2.75262,-6.97474 2.75262,-6.97474" fill="#424763" stroke="none" stroke-width="1"/><path d="M198.1887,199.94249c0,0 5.1028,14.7253 7.78094,17.13052l-4.07887,0.67276c0,0 -5.22889,-6.86416 -6.51594,-15.40803c-0.09163,-0.61625 2.81387,-2.39525 2.81387,-2.39525" fill="#424763" stroke="none" stroke-width="1"/><path d="M188.98024,205.47991c0.39396,-0.06876 7.82733,11.84626 9.01409,12.78558c0,0 -1.73719,2.29824 -1.2944,3.72983c0.44295,1.43274 -11.76182,-11.1147 -11.76182,-11.1147c0,0 -1.02882,-2.62473 -0.59338,-3.37622c0.48444,-0.83364 2.69154,-1.68934 4.63551,-2.02449" fill="#424763" stroke="none" stroke-width="1"/><path d="M197.21639,232.97969c0,0 -7.78454,-0.71572 -8.08066,-0.61249c-0.29612,0.10176 -0.89065,-5.93497 -0.89065,-5.93497l8.5566,1.88713z" fill="#424763" stroke="none" stroke-width="1"/><path d="M198.25492,243.92788l-7.75274,-0.40638l-0.69979,-6.03304l7.94482,0.70963z" fill="#424763" stroke="none" stroke-width="1"/><path d="M198.95929,250.98729c-0.02189,2.9674 2.13376,5.76053 1.64801,6.03673c-2.0761,1.17615 -8.66179,2.86434 -8.66179,2.86434l-0.64957,-8.49225l7.66334,-0.40882" fill="#424763" stroke="none" stroke-width="1"/></g><g><path d="M216.69463,144.9307c-0.96039,7.28539 -0.43675,25.09357 -26.68736,33.96132" fill="none" stroke="#424763" stroke-width="1.5"/><path d="M192.68982,178.44057c0,0 -0.08199,0.07121 -0.23601,0.20514c-0.15059,0.13867 -0.38301,0.3265 -0.70837,0.54144c-0.33287,0.21723 -0.70722,0.45537 -1.21617,0.69726c-0.47954,0.23944 -1.02147,0.49114 -1.6111,0.73907c-0.57868,0.26149 -1.21862,0.53034 -1.81804,0.83119c-0.16153,0.07121 -0.28632,0.15957 -0.42695,0.24059l-0.19093,0.11417l-0.23601,0.16333c-0.30706,0.22589 -0.67293,0.42482 -0.96169,0.64826c-0.60923,0.42237 -1.2356,0.92446 -1.87292,1.42294c-0.63258,0.50453 -1.2748,1.02392 -1.89758,1.57386c-0.63618,0.53164 -1.25161,1.09399 -1.86933,1.64034c-0.18718,0.15827 -0.64598,0.59665 -0.77811,0.77468c-0.19453,0.20629 -0.41355,0.52054 -0.58963,0.81029c-0.73662,1.19461 -1.19297,2.59779 -1.63952,3.79239c-0.42074,1.20931 -0.84034,2.23454 -1.18791,2.9184c-0.16513,0.3461 -0.33026,0.604 -0.43789,0.77958c-0.10649,0.17427 -0.16268,0.2677 -0.16268,0.2677c0,0 0.06484,-0.43593 0.13459,-1.18481c0.08069,-0.75018 0.14308,-1.80726 0.28746,-3.09889c0.06974,-0.64696 0.15908,-1.35663 0.32911,-2.1104c0.15892,-0.75377 0.38171,-1.57272 0.78056,-2.38545c0.20057,-0.41372 0.4049,-0.80163 0.72535,-1.23756c0.35002,-0.48983 0.49179,-0.63961 0.91025,-1.05822c0.60433,-0.60776 1.24426,-1.20081 1.90738,-1.77411c0.66786,-0.56725 1.35549,-1.11849 2.0699,-1.61567c0.70232,-0.51449 1.44124,-0.94422 2.1875,-1.37019c0.37681,-0.21968 0.70951,-0.38432 1.06557,-0.54879l0.26068,-0.12283c0.13573,-0.0637 0.21282,-0.08591 0.3216,-0.13001c0.20073,-0.07497 0.40376,-0.16464 0.58979,-0.21119c0.75851,-0.24924 1.45087,-0.36586 2.0908,-0.48493c0.63487,-0.12038 1.21486,-0.20759 1.7238,-0.28861c0.47823,-0.07856 0.94683,-0.17313 1.29914,-0.25284c0.72797,-0.14863 1.15737,-0.28616 1.15737,-0.28616" fill="#424763" stroke="none" stroke-width="1"/><path d="M167.53189,187.77627c0,0 0.05129,-0.08232 0.14667,-0.23814c0.10404,-0.15222 0.21658,-0.39298 0.43446,-0.66541c0.21151,-0.25545 0.46598,-0.57101 0.7755,-0.90976c0.32666,-0.33156 0.75002,-0.68877 1.21731,-1.07064c0.4588,-0.33761 0.96774,-0.72682 1.51098,-1.06688c0.27031,-0.17427 0.54683,-0.35476 0.8294,-0.54014c0.37566,-0.21854 0.62033,-0.34022 0.947,-0.51694c0.30706,-0.16447 0.62017,-0.33156 0.93834,-0.50094c0.34626,-0.15337 0.70347,-0.30445 1.06802,-0.44557c0.36341,-0.13997 0.72797,-0.29596 1.09857,-0.42482l1.09497,-0.33646c1.46574,-0.44687 2.95091,-0.73532 4.33579,-0.96006c1.38734,-0.23569 2.67929,-0.37697 3.79386,-0.48493c1.11082,-0.11417 2.04785,-0.17068 2.70493,-0.22589c0.66068,-0.03936 1.04957,-0.04181 1.04957,-0.04181c0,0 -0.32536,0.19894 -0.91743,0.51204c-0.58979,0.3216 -1.45218,0.72927 -2.51285,1.12699c-1.05349,0.41992 -2.30738,0.82254 -3.63478,1.22041c-1.31759,0.38546 -2.72208,0.79673 -4.12657,1.208c-0.70837,0.18914 -1.38489,0.40278 -2.02237,0.62131c-0.32421,0.10927 -0.65088,0.20498 -0.97754,0.29955c-0.33385,0.13132 -0.66427,0.26149 -0.98962,0.38922c-0.30706,0.11531 -0.68518,0.2824 -0.9189,0.34496c-0.31196,0.12773 -0.61658,0.25039 -0.91384,0.37207c-0.59208,0.24794 -1.13156,0.46517 -1.65161,0.66166c-0.49048,0.21478 -0.93948,0.41257 -1.33834,0.58685c-0.39771,0.22834 -0.76227,0.40768 -1.05708,0.5599c-0.56268,0.33385 -0.88444,0.52544 -0.88444,0.52544" fill="#424763" stroke="none" stroke-width="1"/><path d="M161.71468,183.20576c-0.00245,0.01111 0.10029,0.08722 0.32176,0.01846c0.21772,-0.05161 0.52723,-0.18538 0.91988,-0.34626c0.78301,-0.33516 1.88288,-0.86794 3.21403,-1.47815c0.70102,-0.2971 1.29424,-0.67521 2.26933,-0.95647c0.80375,-0.24908 1.64916,-0.52413 2.53376,-0.75982c0.88575,-0.23944 1.79223,-0.5207 2.72698,-0.74414c0.94814,-0.20253 1.94511,-0.3461 2.9251,-0.52299c0.98734,-0.14112 1.97582,-0.2824 2.94846,-0.42107c0.26786,-0.0294 0.43054,-0.07742 0.78056,-0.09212l0.71196,-0.01225c0.47219,-0.00735 0.93834,-0.0147 1.39599,-0.02336c0.90649,-0.049 1.83993,0.07007 2.69023,0.11058c0.84295,0.06501 1.6405,0.12642 2.37712,0.18293c0.72535,0.05276 1.39469,0.13263 1.98921,0.19518c0.58228,0.0098 1.09857,0.04426 1.52682,0.06631c0.85765,0.05276 1.36529,0.10306 1.36529,0.10306c0,0 -0.46484,0.15222 -1.30779,0.38301c-0.4209,0.11058 -0.9372,0.253 -1.53907,0.38563c-0.59583,0.09702 -1.26859,0.19387 -2.00881,0.27619c-0.74512,0.09457 -1.54152,0.18669 -2.35393,0.23944c-0.82825,0.08346 -1.66859,0.10437 -2.58864,0.21478c-0.45635,0.04916 -0.91874,0.09702 -1.38864,0.14732l-0.70706,0.07497c-0.12609,0.00114 -0.43315,0.06876 -0.64108,0.10061c-0.92854,0.15843 -1.87063,0.32046 -2.81257,0.48248c-0.947,0.14242 -1.89138,0.24565 -2.82988,0.41617c-0.93703,0.21364 -1.87423,0.36096 -2.77337,0.53785c-0.8993,0.17917 -1.77884,0.30559 -2.60954,0.43822l-0.30951,0.04786l-0.07709,0.01241c0.03299,-0.01111 -0.00735,0 -0.00735,-0.00245l-0.13459,0.03185c-0.19567,0.05031 -0.38906,0.10061 -0.57738,0.14977c-0.38791,0.09212 -0.76341,0.18179 -1.12307,0.26639c-1.44124,0.34251 -2.67324,0.5452 -3.55033,0.62246c-0.43691,0.04426 -0.79167,0.03316 -1.02899,0.00621c-0.25692,-0.01846 -0.34496,-0.15108 -0.32781,-0.15108" fill="#424763" stroke="none" stroke-width="1"/><path d="M168.52756,178.26499c0,0 1.35189,-0.71588 3.44874,-1.47456c0.51384,-0.20988 1.14152,-0.28844 1.78374,-0.41862c0.64728,-0.12038 1.33605,-0.2579 2.05651,-0.35116l0.54569,-0.07742c0.26558,-0.02809 0.37681,-0.02205 0.57509,-0.0343c0.35476,-0.0196 0.71441,-0.0343 1.07782,-0.03806c0.72535,-0.01846 1.46198,-0.01356 2.19844,-0.01225c1.49987,0.09571 3.0133,0.23944 4.39933,0.44197c1.37509,0.21854 2.65119,0.47137 3.73882,0.73662c2.16659,0.51678 3.59182,1.08044 3.59182,1.08044c0,-0.00131 -1.50592,0.25904 -3.7362,0.3216c-1.11212,0.05161 -2.40162,0.06141 -3.77785,0.01601c-0.68518,-0.02826 -1.38015,0.00245 -2.08966,-0.03691c-0.70706,-0.0343 -1.42523,-0.06991 -2.1447,-0.10551c-0.73646,-0.01601 -1.47292,-0.02711 -2.19844,-0.06386c-0.36211,-0.0098 -0.72176,-0.03446 -1.07652,-0.06011c-0.15778,-0.00866 -0.40016,-0.03446 -0.4833,-0.02826l-0.49555,0.01339c-0.65447,0.03071 -1.29669,0.00996 -1.90967,0.00245c-0.61298,0.02221 -1.19657,-0.07856 -1.75679,-0.0147c-2.22049,0.18914 -3.74731,0.10323 -3.74731,0.10323" fill="#424763" stroke="none" stroke-width="1"/></g><g><path d="M377.78736,116.72991c0,0 -5.75367,-2.23078 -6.55628,-4.45535c-0.80261,-2.22588 0.17248,-7.0386 10.98861,-12.90465c11.05966,-5.99736 55.86095,-13.36246 72.8773,-8.2319c18.80499,5.67086 13.37553,25.02971 13.37553,25.02971c-4.47283,-2.21232 -7.51912,0.56219 -7.51912,0.56219c5.27168,8.16689 5.109,10.29575 7.66841,18.74995c2.76602,9.13676 2.9055,9.36134 7.49201,21.4557c4.58781,12.09436 1.52927,20.74733 -5.5812,24.35319c-7.11161,3.60701 -12.7699,-1.30387 -12.7699,-1.30387c0.40735,-1.26337 0.44785,-2.37451 0.23487,-3.52975c-0.18832,-1.02147 -0.57248,-2.0761 -1.07537,-3.30011c-3.99688,-8.94762 -21.66525,-17.57739 -26.04514,-22.13466c-6.26996,-6.52166 -1.63446,-19.76146 -1.63446,-19.76146" fill="#d3d5df" stroke="none" stroke-width="1"/><path d="M428.07414,145.60231c-5.17009,2.83364 -24.14021,9.87452 -38.01129,30.73243c-19.16105,29.20136 -41.86019,27.78952 -68.96225,26.79761c-26.58479,-0.97247 -48.81533,-28.19475 -53.49967,-32.50898c-6.49993,-5.98528 -1.55491,-5.85755 -23.06614,0.17917c-28.85167,8.38902 -27.52672,-22.30404 -27.42513,-26.1923c0.10274,-3.8881 1.01902,-9.41164 4.48622,-14.32269c3.46589,-4.91088 22.02131,-20.15541 36.1921,-23.22474c14.17193,-3.06932 39.76073,4.91088 45.87782,6.95743c6.11692,2.0454 20.18612,1.7385 27.52672,2.14862c7.34044,0.40882 19.1671,-1.53466 29.36175,-2.25169c10.19465,-0.71588 17.73942,1.02392 23.8565,0c6.11692,-1.02278 34.59309,-6.67895 45.21469,-8.69609c12.38705,-2.35344 17.56808,0.77354 17.56808,0.77354" fill="#d3d5df" stroke="none" stroke-width="1"/><path d="M453.40977,112.71832c0,0 -3.35581,3.19443 -4.37499,3.09252c-1.01902,-0.10306 -1.6209,-6.28842 3.97614,-12.57423c5.43812,-6.10549 8.8782,-9.18347 8.8782,-9.18347c0,0 -1.44483,10.2528 -8.47935,18.66518" fill="#c0a1a7" stroke="none" stroke-width="1"/><path d="M443.9929,160.67208c0,0 4.17916,-11.91878 12.52523,-13.91371c0,0 -7.95211,9.66824 -7.1972,17.9689" fill="#424763" stroke="none" stroke-width="1"/><path d="M454.12418,154.79003c-0.12234,0.10568 3.61893,-6.44554 9.63443,-5.3197c6.01419,1.1247 7.69634,5.3197 7.69634,5.3197c0,0 -10.44912,-5.98511 -17.33076,0" fill="#424763" stroke="none" stroke-width="1"/><path d="M450.16013,165.44217c0,0 0.65088,-5.79614 3.60538,-8.45158c2.44687,-2.19893 8.15775,-1.73981 11.36917,-1.24736c1.31384,0.20253 2.49701,1.96308 0.3559,2.3719c-2.14095,0.41013 -6.47413,-0.86925 -8.97244,1.68819c-2.49701,2.55859 -3.41444,5.42276 -3.46458,6.34363c-0.05259,0.9207 7.44072,-6.19026 11.82535,-3.58137c1.27366,1.17746 -8.60168,1.68689 -9.98412,7.82684" fill="#424763" stroke="none" stroke-width="1"/><path d="M474.71782,155.47651c0,0 -2.70117,-4.16936 -5.04645,-6.1362c-2.34527,-1.96798 -6.06939,-6.11039 -6.88295,-8.82234c-0.81486,-2.71081 5.19949,4.96233 7.13725,6.90581c1.93793,1.94348 3.17108,2.98586 3.17108,2.98586" fill="#424763" stroke="none" stroke-width="1"/><path d="M471.94968,148.70349c-2.05291,-2.9674 -7.03223,-9.32214 -8.66424,-12.34099c-1.63201,-3.01787 -0.9029,-8.12149 -0.9029,-8.12149c0,0 1.29326,5.16993 2.19109,6.701c1.52927,2.60889 4.57066,5.24849 4.57066,5.24849" fill="#424763" stroke="none" stroke-width="1"/><path d="M465.33802,147.16834c-2.47251,-0.43462 -6.06564,-4.9625 -6.37156,-5.52468c-0.30592,-0.56235 -2.39542,0.6138 -5.45396,1.2276c-3.05854,0.61396 -4.10452,-1.47439 -4.85698,-1.47439c-0.7523,0 -3.19786,2.03674 -4.66229,5.36266c-2.47872,5.62415 -1.7189,12.71437 -1.7189,12.71437l-1.96602,-1.32968c0,0.38056 -1.75679,-0.79428 -1.7826,-1.86982c-0.25692,-10.02675 6.47315,-15.55159 8.28858,-17.03464c1.81804,-1.48436 2.00767,-0.66541 3.34601,0c1.33719,0.66411 5.23755,0.9207 7.22545,0.70461c1.98807,-0.21478 2.65119,-0.44932 3.21158,1.44385c0.56023,1.89203 4.74069,5.78013 4.74069,5.78013" fill="#424763" stroke="none" stroke-width="1"/><path d="M460.34286,127.98523c0,0 -5.11276,-7.26449 -1.23201,-13.32098c0.27652,-0.43087 2.5692,3.66614 2.5692,3.66614c0,0 -3.22138,6.2306 -1.33719,9.65484" fill="#424763" stroke="none" stroke-width="1"/><path d="M458.41441,113.55932c-0.15288,0 -4.95351,3.19705 -7.14591,11.66349c-1.13287,4.37075 -0.816,3.73473 -1.37623,3.01771c-0.56039,-0.71572 -2.08966,-5.3197 1.12176,-10.3325c3.21142,-5.01411 4.35899,-7.17368 4.35899,-7.17368" fill="#424763" stroke="none" stroke-width="1"/><path d="M427.32053,143.33136c1.07047,-1.22776 3.44874,-3.99868 5.5469,-6.90598c2.95581,-4.09815 5.63264,-14.93894 5.30108,-6.85436c-0.33026,8.08327 -8.46236,17.18817 -8.46236,17.18817c0,0 4.17426,-2.60399 7.64636,-7.67331c5.14935,-7.51978 8.41091,-17.39316 8.41091,-14.63073c0,2.76226 -1.93662,9.77015 -4.02628,14.4772c-2.0908,4.7059 -9.17302,13.69909 -9.32606,13.75054" fill="#424763" stroke="none" stroke-width="1"/><path d="M432.41108,152.68289c0,0 -5.76347,-5.2596 -4.74314,-9.29992" fill="#424763" stroke="none" stroke-width="1"/><path d="M443.64158,104.91435c0,0 -3.12943,2.36095 -2.87496,5.48173c0.25561,3.11979 0.15288,10.17179 -1.68231,13.1895c-1.37264,2.25904 -4.99386,5.72983 -4.99386,5.72983c0,0 2.24123,-5.12583 2.24123,-9.57138c0,-4.44555 -2.9888,-12.38035 2.5496,-15.36621c1.37639,-0.74267 4.25005,0.53654 4.76029,0.53654" fill="#424763" stroke="none" stroke-width="1"/><path d="M436.12915,104.34351c-0.15304,0.05161 -7.42129,8.23941 -8.05371,20.77689c-0.63258,12.53748 -2.85422,1.73964 -2.85422,1.73964c0,0 -2.44556,-9.46325 2.75262,-18.2121c3.16013,-5.3197 4.95482,-3.99868 4.95482,-3.99868z" fill="#424763" stroke="none" stroke-width="1"/><path d="M422.30609,106.55812c0,0 -0.95925,18.15314 -0.04165,25.92836c0.9176,7.77637 0.71327,8.03182 -0.40735,4.50207c-1.12192,-3.52975 -4.33334,-16.98434 -4.43494,-24.75956c-0.10274,-7.77523 0,-4.7206 0,-4.7206l4.88393,-0.95026" fill="#424763" stroke="none" stroke-width="1"/><path d="M414.1508,108.14733c0,0 0.67162,25.15727 8.95039,39.73166l-7.23509,3.8832c0,0 -5.78438,-11.44838 -7.61941,-25.8743c-1.83519,-14.42575 -0.84671,-16.16539 -0.84671,-16.16539z" fill="#424763" stroke="none" stroke-width="1"/><path d="M402.12928,110.49065c0,0 -0.86729,29.45436 8.22259,44.80718c-0.63732,0.85929 -4.80553,3.61191 -4.80553,3.61191c0,0 -9.39825,-21.7479 -7.20716,-47.68361c2.26083,-0.49228 2.61689,-1.08664 3.38161,-0.83005" fill="#424763" stroke="none" stroke-width="1"/><path d="M396.12261,167.94457c-1.36774,-3.2142 -3.91979,-13.08513 -4.6979,-22.41331c-1.11817,-13.39709 0.91515,-32.65271 0.914,-27.28009c2.19223,22.55083 10.23745,43.1902 10.23745,43.1902" fill="#424763" stroke="none" stroke-width="1"/><path d="M388.62047,113.55932c0,0 -4.28189,32.5864 -2.70134,52.53683c0.43315,5.47209 -2.94339,-3.00056 -4.16691,-11.90147c-1.22335,-8.90107 -2.00032,-17.12431 -1.64426,-39.95264" fill="#424763" stroke="none" stroke-width="1"/><path d="M375.22812,192.52708c-0.86631,-2.81404 -1.54283,-7.55538 -2.35883,-21.06043c-0.816,-13.50505 1.47799,-36.62673 1.17207,-30.33471c0.4588,29.67045 7.99131,45.10428 7.99131,45.10428" fill="#424763" stroke="none" stroke-width="1"/><path d="M374.7556,114.37761c0,0 -7.12631,20.61487 -11.76557,61.06959c0.25578,5.73832 -0.64353,-23.96528 0.4686,-32.81098c0.96643,-7.69911 3.59933,-26.57042 4.97556,-28.56551c0.66313,-1.02262 6.32141,0.3069 6.32141,0.3069" fill="#424763" stroke="none" stroke-width="1"/><path d="M366.49757,114.27569c-0.97019,0.86925 -6.11709,13.45344 -9.02259,29.36355c-2.90566,15.90896 -5.96421,36.78026 -5.96421,36.78026c-2.59975,-12.59285 -1.88403,-18.13974 -1.68215,-26.80496c0.30592,-13.14768 3.97614,-30.34321 6.88164,-35.85205c2.44687,-4.1264 2.42727,-3.76789 2.69758,-3.7888c0.26803,-0.02074 7.08972,-0.22834 7.08972,-0.22834c0,0 0.96774,-0.33875 0,0.53034" fill="#424763" stroke="none" stroke-width="1"/><path d="M353.39611,114.61264c0,0 -3.81101,6.05763 -7.51537,23.09228c-3.60293,16.57683 -3.18953,51.4871 -3.18953,51.71789c0,0.22964 -4.24645,-9.96909 -4.28189,-29.31193c-0.04034,-22.48321 6.42284,-39.83227 8.02921,-42.78252c1.60522,-2.95025 2.1287,-2.30069 2.1287,-2.30069l3.9113,-0.41502z" fill="#424763" stroke="none" stroke-width="1"/><path d="M342.61477,115.68034c0,0 -10.24594,25.0124 -14.29917,75.73707c-0.64467,8.07478 -5.81002,-19.56742 -1.98807,-42.43381c3.82326,-22.86639 6.42301,-29.06269 7.72345,-31.22111c1.30044,-2.15712 3.59427,-1.70894 3.59427,-1.70894l4.58781,-0.37321z" fill="#424763" stroke="none" stroke-width="1"/><path d="M332.06765,116.21378c-0.15043,0.22964 -6.58062,5.83665 -11.09134,27.9357c-4.51203,22.09906 -7.41753,49.41606 -7.41753,49.41606c0,0 -2.82857,-11.7396 -2.06402,-28.85167c0.76472,-17.11076 3.51734,-33.76239 9.71021,-46.19321c2.08231,-4.17916 2.22425,-2.59419 2.22425,-2.59419l8.32533,0.27995z" fill="#424763" stroke="none" stroke-width="1"/><path d="M312.94955,115.50476c0,0 -18.58237,61.64043 -17.89475,71.61557c0.61788,8.95758 -4.10827,-10.17783 0.30592,-36.98524c4.51187,-27.39295 11.44365,-35.29574 11.44365,-35.29574" fill="#424763" stroke="none" stroke-width="1"/><path d="M296.54112,115.63183c-1.01184,1.82686 -4.86923,12.23303 -7.14477,20.84549c-6.03999,22.86639 -5.04645,45.19509 -5.04645,45.19509c0,0 -2.52265,-7.44252 -2.36977,-22.25259c0.15288,-14.80876 1.51326,-25.69757 8.16493,-43.49955c2.00408,-4.64449 4.09112,-4.64449 4.09112,-4.64449l4.48867,1.29767l1.7042,0.52429c0,0 -2.87627,0.70722 -3.88794,2.53409" fill="#424763" stroke="none" stroke-width="1"/><path d="M283.50891,109.31336c-0.30592,0.07611 -15.06389,35.21963 -12.69297,57.31999c0,0 -3.61991,-22.52993 0.53475,-40.51499c3.67136,-15.8843 5.91031,-18.62941 5.91031,-18.62941l6.24791,1.1639z" fill="#424763" stroke="none" stroke-width="1"/><path d="M271.91157,106.77159c-0.15288,0.13622 -16.84763,26.78895 -18.37674,55.79399c-1.22352,12.96835 -4.81664,-32.17758 11.01066,-56.19546c4.80913,-0.37942 7.36608,0.40147 7.36608,0.40147" fill="#424763" stroke="none" stroke-width="1"/><path d="M248.76719,110.08003c0,0 -8.84276,39.59413 -2.72567,53.55945c0,0 -10.91886,-32.42911 -3.88435,-50.08131c3.42555,-2.78692 6.61002,-3.47814 6.61002,-3.47814" fill="#424763" stroke="none" stroke-width="1"/><path d="M233.55467,119.23574c0,0 -4.71619,20.61715 0.20792,40.49049c2.34168,9.45215 -6.95008,-11.28293 -7.53856,-22.012c-0.4588,-8.36452 0.12724,-12.7044 0.12724,-12.7044c0,0 4.18406,-4.06499 7.2034,-5.77409" fill="#424763" stroke="none" stroke-width="1"/><path d="M308.3111,200.83836l-5.77572,-2.25528l-0.68028,-0.3118c-1.07047,-19.10601 6.456,-59.72276 4.92297,-42.40441c-1.61126,18.19479 1.42899,43.60751 1.50477,44.06794z" fill="#424763" stroke="none" stroke-width="1"/><path d="M318.70077,203.0074c-1.83519,-16.57421 1.81673,-41.74635 1.58676,-31.77105c-0.23128,10.09927 4.64269,32.29404 4.64269,32.29404" fill="#424763" stroke="none" stroke-width="1"/><path d="M337.11001,203.52549c0,0 -3.82555,0.62981 -3.82424,-0.01356c0.02434,-13.21645 3.51848,-52.60919 2.75377,-38.65122c-0.76586,13.95928 2.36977,38.66968 2.36977,38.66968" fill="#424763" stroke="none" stroke-width="1"/><path d="M469.3857,109.06689c0,0 -6.35931,-0.8962 -10.48947,3.64507c-0.21772,0.13393 -2.0859,-1.97778 -2.0859,-1.97778c0,0 2.68043,-5.58005 11.34467,-8.07968c0,0 1.45953,3.37002 1.2307,6.41239" fill="#424763" stroke="none" stroke-width="1"/><path d="M443.64158,104.14572c0,0 2.5826,-8.76583 2.28403,-14.55576c-0.02679,-0.43462 6.22717,0.86304 6.22717,0.86304c0,0 -0.03054,7.57874 -6.61378,14.30783" fill="#424763" stroke="none" stroke-width="1"/><path d="M442.93729,89.50061l0.16137,0.8374c0.54324,5.78993 -2.81616,13.34891 -2.81616,13.34891h-3.25193c1.24671,-4.37793 0.37926,-14.18631 0.37926,-14.18631" fill="#424763" stroke="none" stroke-width="1"/><path d="M435.25223,89.50061c0,0 0.34006,9.56762 -0.9029,14.32138l-3.82081,0.32421c0,0 -0.10764,-11.28032 -1.13777,-14.32514c-0.21527,-0.48983 4.28075,-0.32046 4.28075,-0.32046z" fill="#424763" stroke="none" stroke-width="1"/><path d="M426.59991,89.95875c0,0 1.89513,6.38903 0.37926,14.80256l-2.65479,0.47399c0,0 -1.03013,-11.1735 -3.27871,-14.76221c-0.48689,-1.03242 1.11082,-0.19028 1.11082,-0.19028z" fill="#424763" stroke="none" stroke-width="1"/><path d="M418.66217,90.79975c0,0 0.62393,12.6345 1.55491,15.03465c-0.0637,0.13508 -3.91244,0.8423 -3.91244,0.8423c0,0 -2.1679,-1.63054 -4.36144,-14.78933c-0.06729,-0.5991 0.97133,-0.54373 0.97133,-0.54373z" fill="#424763" stroke="none" stroke-width="1"/><path d="M408.13171,92.10232c0,0 1.64426,12.26373 2.53735,15.58099l-3.71056,0.81519c0,0 -3.98349,-6.19875 -4.65021,-15.30349l0.82466,-0.16692z" fill="#424763" stroke="none" stroke-width="1"/><path d="M398.45073,94.41574c0,0 0.26427,3.81085 0.62278,5.5861c0.31082,1.54201 1.03013,4.55482 1.81559,5.99622c0.70951,1.30142 1.68705,3.20799 1.68705,3.20799l-4.77499,1.12829c0,0 -3.14413,-4.146 -4.82383,-10.39882c-0.75002,-2.79917 -1.05594,-3.8881 -1.05594,-3.8881l6.47315,-1.99395z" fill="#424763" stroke="none" stroke-width="1"/><path d="M390.10564,97.59711c0,0 3.19672,8.53635 3.08909,13.70268l-3.49529,0.67897c0,0 -2.19354,-7.31365 -5.82472,-13.2398c-0.23356,-0.29971 0.70347,-0.29971 0.70347,-0.29971l5.1482,-1.7937z" fill="#424763" stroke="none" stroke-width="1"/><path d="M381.81527,100.30073c0,0 3.65683,4.82742 4.00913,12.05875c0,0 -1.6797,0.78824 -2.62669,0.78824c0,0 -3.22498,-7.76412 -5.71692,-10.14843l-0.65218,-0.48362l4.59402,-2.75752z" fill="#424763" stroke="none" stroke-width="1"/><path d="M374.94556,104.34351c0.08444,-0.01094 1.25161,4.80782 3.18578,8.96738h-2.5202c0,0 -2.5741,-3.779 -3.62988,-4.51317c-1.05577,-0.73417 1.90722,-4.31783 2.9643,-4.45421" fill="#424763" stroke="none" stroke-width="1"/><path d="M458.89999,104.41668c-0.03904,0.11417 0.97509,-2.43445 0.97509,-2.43445l1.16586,-3.59982c0,0 0.78301,-3.74813 1.41429,-3.53694c0.63128,0.21119 3.41085,3.53694 3.41085,3.53694" fill="#424763" stroke="none" stroke-width="1"/><path d="M461.44077,93.76176l-7.41998,5.52468c2.85552,-3.52975 2.1153,-7.62169 2.1153,-7.62169" fill="#424763" stroke="none" stroke-width="1"/><path d="M464.94374,96.91128c0.11499,0.0147 3.16863,-2.9821 3.16863,-2.9821l-1.10951,6.1313z" fill="#d3d5df" stroke="none" stroke-width="1"/><path d="M464.74529,96.66187c2.49701,-2.1496 3.60048,-2.89978 3.60048,-2.89978c0,0 -0.69857,2.9465 -1.34324,6.29822" fill="none" stroke="#424763" stroke-width="0.5625"/><path d="M457.38575,179.98422c0,0 1.19297,-3.45103 1.10118,-4.47495c-0.09065,-1.02278 0.55908,-3.62432 1.47668,-3.8293c0.91743,-0.20384 5.98609,1.21911 7.35024,-3.40938c0.56758,-1.92519 1.59411,-5.72983 1.89987,-7.78503c0.30592,-2.05651 0.58963,-2.9024 1.87308,-4.30933c1.28329,-1.40694 3.98087,-0.81894 4.27944,-0.20874c5.67299,11.56027 0.9568,20.38016 -2.11155,23.19779c-5.26564,4.83493 -10.09927,4.19517 -15.86895,0.81894" fill="#c0a1a7" stroke="none" stroke-width="1"/><path d="M455.58437,110.39608c7.03452,7.90295 11.20633,15.64502 12.65981,25.08378c1.45218,9.43745 2.90566,9.36134 7.49217,21.4557c4.58781,12.09436 1.52927,20.74733 -5.5812,24.35319c-7.11161,3.60701 -12.7699,-1.30387 -12.7699,-1.30387c0.40735,-1.26337 0.44655,-2.37451 0.23356,-3.52975c-0.18718,-1.02147 -0.57248,-2.0761 -1.07407,-3.30011c-3.99819,-8.94762 -21.66541,-17.57739 -26.04514,-22.13466c-6.26996,-6.52166 -1.63446,-19.76146 -1.63446,-19.76146" fill="none" stroke="#424763" stroke-width="0.5625"/><path d="M457.74344,177.91252c1.37623,-1.99509 0.25447,-3.91277 1.17207,-5.52485c0.91743,-1.61077 2.71342,0.11548 5.46605,-0.88264c2.75279,-0.99697 3.32657,-4.18177 4.24417,-7.94231c0.91743,-3.75923 0.53573,-5.52468 1.98791,-6.98193c2.04556,-2.05275 4.75294,-0.61396 4.75294,-0.61396" fill="none" stroke="#424763" stroke-width="0.5"/><path d="M471.14919,177.91252c0,0 0.99338,-1.65014 0,-3.68329c-0.52119,-1.19706 -0.80261,-2.30199 0,-2.87774c0.80261,-0.5746 2.71473,1.07423 1.91098,3.68312c-0.8405,2.22588 -1.91098,2.8779 -1.91098,2.8779z" fill="none" stroke="#424763" stroke-width="0.5"/><path d="M461.62959,137.20561c0,0 -0.61168,-0.80539 -4.28189,-0.68991c-3.67022,0.11417 -5.67054,-0.50829 -5.80627,-2.99942c-0.12005,-2.21853 -1.38129,-3.17859 -1.38129,-3.17859c0,0 2.40277,0.3069 6.88164,0.72927c4.77369,0.45063 4.58781,6.13865 4.58781,6.13865" fill="#edeef4" stroke="none" stroke-width="1"/><path d="M457.34769,136.5157c-3.67022,0.11417 -5.67054,-0.50829 -5.80627,-2.99942c-0.12005,-2.21853 -1.38129,-3.17859 -1.38129,-3.17859c0,0 2.40277,0.3069 6.88164,0.72927c4.77369,0.45063 4.58781,6.13865 4.58781,6.13865c0,0 -0.61168,-0.80539 -4.28189,-0.68991z" fill="none" stroke="#424763" stroke-width="0.5"/><path d="M455.89486,131.25888c0,0 0.29857,-0.34006 1.44238,-0.13752c4.34674,0.82139 4.48377,6.62113 4.29169,6.08458c-0.19077,-0.53769 -3.88549,-0.47137 -3.88549,-0.47137c0,0 -1.16096,0.0196 -1.84858,-0.41127c-0.68762,-0.43103 -1.45218,-1.07423 -1.49138,-2.76242c-0.03789,-1.68819 1.49138,-2.30199 1.49138,-2.30199" fill="#424763" stroke="none" stroke-width="1"/><path d="M445.20188,116.16837c0,0 -3.26156,-3.47814 -0.35606,-7.87845c2.90566,-4.39884 17.5364,-14.93649 17.5364,-14.93649c0,0 -2.44687,8.79784 -3.97614,11.97039c-1.52927,3.17124 -3.46703,6.13865 -4.23175,7.21288" fill="none" stroke="#424763" stroke-width="0.5625"/><path d="M448.82196,115.40104c0,0 -4.94371,-5.06442 13.56026,-22.04761" fill="#c0a1a7" stroke="none" stroke-width="1"/><path d="M427.69668,145.60231c-5.1714,2.83364 -24.14037,9.87452 -38.01259,30.73243c-19.15975,29.20136 -41.86019,27.78952 -68.96225,26.79761c-26.58479,-0.97247 -48.81533,-28.19475 -53.49967,-32.50898c-6.49879,-5.98528 -1.55491,-5.85755 -23.06614,0.17917c-28.85167,8.38902 -27.52672,-22.30404 -27.42399,-26.1923c0.10159,-3.8881 1.01919,-9.41164 4.48508,-14.32269c3.46703,-4.91088 22.02131,-20.15541 36.19325,-23.22474c14.17079,-3.06932 39.75959,4.91088 45.87667,6.95743c6.11692,2.0454 20.18612,1.7385 27.52672,2.14862c7.34044,0.40882 19.16824,-1.53466 29.36175,-2.25169c10.1958,-0.71588 17.73942,1.02392 23.8565,0c6.11692,-1.02278 34.59423,-6.67895 45.21583,-8.69609c12.38705,-2.35344 17.56694,0.77354 17.56694,0.77354" fill="none" stroke="#424763" stroke-width="0.5625"/><path d="M372.51355,113.97075c0,0 -3.96748,-2.27014 1.09857,-8.47134c9.03255,-11.05574 41.62401,-14.53992 48.88867,-15.38353c7.26335,-0.84459 34.04381,-3.13188 41.92013,6.15351c7.87502,9.28392 4.05192,19.89898 4.05192,19.89898c-4.05192,-2.55859 -7.84448,0.58799 -7.84448,0.58799" fill="none" stroke="#424763" stroke-width="0.5625"/></g><g><path d="M374.16173,183.38625c0,0 -5.66433,3.99018 -7.69764,8.79915c-2.03331,4.80782 -13.45883,31.15235 -13.45883,31.15235c0,0 0.18734,2.21477 0.59828,4.25151c0.38546,1.90183 -2.29268,5.72493 -4.92656,10.02201c-2.6329,4.29692 -4.7175,10.43442 -4.98177,13.70873c-0.26541,3.2743 1.17321,5.42293 1.17321,5.42293c-0.31066,4.00962 0.08575,4.4627 0.0784,6.80406c-0.0049,1.09269 -9.484,0.86304 -10.48228,0.73907c-1.47178,-0.18048 1.32739,-1.63413 0.69497,-3.27185c-0.63258,-1.63789 -3.29096,-3.1897 -1.04597,-6.56592c2.24368,-3.37622 3.92093,-5.17368 5.74877,-10.69837c1.82768,-5.52485 2.00506,-13.83776 1.53531,-14.6567c-0.46974,-0.81764 2.23764,-2.9416 3.32886,-6.72664c1.09007,-3.78504 5.0992,-24.34944 3.94315,-32.94361c0,0 7.06392,-3.68312 7.95701,-9.41295" fill="#d3d5df" stroke="none" stroke-width="1"/><path d="M374.16173,183.38625c0,0 -5.66433,3.99018 -7.69764,8.79915c-2.03331,4.80782 -13.45883,31.15235 -13.45883,31.15235c0,0 0.18734,2.21477 0.59828,4.25151c0.38546,1.90183 -2.29268,5.72493 -4.92656,10.02201c-2.6329,4.29692 -4.7175,10.43442 -4.98177,13.70873c-0.26541,3.2743 1.17321,5.42293 1.17321,5.42293c-0.31066,4.00962 0.08575,4.4627 0.0784,6.80406c-0.0049,1.09269 -9.484,0.86304 -10.48228,0.73907c-1.47178,-0.18048 1.32739,-1.63413 0.69497,-3.27185c-0.63258,-1.63789 -3.29096,-3.1897 -1.04597,-6.56592c2.24368,-3.37622 3.92093,-5.17368 5.74877,-10.69837c1.82768,-5.52485 2.00506,-13.83776 1.53531,-14.6567c-0.46974,-0.81764 2.23764,-2.9416 3.32886,-6.72664c1.09007,-3.78504 5.0992,-24.34944 3.94315,-32.94361c0,0 7.06392,-3.68312 7.95701,-9.41295" fill="none" stroke="#424763" stroke-width="0.5625"/><path d="M344.35196,263.9558c0.63128,0.40996 3.20652,1.11604 3.20652,1.11604c0.19077,1.5345 6.13669,5.68671 6.13669,5.68671h-19.29319l0.06239,-6.47249" fill="#313753" stroke="none" stroke-width="1"/><path d="M348.97799,191.8994c1.2356,-0.09816 16.71174,-1.97778 16.71174,-1.97778l-17.00296,7.86473z" fill="#424763" stroke="none" stroke-width="1"/><path d="M352.50954,199.78128c0,0 10.38673,-1.98889 11.5503,-1.99509c0.50894,-0.00114 -1.68836,3.91522 -1.68836,3.91522z" fill="#424763" stroke="none" stroke-width="1"/><path d="M360.93058,205.03778l-13.35479,4.02824c0,0 -0.40245,-3.03127 0.8307,-3.68312c1.23087,-0.65202 13.36949,-2.30199 13.36949,-2.30199z" fill="#424763" stroke="none" stroke-width="1"/><path d="M346.84652,213.17119c0,0 9.04219,0.19142 10.48718,-0.42237l-1.80089,4.25903l-9.61728,1.76414z" fill="#424763" stroke="none" stroke-width="1"/><path d="M343.81199,225.1032c0,0 7.40773,0.38301 9.07028,-0.38301c0,0 0.80506,3.33686 0.38661,4.14355c0,0 -10.87117,2.56594 -11.26153,2.49342l-0.27897,-2.95385z" fill="#424763" stroke="none" stroke-width="1"/><path d="M341.67578,236.48184c0,0 6.30051,0.49473 7.69634,0.00376c0.37191,-0.15353 -2.44425,3.8489 -2.44425,3.8489c0,0 -5.23755,0.35721 -5.81607,0.27995c-0.57868,-0.07628 -0.05994,-2.75148 0.56398,-4.13261" fill="#424763" stroke="none" stroke-width="1"/><path d="M340.23258,244.59336c0,0 3.59803,0.30559 4.74314,-0.00621c0.50159,-0.19273 -0.99828,3.8048 -0.99828,3.8048c0,0 -3.58953,0.80539 -5.41721,0.15337c-0.72682,-0.26884 0.00245,-0.99812 0.00245,-0.99812l1.14626,-2.96005z" fill="#424763" stroke="none" stroke-width="1"/><path d="M335.71631,252.46675c0.17019,-0.03806 2.76504,1.26582 6.72141,0.10682c2.35638,-0.69105 1.36904,2.18668 1.36904,2.18668c0,0 -5.57875,1.93613 -9.27836,1.68803c-2.86271,-0.19142 1.18791,-3.98153 1.18791,-3.98153" fill="#424763" stroke="none" stroke-width="1"/></g><g><path d="M218.22619,136.0115c0,0 3.51734,24.54968 15.91419,27.6288c7.32084,1.8182 21.86843,-17.95551 21.86843,-17.95551c0,0 3.57222,1.36529 12.2866,27.65575c4.01893,19.18572 -14.8215,39.95999 -14.8215,39.95999c0,0 -1.97958,2.26508 8.24562,6.7758c10.22781,4.51072 22.37247,9.62414 22.37247,9.62414c0,0 9.68343,3.70648 13.30219,10.03181c1.86083,-0.98097 -15.08953,2.49587 -15.08953,2.49587c0,0 1.98921,-6.31537 -40.57183,-19.62018c-4.22326,-0.89996 -3.46115,-1.06933 -3.34356,-3.66483c0.12969,-2.85928 1.96471,-18.35452 -13.38043,-35.38182c-21.2824,-23.61412 -6.50124,-47.42946 -6.78266,-47.54984" fill="#d3d5df" stroke="none" stroke-width="1"/><path d="M255.18644,144.49836c0,0 6.92329,9.43876 11.82797,23.32796c7.6622,24.00089 -13.54066,45.47488 -13.54066,45.47488c0,0 -1.97958,2.26394 8.24578,6.77466c10.22765,4.51072 22.37247,9.62414 22.37247,9.62414c0,0 9.14133,3.28051 13.30203,10.03181c1.86083,-0.97982 -15.08822,2.49587 -15.08822,2.49587c0,0 2.64989,-6.26376 -40.57314,-19.62018c-4.22326,-0.89881 -3.46099,-1.06933 -3.34241,-3.66352c0.12854,-2.85944 2.51416,-17.81063 -13.38157,-35.38182c-21.10747,-23.33417 -6.25281,-47.95996 -6.53423,-48.08034" fill="none" stroke="#424763" stroke-width="0.5625"/><path d="M284.53757,247.06309c0,0 1.64181,-1.48795 1.83503,-5.5763c0.64728,-0.06631 10.40143,-1.75451 10.40143,-1.75451l5.32183,5.73603l1.68346,6.12264z" fill="#313753" stroke="none" stroke-width="1"/><path d="M226.73934,166.07819c0,0 27.02252,0.61021 36.64959,-7.15636c0.36586,-0.29465 1.89758,5.07536 1.89758,5.07536c0,0 -11.14524,5.96551 -38.54718,2.081" fill="#424763" stroke="none" stroke-width="1"/><path d="M217.65453,173.56627c0,0 30.5949,0.48624 41.42589,-2.42955c8.27502,-2.22833 -15.97903,8.53014 -37.55755,8.15203" fill="#424763" stroke="none" stroke-width="1"/><path d="M225.71722,181.96069c0,0 32.58787,1.39975 42.38612,-4.4026l0.57264,6.72794c0,0 -24.70566,3.31122 -38.64142,0.09947c-2.96561,-1.63527 -4.31734,-2.42482 -4.31734,-2.42482" fill="#424763" stroke="none" stroke-width="1"/><path d="M230.25064,190.41505c0,0 30.25615,5.16633 36.42452,0.62507l-2.44311,5.90655c0,0 -15.67311,3.78504 -30.09217,-1.19346c-0.98129,-1.08517 -3.88925,-5.33816 -3.88925,-5.33816" fill="#424763" stroke="none" stroke-width="1"/><path d="M236.50509,202.71406c0,0 21.06827,1.30861 24.2356,0l-1.98056,4.02318c0,0 -13.25075,2.6605 -21.26166,-0.27129c-0.57623,-0.21249 -0.99338,-3.75188 -0.99338,-3.75188" fill="#424763" stroke="none" stroke-width="1"/><path d="M238.58152,216.2753c0.09539,-0.39771 13.48807,-1.50755 14.78002,-2.14732c0,0 1.33344,2.70967 2.76487,2.99207c1.43258,0.2824 -14.39341,5.48793 -14.39341,5.48793c0,0 -2.71097,-0.31686 -3.19917,-1.08044c-0.54193,-0.84965 -0.42335,-3.29766 0.04769,-5.25225" fill="#424763" stroke="none" stroke-width="1"/><path d="M265.97627,221.94094c0,0 -3.69603,6.83591 -3.72167,7.15881c-0.02695,0.32176 -9.38714,-2.87169 -9.38714,-2.87169l8.85256,-6.15204z" fill="#424763" stroke="none" stroke-width="1"/><path d="M275.9996,226.26299l-4.08741,7.58734l-4.8973,-2.23937l3.75342,-7.64259z" fill="#424763" stroke="none" stroke-width="1"/><path d="M281.38593,228.55618c2.5973,1.4512 5.97515,3.23135 5.83681,2.54879c-0.32911,-1.63789 -6.17703,8.62716 -6.17703,8.62716l-4.61346,-3.44988l4.95368,-7.72606" fill="#424763" stroke="none" stroke-width="1"/></g></g></g></svg>