<svg version="1.1" xmlns="http://www.w3.org/2000/svg" xmlns:xlink="http://www.w3.org/1999/xlink" width="372.12288" height="259.1" viewBox="0,0,372.12288,259.1"><g transform="translate(-133.93856,-50.45)"><g data-paper-data="{&quot;isPaintingLayer&quot;:true}" fill-rule="nonzero" stroke="none" stroke-width="1" stroke-linecap="butt" stroke-linejoin="miter" stroke-miterlimit="10" stroke-dasharray="" stroke-dashoffset="0" style="mix-blend-mode: normal"><g><path d="M222.13498,178.29765c0,0 7.8374,37.39095 -23.34893,75.92485c-15.67481,19.43023 -26.7778,36.57455 -24.49189,40.98309c2.28591,4.57182 11.10299,8.81708 8.32724,11.10299c-2.77575,2.28591 -34.77848,1.63279 -41.63621,-2.61247c-2.77575,-1.79607 -4.7351,-40.49325 0.16328,-60.5766c4.89838,-20.08335 12.08266,-31.02306 12.40922,-46.04475c0.32656,-15.02169 -4.40854,-43.75884 2.28591,-54.69855c6.69445,-10.93971 19.59351,-30.53322 44.90179,-16.98104c25.30828,13.55218 23.18565,42.94244 21.38958,52.90248z" fill="#856045"/><path d="M168.41611,306.14531c-0.32656,-0.65312 -0.8164,-1.46951 -1.46951,-2.28591c-0.48984,-0.8164 -1.14295,-1.63279 -1.63279,-2.28591c-0.16328,-0.32656 -0.32656,-0.65312 -0.48984,-0.8164c-0.16328,-0.16328 -0.16328,-0.32656 -0.16328,-0.32656c0,0 0.48984,0.16328 1.14295,0.65312c0.65312,0.48984 1.46951,1.14295 2.12263,2.12263c0.48984,0.97968 0.97968,1.95935 1.14295,2.77575c0.16328,0.8164 0.16328,1.30623 0.16328,1.30623c0,0 -0.32656,-0.48984 -0.8164,-1.14295z" fill="#59402f"/><path d="M177.39647,306.14531c-0.48984,-0.8164 -1.14295,-1.79607 -1.95935,-2.61247c-0.8164,-0.8164 -1.63279,-1.63279 -2.28591,-2.28591c-0.32656,-0.32656 -0.65312,-0.65312 -0.8164,-0.8164c-0.16328,-0.16328 -0.32656,-0.32656 -0.32656,-0.32656c0,0 0.16328,0.16328 0.48984,0.16328c0.32656,0 0.65312,0.16328 1.14295,0.32656c0.32656,0.16328 0.8164,0.48984 1.30623,0.8164c0.48984,0.32656 0.8164,0.8164 1.30623,1.30623c0.97968,0.97968 1.46951,1.95935 1.79607,2.93903c0.32656,0.8164 0.32656,1.46951 0.32656,1.46951c0,0 -0.32656,-0.65312 -0.97968,-0.97968z" fill="#59402f"/><path d="M164.66069,307.12498c-0.8164,-1.30623 -1.95935,-3.10231 -0.16328,-3.10231c1.79607,0 3.26559,4.40854 3.26559,5.38822c0,0.65312 -2.12263,-1.14295 -3.10231,-2.28591z" fill="#665a52"/><path d="M173.64104,306.30859c-0.8164,-1.30623 -1.95935,-3.10231 -0.16328,-3.10231c1.79607,0 3.26559,4.40854 3.26559,5.38822c0,0.65312 -2.28591,-1.14295 -3.10231,-2.28591z" fill="#665a52"/><path d="M179.19254,305.98203c-0.8164,-1.30623 -1.95935,-3.10231 -0.16328,-3.10231c1.79607,0 3.26559,4.40854 3.26559,5.38822c0,0.65312 -2.12263,-1.30623 -3.10231,-2.28591z" fill="#665a52"/><g><path d="M140.00552,253.07955c-6.85773,-6.04133 -1.30623,-16.4912 -1.30623,-16.4912l-4.7351,5.06166c-0.48984,-7.02101 6.20461,-17.3076 6.20461,-17.3076l-4.7351,1.46951c1.79607,-7.18429 8.98036,-10.12331 8.98036,-10.12331c-2.93903,2.61247 -6.53117,-0.48984 -6.53117,-0.48984c3.9187,0.32656 16.98104,-16.00137 16.98104,-16.00137" fill="#856045"/><path d="M138.86256,214.70893c0.48984,-0.32656 1.14295,-0.65312 1.79607,-1.30623c0.65312,-0.65312 1.46951,-1.30623 2.28591,-2.12263c0.8164,-0.65312 1.79607,-1.63279 2.61247,-2.44919c1.79607,-1.79607 3.42886,-3.59214 4.7351,-4.89838c1.30623,-1.30623 2.28591,-2.12263 2.28591,-2.12263c0,0 -0.65312,1.14295 -1.79607,2.61247c-0.48984,0.65312 -1.14295,1.63279 -1.95935,2.44919c-0.8164,0.97968 -1.63279,1.95935 -2.44919,2.77575c-1.63279,1.79607 -3.59214,3.42886 -5.22494,4.40854c-0.8164,0.48984 -1.63279,0.8164 -2.12263,0.97968c-0.48984,0.16328 -0.8164,0.16328 -0.8164,0.16328c0,0 0.32656,0 0.65312,-0.48984z" fill="#59402f"/><path d="M136.08682,224.01585c0.16328,-0.48984 0.32656,-1.14295 0.65312,-1.79607c0.32656,-0.65312 0.65312,-1.30623 1.14295,-1.95935c0.48984,-0.65312 0.97968,-1.14295 1.46951,-1.63279c0.48984,-0.48984 1.14295,-0.8164 1.63279,-1.14295c0.48984,-0.32656 0.97968,-0.32656 1.30623,-0.48984c0.32656,-0.16328 0.48984,-0.16328 0.48984,-0.16328c0,0 0,0.16328 -0.32656,0.32656c-0.16328,0.16328 -0.65312,0.48984 -0.97968,0.8164c-0.48984,0.32656 -0.8164,0.8164 -1.30623,1.30623c-0.48984,0.48984 -0.8164,1.14295 -1.30623,1.63279c-0.8164,1.14295 -1.63279,2.28591 -2.12263,3.26559c-0.65312,0.97968 -0.97968,1.63279 -0.97968,1.63279c0,0 0,-0.8164 0.32656,-1.79607z" fill="#59402f"/><path d="M134.12747,240.67033c-0.16328,-0.48984 -0.16328,-1.30623 -0.16328,-2.12263c0,-1.79607 0.65312,-4.08198 1.46951,-6.20461c0.48984,-1.14295 0.97968,-2.12263 1.46951,-3.10231c0.48984,-0.97968 1.14295,-1.79607 1.63279,-2.44919c0.48984,-0.65312 0.97968,-1.30623 1.30623,-1.63279c0.32656,-0.48984 0.48984,-0.65312 0.48984,-0.65312c0,0 -0.16328,0.16328 -0.32656,0.65312c-0.32656,0.32656 -0.65312,0.97968 -0.97968,1.79607c-0.48984,0.8164 -0.8164,1.63279 -1.30623,2.61247c-0.48984,0.97968 -0.8164,2.12263 -1.30623,3.10231c-0.48984,0.97968 -0.8164,2.12263 -1.14295,3.10231c-0.32656,0.97968 -0.48984,1.95935 -0.65312,2.77575c-0.48984,1.63279 -0.32656,2.77575 -0.32656,2.77575c0,0 -0.16328,-0.32656 -0.16328,-0.65312z" fill="#59402f"/><path d="M137.71961,250.46708c-0.16328,-0.32656 -0.48984,-0.8164 -0.8164,-1.46951c-0.16328,-0.65312 -0.48984,-1.46951 -0.48984,-2.28591c-0.16328,-0.97968 -0.16328,-1.79607 0,-2.77575c0,-0.32656 0.16328,-0.8164 0.16328,-1.30623c0,-0.48984 0.16328,-0.8164 0.32656,-1.30623c0.32656,-0.8164 0.65312,-1.63279 0.8164,-2.28591c0.16328,-0.65312 0.48984,-1.14295 0.65312,-1.46951c0.16328,-0.32656 0.32656,-0.48984 0.32656,-0.48984c0,0 0,0.97968 -0.32656,2.28591c-0.16328,1.46951 -0.65312,3.10231 -0.8164,4.89838c-0.16328,1.63279 -0.16328,3.42886 0,4.7351c0.16328,0.65312 0.32656,1.14295 0.48984,1.46951c0.16328,0.32656 0.32656,0.48984 0.32656,0.48984c0,0 -0.16328,0 -0.65312,-0.48984z" fill="#59402f"/></g><path d="M140.33208,253.73267c-0.16328,3.10231 -0.48984,6.69445 -0.65312,10.61315c-0.16328,3.75542 -0.32656,8.00068 -0.48984,12.08266c-0.16328,4.08198 -0.32656,8.16396 -0.16328,12.08266c0,3.75542 0.32656,7.34757 0.8164,10.44987c0.32656,1.63279 0.65312,2.93903 1.14295,4.08198c0.16328,0.48984 0.32656,1.14295 0.8164,1.30623c0.48984,0.32656 0.8164,0.48984 1.30623,0.65312c1.63279,0.65312 2.61247,0.97968 2.61247,0.97968c0,0 -0.97968,-0.32656 -2.77575,-0.8164c-0.48984,-0.16328 -0.97968,-0.32656 -1.46951,-0.65312c-0.32656,-0.16328 -0.48984,-0.32656 -0.65312,-0.65312c-0.16328,-0.32656 -0.32656,-0.48984 -0.48984,-0.8164c-0.48984,-1.14295 -0.97968,-2.61247 -1.30623,-4.08198c-0.65312,-3.10231 -1.14295,-6.69445 -1.30623,-10.61315c-0.16328,-3.9187 -0.16328,-8.16396 0,-12.24594c0.16328,-4.08198 0.32656,-8.16396 0.65312,-12.08266c0.32656,-3.9187 0.65312,-7.51085 0.97968,-10.61315c0.65312,-6.20461 1.30623,-10.28659 1.30623,-10.28659c0,0 -0.32656,4.08198 -0.32656,10.61315z" fill="#59402f"/><path d="M223.11466,205.89185c-0.97968,2.93903 -2.44919,7.18429 -4.24526,12.24594c-1.95935,5.06166 -4.24526,10.93971 -6.85773,17.14432c-1.46951,2.93903 -2.93903,6.20461 -4.57182,9.30692c-0.8164,1.46951 -1.79607,3.10231 -2.77575,4.57182c-0.97968,1.46951 -2.12263,2.93903 -3.26559,4.24526c-4.57182,5.55149 -9.14364,11.10299 -13.22562,16.4912c-3.9187,5.38822 -7.67412,10.44987 -10.44987,15.02169c-0.65312,1.14295 -1.30623,2.28591 -1.79607,3.42886c-0.48984,1.14295 -0.8164,2.28591 -1.14295,3.26559c-0.32656,0.97968 -0.48984,1.95935 -0.48984,2.93903c0,0.97968 0.48984,1.63279 0.97968,2.28591c0.97968,1.14295 1.79607,1.95935 2.44919,2.61247c0.65312,0.65312 0.97968,0.97968 0.97968,0.97968c0,0 -0.32656,-0.16328 -0.97968,-0.8164c-0.65312,-0.65312 -1.63279,-1.46951 -2.61247,-2.61247c-0.65312,-0.65312 -1.14295,-1.46951 -1.14295,-2.44919c-0.16328,-0.97968 0.16328,-1.95935 0.32656,-3.10231c0.16328,-1.14295 0.48984,-2.28591 0.97968,-3.42886c0.48984,-1.14295 1.14295,-2.28591 1.79607,-3.42886c2.61247,-4.7351 6.20461,-9.96003 10.28659,-15.34825c4.08198,-5.38822 8.49052,-10.93971 13.06234,-16.4912c1.14295,-1.46951 2.28591,-2.77575 3.26559,-4.24526c0.97968,-1.46951 1.95935,-3.10231 2.77575,-4.57182c1.63279,-3.10231 3.26559,-6.20461 4.57182,-9.30692c2.77575,-6.20461 5.06166,-11.91939 7.02101,-16.98104c3.9187,-9.96003 6.20461,-16.81776 6.20461,-16.81776c0,0 -0.65312,1.63279 -1.14295,5.06166z" fill="#59402f"/></g><g><g><path d="M388.67982,177.1547c-5.22494,36.90111 -15.18497,46.37131 -16.4912,56.98446c-1.30623,10.61315 0,49.96345 2.28591,54.53527c2.28591,4.7351 9.4702,8.16396 10.61315,13.55218c1.14295,5.22494 -38.69718,2.93903 -43.43228,0c-4.7351,-2.93903 -29.8801,-69.2304 -28.24731,-106.78463c8.32724,-76.41469 80.49667,-55.35167 75.27174,-18.28728z" fill="#856045"/><path d="M315.20416,216.17844c-7.34757,-5.55149 -2.77575,-16.32793 -2.77575,-16.32793l-4.24526,5.38822c-1.30623,-7.02101 4.57182,-17.79744 4.57182,-17.79744l-4.57182,1.95935c1.14295,-7.34757 8.16396,-10.77643 8.16396,-10.77643c-2.61247,2.77575 -6.53117,0 -6.53117,0c3.9187,0 15.51153,-17.47088 15.51153,-17.47088" fill="#8d674a"/></g><path d="M311.12218,178.13438c0.32656,-0.32656 0.97968,-0.8164 1.63279,-1.46951c0.65312,-0.65312 1.30623,-1.46951 2.12263,-2.28591c0.65312,-0.97968 1.46951,-1.79607 2.28591,-2.77575c1.46951,-1.95935 3.10231,-3.75542 4.24526,-5.22494c1.14295,-1.30623 1.95935,-2.28591 1.95935,-2.28591c0,0 -0.48984,1.14295 -1.46951,2.77575c-0.48984,0.8164 -1.14295,1.63279 -1.79607,2.61247c-0.8164,0.97968 -1.46951,1.95935 -2.28591,2.93903c-1.63279,1.79607 -3.26559,3.59214 -4.89838,4.7351c-0.65312,0.65312 -1.46951,0.97968 -1.95935,1.14295c-0.48984,0.16328 -0.8164,0.16328 -0.8164,0.16328c0,0 0.32656,-0.16328 0.97968,-0.32656z" fill="#59402f"/><path d="M308.83627,187.44129c0,-0.48984 0.16328,-1.14295 0.48984,-1.79607c0.32656,-0.65312 0.65312,-1.30623 0.97968,-1.95935c0.32656,-0.65312 0.8164,-1.30623 1.30623,-1.79607c0.48984,-0.48984 0.97968,-0.8164 1.46951,-1.14295c0.48984,-0.32656 0.97968,-0.48984 1.30623,-0.65312c0.32656,-0.16328 0.48984,-0.16328 0.48984,-0.16328c0,0 -0.16328,0.16328 -0.32656,0.32656c-0.32656,0.32656 -0.65312,0.65312 -0.97968,0.97968c-0.32656,0.32656 -0.8164,0.8164 -1.14295,1.30623c-0.32656,0.48984 -0.8164,0.97968 -1.14295,1.63279c-0.65312,1.14295 -1.30623,2.44919 -1.79607,3.42886c-0.48984,0.97968 -0.8164,1.63279 -0.8164,1.63279c0,0 0,-0.8164 0.16328,-1.79607z" fill="#59402f"/><path d="M308.34643,203.9325c-0.16328,-0.48984 -0.32656,-1.30623 -0.32656,-2.12263c0,-0.8164 0,-1.79607 0.16328,-2.93903c0,-0.97968 0.32656,-2.12263 0.65312,-3.26559c0.32656,-1.14295 0.65312,-2.12263 1.14295,-3.10231c0.32656,-0.97968 0.8164,-1.79607 1.30623,-2.61247c0.48984,-0.8164 0.8164,-1.30623 1.14295,-1.79607c0.32656,-0.48984 0.48984,-0.65312 0.48984,-0.65312c0,0 -0.16328,0.16328 -0.32656,0.65312c-0.16328,0.48984 -0.32656,1.14295 -0.65312,1.95935c-0.32656,0.65312 -0.65312,1.63279 -0.97968,2.61247c-0.32656,0.97968 -0.65312,2.12263 -0.97968,3.10231c-0.32656,0.97968 -0.65312,2.12263 -0.8164,3.10231c-0.32656,0.97968 -0.48984,1.95935 -0.48984,2.77575c-0.16328,1.63279 0,2.77575 0,2.77575c0,0 -0.16328,-0.32656 -0.32656,-0.48984z" fill="#59402f"/><path d="M342.96163,302.71645c-0.65312,-0.32656 -1.79607,-0.8164 -2.61247,-1.95935c-0.8164,-1.14295 -1.79607,-2.61247 -2.61247,-4.40854c-0.8164,-1.63279 -1.63279,-3.75542 -2.44919,-6.04133c-1.79607,-4.57182 -3.9187,-9.79676 -6.04133,-15.34825c-2.12263,-5.71477 -4.24526,-11.75611 -6.20461,-17.79744c-0.97968,-2.93903 -1.95935,-6.04133 -2.77575,-9.14364c-0.32656,-1.46951 -0.8164,-3.10231 -1.14295,-4.57182c-0.32656,-1.46951 -0.65312,-2.93903 -0.97968,-4.40854c-0.65312,-2.93903 -1.14295,-5.71477 -1.46951,-8.49052c-0.32656,-2.77575 -0.65312,-5.22494 -0.97968,-7.67412c-0.65312,-4.7351 -0.97968,-8.81708 -1.14295,-11.59283c-0.16328,-2.77575 -0.16328,-4.40854 -0.16328,-4.40854c0,0 0,1.63279 0.32656,4.40854c0.32656,2.77575 0.97968,6.69445 1.63279,11.42955c0.32656,2.44919 0.65312,4.89838 1.14295,7.67412c0.48984,2.77575 0.97968,5.55149 1.63279,8.49052c0.32656,1.46951 0.65312,2.93903 0.97968,4.40854c0.32656,1.63279 0.65312,3.10231 1.14295,4.57182c0.8164,3.10231 1.79607,6.04133 2.77575,9.14364c1.79607,6.20461 3.9187,12.08266 6.04133,17.79744c2.12263,5.55149 4.08198,10.77643 5.71477,15.34825c0.8164,2.28591 1.46951,4.40854 2.28591,6.20461c0.8164,1.79607 1.63279,3.26559 2.44919,4.40854c0.65312,1.14295 1.79607,1.63279 2.44919,1.95935c0.8164,0.32656 1.14295,0.32656 1.14295,0.32656c0,0 -0.32656,-0.16328 -1.14295,-0.32656z" fill="#59402f"/><path d="M314.0612,215.19877c-0.48984,-0.16328 -0.97968,-0.65312 -1.46951,-1.30623c-0.16328,-0.32656 -0.48984,-0.65312 -0.65312,-1.14295c-0.16328,-0.32656 -0.32656,-0.8164 -0.48984,-1.30623c-0.32656,-0.97968 -0.48984,-1.95935 -0.48984,-3.10231c0,-0.65312 0,-1.14295 0,-1.63279c0,-0.48984 0.16328,-0.97968 0.16328,-1.46951c0,-0.97968 0.32656,-1.79607 0.48984,-2.61247c0.16328,-0.8164 0.48984,-1.30623 0.65312,-1.79607c0.16328,-0.48984 0.32656,-0.65312 0.32656,-0.65312c0,0 0,0.16328 0,0.65312c0,0.32656 -0.16328,0.97968 -0.16328,1.79607c0,0.8164 -0.16328,1.63279 -0.16328,2.61247c0,0.48984 0,0.97968 0,1.46951c0,0.48984 0,0.97968 0,1.46951c0,0.97968 0.16328,1.95935 0.32656,2.93903c0.16328,0.97968 0.48984,1.79607 0.8164,2.44919c0.65312,1.30623 1.46951,1.95935 1.46951,1.95935c0,0 -0.16328,0 -0.8164,-0.32656z" fill="#59402f"/><path d="M372.51517,303.53284c-0.32656,-0.65312 -0.97968,-1.46951 -1.46951,-2.28591c-0.48984,-0.8164 -1.14295,-1.63279 -1.63279,-2.28591c-0.16328,-0.32656 -0.32656,-0.65312 -0.48984,-0.8164c-0.16328,-0.16328 -0.16328,-0.32656 -0.16328,-0.32656c0,0 0.48984,0.16328 1.14295,0.65312c0.65312,0.48984 1.46951,1.14295 2.12263,2.12263c0.65312,0.97968 0.97968,1.95935 1.14295,2.77575c0,0.8164 0,1.30623 0,1.30623c0,0 -0.32656,-0.48984 -0.65312,-1.14295z" fill="#59402f"/><path d="M381.49553,302.71645c-0.48984,-0.8164 -1.14295,-1.79607 -1.95935,-2.61247c-0.8164,-0.97968 -1.63279,-1.79607 -2.28591,-2.44919c-0.32656,-0.32656 -0.65312,-0.65312 -0.8164,-0.8164c-0.16328,-0.16328 -0.32656,-0.32656 -0.32656,-0.32656c0,0 0.16328,0.16328 0.48984,0.16328c0.32656,0.16328 0.65312,0.32656 1.14295,0.48984c0.32656,0.16328 0.8164,0.48984 1.30623,0.8164c0.48984,0.32656 0.8164,0.8164 1.30623,1.30623c0.8164,0.97968 1.30623,2.12263 1.63279,3.10231c0.32656,0.8164 0.32656,1.46951 0.32656,1.46951c0,0 -0.32656,-0.48984 -0.8164,-1.14295z" fill="#59402f"/><path d="M376.2706,291.77674c-0.48984,-0.48984 -0.97968,-1.14295 -1.46951,-1.79607c-0.32656,-0.65312 -0.8164,-1.46951 -1.14295,-2.44919c-0.65312,-1.79607 -1.14295,-4.08198 -1.30623,-6.36789c-0.32656,-4.7351 -0.97968,-10.28659 -1.30623,-16.16465c-0.48984,-5.87805 -0.65312,-12.24594 -0.48984,-18.61383c0,-3.26559 0.16328,-6.36789 0.65312,-9.4702c0.48984,-3.10231 1.14295,-6.04133 1.95935,-8.98036c1.63279,-5.71477 4.08198,-10.77643 5.87805,-15.18497c0.97968,-2.28591 1.79607,-4.24526 2.44919,-6.04133c0.65312,-1.79607 1.30623,-3.42886 1.63279,-4.7351c0.32656,-1.30623 0.65312,-2.44919 0.8164,-3.10231c0.16328,-0.8164 0.32656,-1.14295 0.32656,-1.14295c0,0 0,0.48984 -0.16328,1.14295c0,0.65312 -0.32656,1.79607 -0.65312,3.10231c-0.8164,2.77575 -1.95935,6.53117 -3.75542,10.93971c-1.63279,4.40854 -3.75542,9.4702 -5.38822,15.18497c-0.8164,2.77575 -1.46951,5.71477 -1.79607,8.81708c-0.48984,2.93903 -0.48984,6.20461 -0.65312,9.30692c-0.16328,6.20461 0,12.5725 0.32656,18.45056c0.32656,5.87805 0.65312,11.42955 0.97968,16.16465c0.16328,2.28591 0.48984,4.40854 1.14295,6.20461c0.32656,0.97968 0.65312,1.79607 1.14295,2.44919c0.32656,0.65312 0.8164,1.30623 1.30623,1.79607c1.79607,2.28591 2.93903,3.26559 2.93903,3.26559c0,0 -1.30623,-0.97968 -3.42886,-2.77575z" fill="#59402f"/><path d="M368.59647,304.51252c-0.8164,-1.30623 -1.95935,-3.10231 -0.16328,-3.10231c1.79607,0 3.26559,4.40854 3.26559,5.38822c0,0.65312 -2.28591,-1.14295 -3.10231,-2.28591z" fill="#665a52"/><path d="M377.57683,303.8594c-0.8164,-1.30623 -1.95935,-3.10231 -0.16328,-3.10231c1.79607,0 3.26559,4.40854 3.26559,5.38822c0,0.65312 -2.28591,-0.97968 -3.10231,-2.28591z" fill="#665a52"/><path d="M383.12833,302.38989c-0.8164,-1.30623 -1.95935,-3.10231 -0.16328,-3.10231c1.79607,0 3.26559,4.40854 3.26559,5.38822c0,0.65312 -2.12263,-1.14295 -3.10231,-2.28591z" fill="#665a52"/></g><g><g><path d="M149.47572,160.50022c-16.65448,-2.77575 -5.55149,-18.124 -5.55149,-18.124c-2.28591,0.48984 -5.22494,5.87805 -5.22494,5.87805c1.79607,-13.55218 9.79676,-16.4912 9.79676,-16.4912c-3.10231,0 -8.16396,4.24526 -8.16396,4.24526c17.3076,-25.63484 34.28864,-19.75679 34.28864,-19.75679c3.9187,3.75542 -8.6538,46.86115 -25.145,44.24868z" fill="#8d674a"/><path d="M143.43438,130.94667c1.14295,-1.46951 2.28591,-3.10231 3.9187,-4.7351c0.8164,-0.8164 1.63279,-1.63279 2.44919,-2.44919c0.8164,-0.8164 1.79607,-1.46951 2.77575,-2.28591c0.97968,-0.65312 1.95935,-1.30623 2.93903,-1.95935c1.14295,-0.48984 2.12263,-1.14295 3.10231,-1.63279c1.14295,-0.48984 2.12263,-0.97968 3.10231,-1.14295c0.97968,-0.16328 1.95935,-0.48984 2.77575,-0.65312c0.97968,0 1.79607,-0.16328 2.44919,-0.16328c0.8164,-0.16328 1.46951,0 1.95935,0c0.97968,0.16328 1.63279,0.16328 1.63279,0.16328c0,0 -0.65312,0.16328 -1.63279,0.16328c-0.48984,0 -1.14295,0 -1.79607,0.16328c-0.65312,0.16328 -1.46951,0.32656 -2.28591,0.48984c-0.97968,0.16328 -1.79607,0.48984 -2.77575,0.8164c-0.97968,0.32656 -1.95935,0.97968 -2.93903,1.30623c-0.97968,0.48984 -1.95935,1.14295 -2.93903,1.63279c-0.8164,0.65312 -1.79607,1.30623 -2.77575,1.95935c-0.97968,0.65312 -1.95935,1.30623 -2.77575,2.12263c-0.8164,0.65312 -1.63279,1.46951 -2.44919,2.28591c-1.46951,1.63279 -2.93903,3.10231 -4.08198,4.40854c-1.14295,1.30623 -2.12263,2.44919 -2.77575,3.26559c-0.65312,0.8164 -0.97968,1.30623 -0.97968,1.30623c0,0 1.14295,-2.12263 3.10231,-5.06166z" fill="#59402f"/><path d="M146.37341,134.21226c-1.30623,1.30623 -2.77575,3.10231 -4.08198,5.22494c-0.32656,0.48984 -0.65312,0.97968 -0.97968,1.46951c-0.32656,0.65312 -0.65312,1.14295 -0.8164,1.63279c-0.32656,0.48984 -0.48984,0.97968 -0.65312,1.46951c-0.16328,0.48984 -0.32656,0.8164 -0.48984,1.30623c-0.16328,0.32656 -0.16328,0.8164 -0.32656,1.14295c0,0.32656 -0.16328,0.65312 -0.16328,0.97968c-0.16328,0.48984 -0.16328,0.8164 -0.16328,0.8164c0,0 0,-0.32656 0,-0.8164c0,-0.65312 0,-1.30623 0.16328,-2.28591c0,-0.48984 0.16328,-0.97968 0.32656,-1.46951c0.16328,-0.48984 0.32656,-1.14295 0.48984,-1.63279c0.32656,-1.14295 0.97968,-2.12263 1.63279,-3.26559c0.65312,-1.14295 1.46951,-2.12263 2.28591,-2.93903c0.8164,-0.97968 1.46951,-1.63279 2.28591,-2.28591c1.46951,-1.30623 2.61247,-1.79607 2.61247,-1.79607c0,0 -0.97968,0.8164 -2.12263,2.44919z" fill="#59402f"/><path d="M142.45471,144.33557c-0.32656,0.65312 -0.65312,1.46951 -0.97968,2.28591c-0.16328,0.8164 -0.48984,1.63279 -0.65312,2.61247c0,0.32656 -0.16328,0.8164 -0.16328,1.30623c0,0.48984 0,0.8164 0,1.30623c0,0.48984 0.16328,0.97968 0.16328,1.30623c0,0.48984 0,0.8164 0.16328,1.14295c0,0.32656 0.16328,0.65312 0.16328,0.97968c0.16328,0.16328 0.32656,0.48984 0.32656,0.65312c0.16328,0.48984 0.16328,0.65312 0.16328,0.65312c0,0 0,-0.16328 -0.32656,-0.48984c-0.16328,-0.48984 -0.48984,-0.97968 -0.8164,-1.63279c-0.16328,-0.32656 -0.16328,-0.65312 -0.32656,-1.14295c-0.16328,-0.32656 -0.32656,-0.8164 -0.32656,-1.30623c-0.16328,-0.97968 0,-1.95935 0.16328,-2.93903c0.32656,-0.97968 0.65312,-1.95935 0.97968,-2.77575c0.32656,-0.97968 0.8164,-1.63279 1.30623,-2.28591c0.8164,-1.14295 1.63279,-1.79607 1.63279,-1.79607c0,0 -0.48984,0.97968 -1.46951,2.12263z" fill="#59402f"/></g><g><path d="M409.25301,162.9494c0,0 0,12.73578 -5.38822,17.96072l-0.32656,-4.57182c0,0 -1.63279,14.36857 -12.24594,18.61383l1.30623,-4.24526c0,0 -12.08266,7.51085 -11.91939,13.06234l-1.95935,-3.26559c0,0 -11.10299,9.4702 -16.00137,6.20461" fill="#8d674a"/><g><path d="M412.51859,143.84573c-1.95935,44.57524 -44.90179,61.22972 -44.90179,61.22972c-23.02237,46.37131 -152.82938,46.20803 -189.56721,16.81776c-32.81913,-26.28796 -41.63621,-80.00683 2.28591,-115.92827c43.92212,-35.92144 76.25141,-9.79676 103.02921,-19.75679c18.45056,-6.85773 57.14774,-22.20598 86.538,-13.06234" fill="#8d674a"/><path d="M409.57956,166.05171c0,1.79607 -0.32656,4.08198 -0.8164,6.36789c-0.32656,1.14295 -0.48984,2.28591 -0.97968,3.26559c-0.32656,1.14295 -0.8164,2.12263 -1.30623,2.77575c-0.32656,0.32656 -0.48984,0.65312 -0.8164,0.97968c-0.16328,0.32656 -0.48984,0.48984 -0.65312,0.65312c-0.48984,0.32656 -0.65312,0.48984 -0.65312,0.48984c0,0 0.16328,-0.32656 0.48984,-0.65312c0.16328,-0.16328 0.32656,-0.48984 0.48984,-0.8164c0.16328,-0.16328 0.32656,-0.65312 0.48984,-0.97968c0.32656,-0.8164 0.65312,-1.79607 0.97968,-2.77575c0.16328,-0.48984 0.32656,-1.14295 0.48984,-1.63279c0,-0.48984 0.16328,-1.14295 0.32656,-1.63279c0.48984,-2.28591 0.97968,-4.57182 1.30623,-6.20461c0.32656,-1.63279 0.65312,-2.77575 0.65312,-2.77575c0,0 0,1.14295 0,2.93903z" fill="#59402f"/><path d="M403.21167,180.09373c-0.16328,0.97968 -0.48984,2.28591 -0.97968,3.59214c-0.48984,1.30623 -1.14295,2.61247 -1.79607,3.9187c-0.48984,0.48984 -0.8164,1.14295 -1.30623,1.79607c-0.48984,0.48984 -0.97968,1.14295 -1.46951,1.63279c-0.48984,0.48984 -0.97968,0.97968 -1.46951,1.30623c-0.48984,0.32656 -0.97968,0.65312 -1.46951,0.97968c-0.48984,0.32656 -0.97968,0.65312 -1.30623,0.8164c-0.48984,0.16328 -0.8164,0.32656 -1.14295,0.48984c-0.65312,0.16328 -0.97968,0.32656 -0.97968,0.32656c0,0 0.32656,-0.16328 0.8164,-0.48984c0.32656,-0.16328 0.65312,-0.48984 0.97968,-0.65312c0.32656,-0.32656 0.65312,-0.65312 1.14295,-0.97968c0.48984,-0.32656 0.8164,-0.8164 1.30623,-1.14295c0.48984,-0.48984 0.8164,-0.97968 1.30623,-1.46951c0.48984,-0.48984 0.8164,-1.14295 1.30623,-1.63279c0.48984,-0.48984 0.8164,-1.14295 1.14295,-1.79607c0.32656,-0.48984 0.65312,-1.14295 0.97968,-1.79607c0.16328,-0.65312 0.65312,-1.30623 0.8164,-1.95935c0.48984,-1.14295 0.97968,-2.44919 1.30623,-3.42886c0.65312,-1.95935 0.97968,-3.42886 0.97968,-3.42886c0,0 0,1.46951 -0.16328,3.9187z" fill="#59402f"/><path d="M390.31261,192.66623c-0.65312,0.48984 -1.46951,1.14295 -2.28591,1.79607c-0.8164,0.8164 -1.63279,1.46951 -2.44919,2.28591c-0.8164,0.8164 -1.63279,1.63279 -2.28591,2.44919c-0.32656,0.32656 -0.65312,0.8164 -0.97968,1.14295c-0.32656,0.48984 -0.65312,0.8164 -0.8164,1.14295c-0.16328,0.32656 -0.32656,0.65312 -0.48984,0.97968c-0.16328,0.32656 -0.16328,0.65312 -0.32656,0.8164c-0.16328,0.32656 -0.32656,0.65312 -0.32656,0.65312c0,0 0,-0.32656 0.16328,-0.8164c0,-0.16328 0,-0.48984 0.16328,-0.8164c0,-0.32656 0.16328,-0.65312 0.32656,-1.14295c0.32656,-0.8164 0.8164,-1.79607 1.46951,-2.61247c0.65312,-0.97968 1.46951,-1.79607 2.28591,-2.61247c0.8164,-0.8164 1.79607,-1.46951 2.61247,-2.12263c0.8164,-0.65312 1.63279,-1.14295 2.44919,-1.63279c1.46951,-0.97968 2.61247,-1.30623 2.61247,-1.30623c0,0 -0.97968,0.8164 -2.12263,1.79607z" fill="#59402f"/><path d="M376.2706,202.62626c-0.8164,0.48984 -1.46951,1.14295 -2.44919,1.79607c-0.8164,0.65312 -1.95935,1.30623 -2.93903,1.79607c-1.14295,0.48984 -2.12263,0.97968 -3.26559,1.30623c-0.97968,0.32656 -2.12263,0.48984 -2.93903,0.48984c-0.32656,0 -0.8164,0 -1.14295,0c-0.48984,0 -0.65312,-0.16328 -0.97968,-0.16328c-0.48984,-0.16328 -0.8164,-0.16328 -0.8164,-0.16328c0,0 0.32656,0 0.8164,0c0.32656,0 0.65312,0 0.97968,0c0.32656,0 0.65312,-0.16328 1.14295,-0.16328c0.32656,-0.16328 0.8164,-0.16328 1.30623,-0.32656c0.48984,-0.16328 0.97968,-0.32656 1.46951,-0.48984c0.97968,-0.32656 2.12263,-0.8164 3.10231,-1.30623c0.97968,-0.48984 1.95935,-1.14295 2.93903,-1.63279c0.8164,-0.48984 1.63279,-0.97968 2.44919,-1.46951c1.46951,-0.97968 2.44919,-1.63279 2.44919,-1.63279c0,0 -0.65312,0.97968 -2.12263,1.95935z" fill="#59402f"/><path d="M334.30783,71.6763c-2.12263,0.48984 -5.22494,1.14295 -8.98036,1.95935c-3.75542,0.8164 -8.00068,1.79607 -12.5725,3.10231c-2.28591,0.65312 -4.57182,1.30623 -7.02101,1.95935c-2.44919,0.8164 -4.89838,1.46951 -7.18429,2.28591c-4.7351,1.63279 -9.30692,3.75542 -13.87874,5.22494c-2.28591,0.8164 -4.57182,1.30623 -6.69445,1.79607c-2.12263,0.32656 -4.08198,0.65312 -6.04133,0.8164c-1.95935,0.16328 -3.75542,0.16328 -5.22494,0.16328c-1.63279,0 -2.93903,0 -4.08198,-0.16328c-2.12263,-0.16328 -3.42886,-0.32656 -3.42886,-0.32656c0,0 1.14295,0 3.42886,0.16328c0.97968,0 2.44919,0 3.9187,0c1.63279,0 3.26559,-0.16328 5.22494,-0.32656c1.95935,-0.16328 3.9187,-0.48984 6.04133,-0.97968c2.12263,-0.48984 4.24526,-1.14295 6.53117,-1.95935c4.40854,-1.46951 9.14364,-3.59214 13.87874,-5.38822c2.28591,-0.8164 4.7351,-1.63279 7.18429,-2.28591c2.28591,-0.65312 4.7351,-1.30623 7.02101,-1.95935c4.57182,-1.30623 8.98036,-2.28591 12.73578,-2.93903c7.51085,-1.46951 12.5725,-1.79607 12.5725,-1.79607c0,0 -1.30623,0.16328 -3.42886,0.65312z" fill="#59402f"/><path d="M211.84839,89.31046c-3.26559,1.14295 -7.8374,2.93903 -13.22562,5.55149c-5.22494,2.61247 -11.26627,6.04133 -17.14432,10.61315c-5.87805,4.57182 -11.59283,10.12331 -16.00137,16.65448c-2.28591,3.26559 -4.24526,6.69445 -5.87805,10.28659c-1.79607,3.42886 -3.26559,7.02101 -4.57182,10.44987c-1.30623,3.59214 -2.44919,7.02101 -3.10231,10.28659c-0.65312,3.26559 -0.97968,6.53117 -1.14295,9.4702c-0.16328,6.04133 0.65312,10.93971 1.14295,14.36857c0.48984,3.42886 0.8164,5.38822 0.8164,5.38822c0,0 -0.32656,-1.95935 -0.97968,-5.38822c-0.65312,-3.42886 -1.63279,-8.32724 -1.63279,-14.36857c0,-2.93903 0.32656,-6.20461 0.97968,-9.63348c0.65312,-3.42886 1.63279,-6.85773 2.93903,-10.44987c1.30623,-3.42886 2.93903,-7.02101 4.57182,-10.61315c1.63279,-3.59214 3.59214,-7.18429 5.87805,-10.44987c4.57182,-6.69445 10.28659,-12.24594 16.32793,-16.81776c5.87805,-4.57182 12.08266,-7.8374 17.47088,-10.44987c5.38822,-2.61247 10.12331,-4.24526 13.3889,-5.22494c3.26559,-0.97968 5.22494,-1.46951 5.22494,-1.46951c0,0 -1.95935,0.48984 -5.06166,1.79607z" fill="#59402f"/><path d="M357.16692,217.81123c-1.14295,0.65312 -2.77575,1.79607 -4.89838,3.10231c-1.14295,0.65312 -2.28591,1.30623 -3.59214,2.12263c-1.30623,0.65312 -2.77575,1.46951 -4.24526,2.28591c-1.46951,0.8164 -3.10231,1.63279 -4.89838,2.44919c-1.63279,0.8164 -3.59214,1.63279 -5.55149,2.44919c-1.95935,0.8164 -4.08198,1.63279 -6.20461,2.44919c-2.12263,0.8164 -4.40854,1.46951 -6.69445,2.28591c-4.57182,1.46951 -9.63348,2.93903 -14.85841,3.9187c-1.30623,0.32656 -2.61247,0.65312 -3.9187,0.8164c-1.30623,0.16328 -2.77575,0.48984 -4.08198,0.65312c-1.30623,0.16328 -2.77575,0.48984 -4.08198,0.65312c-1.30623,0.16328 -2.61247,0.32656 -4.08198,0.48984c-1.46951,0.16328 -2.77575,0.32656 -4.24526,0.48984c-1.46951,0.16328 -2.77575,0.32656 -4.24526,0.32656c-2.77575,0 -5.71477,0.16328 -8.49052,0.32656c-5.71477,0 -11.42955,0 -16.98104,-0.48984c-5.55149,-0.32656 -10.93971,-0.8164 -16.32793,-1.30623c-2.61247,-0.32656 -5.22494,-0.65312 -7.8374,-0.97968c-2.61247,-0.32656 -5.06166,-0.8164 -7.51085,-1.14295c-4.89838,-0.8164 -9.4702,-1.63279 -13.55218,-2.61247c-4.24526,-0.97968 -8.00068,-1.95935 -11.26627,-3.10231c-1.63279,-0.48984 -3.10231,-1.14295 -4.57182,-1.63279c-1.30623,-0.65312 -2.61247,-0.97968 -3.75542,-1.63279c-2.28591,-0.97968 -3.9187,-2.12263 -5.06166,-2.77575c-1.14295,-0.8164 -1.63279,-1.30623 -1.63279,-1.30623c0,0 0.48984,0.32656 1.63279,1.14295c1.14295,0.65312 2.77575,1.63279 5.06166,2.61247c1.14295,0.65312 2.44919,0.97968 3.75542,1.63279c1.46951,0.65312 2.93903,1.14295 4.57182,1.63279c3.42886,0.97968 7.18429,1.95935 11.26627,2.93903c4.24526,0.97968 8.81708,1.79607 13.55218,2.44919c2.28591,0.32656 4.7351,0.65312 7.34757,0.97968c2.61247,0.16328 5.22494,0.48984 7.8374,0.8164c5.22494,0.48984 10.77643,0.97968 16.32793,1.30623c5.55149,0.48984 11.10299,0.32656 16.81776,0.48984c2.77575,-0.16328 5.71477,-0.16328 8.49052,-0.32656c1.46951,0 2.77575,-0.16328 4.24526,-0.32656c1.46951,0 2.93903,-0.16328 4.24526,-0.32656c1.30623,-0.16328 2.77575,-0.32656 4.08198,-0.48984c1.30623,-0.16328 2.77575,-0.48984 4.08198,-0.65312c1.46951,-0.16328 2.77575,-0.48984 4.08198,-0.65312c1.30623,-0.16328 2.61247,-0.48984 3.9187,-0.8164c5.22494,-1.14295 10.12331,-2.44919 14.85841,-3.75542c2.28591,-0.65312 4.57182,-1.30623 6.69445,-2.12263c2.12263,-0.8164 4.24526,-1.46951 6.20461,-2.28591c1.95935,-0.8164 3.75542,-1.46951 5.55149,-2.28591c1.79607,-0.8164 3.42886,-1.63279 5.06166,-2.28591c1.46951,-0.65312 2.93903,-1.46951 4.24526,-2.12263c1.30623,-0.65312 2.44919,-1.30623 3.59214,-1.95935c2.12263,-1.30623 3.75542,-2.28591 4.89838,-3.10231c1.14295,-0.65312 1.63279,-1.14295 1.63279,-1.14295c0,0 -0.48984,0.48984 -1.46951,0.8164z" fill="#59402f"/></g></g></g><path d="M233.56453,157.07135c0,0 18.45056,54.86183 12.89906,69.55696c-2.44919,6.36789 -3.9187,10.77643 -7.18429,18.45056c-9.96003,22.8591 -9.63348,30.53322 -6.20461,34.28864c3.42886,3.75542 15.18497,9.63348 13.22562,12.5725c-1.95935,2.93903 -35.4316,6.85773 -43.10572,4.57182c-3.10231,-0.97968 -18.77711,-38.86046 -19.43023,-59.59693c-0.65312,-20.73647 1.30623,-27.92075 -2.12263,-42.61588c-12.40922,-53.88215 50.94313,-47.35098 51.9228,-37.22767z" fill="#8d674a"/><g><path d="M233.56453,294.06264c-0.65312,-0.48984 -1.30623,-1.14295 -2.12263,-1.79607c-0.65312,-0.65312 -1.46951,-1.30623 -2.12263,-1.79607c-0.32656,-0.32656 -0.65312,-0.48984 -0.8164,-0.65312c-0.16328,-0.16328 -0.32656,-0.32656 -0.32656,-0.32656c0,0 0.48984,0 1.30623,0.32656c0.8164,0.32656 1.79607,0.8164 2.61247,1.46951c0.97968,0.65312 1.63279,1.46951 1.95935,2.28591c0.48984,0.8164 0.48984,1.30623 0.48984,1.30623c0,0 -0.32656,-0.48984 -0.97968,-0.8164z" fill="#59402f"/><path d="M241.89177,291.12362c-0.65312,-0.48984 -1.63279,-1.30623 -2.61247,-1.95935c-0.97968,-0.65312 -1.95935,-1.14295 -2.77575,-1.63279c-0.32656,-0.16328 -0.65312,-0.32656 -0.97968,-0.48984c-0.16328,0 -0.32656,-0.16328 -0.32656,-0.16328c0,0 0.16328,0 0.48984,0c0.32656,0 0.65312,0 1.14295,0.16328c0.48984,0.16328 1.14295,0.32656 1.63279,0.48984c0.48984,0.16328 1.14295,0.48984 1.63279,0.8164c0.97968,0.65312 1.95935,1.63279 2.44919,2.44919c0.65312,0.8164 0.8164,1.46951 0.8164,1.46951c0,0 -0.48984,-0.48984 -1.46951,-1.14295z" fill="#59402f"/><path d="M230.13567,295.85872c-1.14295,-0.8164 -2.77575,-2.28591 -0.97968,-2.77575c1.79607,-0.48984 4.24526,3.26559 4.57182,4.24526c0.16328,0.65312 -2.44919,-0.48984 -3.59214,-1.46951z" fill="#6c5f57"/><path d="M238.46291,292.75641c-1.14295,-0.8164 -2.77575,-2.28591 -0.97968,-2.77575c1.79607,-0.48984 4.24526,3.26559 4.57182,4.24526c0.32656,0.48984 -2.28591,-0.65312 -3.59214,-1.46951z" fill="#6c5f57"/><path d="M243.85112,290.79706c-1.14295,-0.8164 -2.77575,-2.28591 -0.97968,-2.77575c1.79607,-0.48984 4.24526,3.26559 4.57182,4.24526c0.16328,0.65312 -2.44919,-0.48984 -3.59214,-1.46951z" fill="#6c5f57"/></g><g><path d="M188.66274,254.54907c-8.49052,-3.10231 -7.02101,-14.85841 -7.02101,-14.85841l-2.61247,6.36789c-3.10231,-6.36789 -0.48984,-18.45056 -0.48984,-18.45056l-3.9187,3.10231c-0.8164,-7.51085 4.89838,-12.73578 4.89838,-12.73578c-1.95935,3.26559 -6.36789,1.79607 -6.36789,1.79607c3.75542,-1.14295 10.12331,-21.06302 10.12331,-21.06302" fill="#8d674a"/><path d="M174.13088,218.95419c0.32656,-0.32656 0.65312,-0.97968 1.14295,-1.79607c0.48984,-0.8164 0.97968,-1.79607 1.46951,-2.77575c0.48984,-0.97968 0.97968,-2.12263 1.46951,-3.26559c1.14295,-2.28591 1.95935,-4.57182 2.77575,-6.20461c0.8164,-1.63279 1.30623,-2.77575 1.30623,-2.77575c0,0 -0.16328,1.14295 -0.65312,2.93903c-0.32656,0.97968 -0.65312,1.95935 -0.97968,3.10231c-0.32656,1.14295 -0.8164,2.28591 -1.30623,3.42886c-0.97968,2.28591 -2.28591,4.40854 -3.42886,5.87805c-0.65312,0.8164 -1.14295,1.30623 -1.63279,1.63279c-0.48984,0.48984 -0.8164,0.48984 -0.8164,0.48984c0,0 0.16328,-0.16328 0.65312,-0.65312z" fill="#59402f"/><path d="M174.784,228.75094c0,-0.65312 0,-1.30623 0,-1.95935c0,-0.65312 0.16328,-1.46951 0.32656,-2.12263c0.16328,-0.8164 0.48984,-1.46951 0.8164,-2.12263c0.32656,-0.65312 0.8164,-1.14295 1.14295,-1.63279c0.32656,-0.48984 0.65312,-0.8164 0.97968,-0.97968c0.32656,-0.16328 0.48984,-0.32656 0.48984,-0.32656c0,0 -0.16328,0.16328 -0.32656,0.48984c-0.16328,0.32656 -0.32656,0.65312 -0.65312,1.14295c-0.32656,0.48984 -0.65312,0.97968 -0.8164,1.63279c-0.16328,0.65312 -0.48984,1.30623 -0.65312,1.95935c-0.32656,1.30623 -0.65312,2.61247 -0.8164,3.75542c-0.16328,0.97968 -0.32656,1.79607 -0.32656,1.79607c0,0 -0.32656,-0.65312 -0.16328,-1.63279z" fill="#59402f"/><path d="M178.21286,244.91559c-0.32656,-0.48984 -0.65312,-1.14295 -0.97968,-1.95935c-0.48984,-1.63279 -0.8164,-4.08198 -0.8164,-6.36789c0,-1.14295 0.16328,-2.28591 0.32656,-3.42886c0.16328,-1.14295 0.48984,-2.12263 0.65312,-2.93903c0.16328,-0.8164 0.48984,-1.46951 0.65312,-1.95935c0.16328,-0.48984 0.32656,-0.8164 0.32656,-0.8164c0,0 0,0.32656 0,0.8164c0,0.48984 -0.16328,1.30623 -0.16328,2.12263c0,0.8164 -0.16328,1.95935 -0.16328,2.93903c-0.16328,0.97968 -0.16328,2.12263 -0.16328,3.26559c-0.16328,1.14295 0,2.28591 0,3.26559c0,0.97968 0.16328,1.95935 0.32656,2.77575c0.32656,1.79607 0.8164,2.77575 0.8164,2.77575c0,0 -0.16328,-0.16328 -0.8164,-0.48984z" fill="#59402f"/><path d="M185.39715,252.58971c-0.32656,-0.32656 -0.8164,-0.65312 -1.30623,-1.14295c-0.48984,-0.48984 -0.97968,-1.14295 -1.30623,-1.95935c-0.48984,-0.8164 -0.65312,-1.63279 -0.97968,-2.61247c-0.16328,-0.32656 -0.16328,-0.8164 -0.32656,-1.30623c-0.16328,-0.48984 -0.16328,-0.8164 -0.16328,-1.30623c0,-0.8164 0,-1.63279 0,-2.28591c0,-0.65312 0.16328,-1.30623 0.16328,-1.63279c0.16328,-0.48984 0.16328,-0.65312 0.16328,-0.65312c0,0 0.32656,0.97968 0.48984,2.28591c0.32656,1.46951 0.48984,3.10231 0.97968,4.89838c0.32656,1.79607 0.97968,3.42886 1.63279,4.57182c0.32656,0.65312 0.65312,0.97968 0.97968,1.30623c0.32656,0.16328 0.48984,0.32656 0.48984,0.32656c0,0 -0.16328,0 -0.8164,-0.48984z" fill="#59402f"/></g><path d="M187.02994,253.40611c0.8164,2.77575 1.79607,5.87805 2.93903,9.30692c0.97968,3.42886 2.12263,7.02101 3.42886,10.61315c1.14295,3.59214 2.44919,7.18429 3.75542,10.44987c1.30623,3.42886 2.61247,6.53117 3.9187,8.98036c0.65312,1.30623 1.30623,2.44919 2.12263,3.26559c0.32656,0.48984 0.8164,0.48984 1.30623,0.65312c0.48984,0 0.8164,0.16328 1.30623,0.16328c1.63279,0.32656 2.61247,0.32656 2.61247,0.32656c0,0 -0.97968,0.16328 -2.61247,0c-0.32656,0 -0.8164,-0.16328 -1.30623,-0.16328c-0.32656,0 -0.48984,0 -0.8164,-0.16328c-0.32656,0 -0.48984,-0.32656 -0.65312,-0.48984c-0.8164,-0.97968 -1.63279,-1.95935 -2.28591,-3.26559c-0.65312,-1.14295 -1.46951,-2.61247 -2.12263,-4.08198c-0.8164,-1.46951 -1.46951,-3.10231 -2.12263,-4.7351c-1.30623,-3.26559 -2.61247,-6.85773 -3.9187,-10.44987c-1.30623,-3.75542 -2.44919,-7.34757 -3.42886,-10.77643c-0.97968,-3.42886 -1.79607,-6.69445 -2.61247,-9.4702c-1.46951,-5.55149 -2.28591,-9.30692 -2.28591,-9.30692c0,0 1.14295,3.75542 2.77575,9.14364z" fill="#59402f"/><path d="M240.74882,178.78749c0.8164,3.10231 2.12263,7.34757 3.26559,12.5725c0.65312,2.61247 1.30623,5.38822 1.79607,8.49052c0.65312,3.10231 1.14295,6.20461 1.46951,9.63348c0.32656,3.42886 0.65312,6.85773 0.48984,10.44987c0,3.59214 -0.8164,7.18429 -1.79607,10.61315c-2.28591,6.85773 -5.22494,13.3889 -7.8374,19.59351c-2.61247,6.20461 -5.06166,11.91939 -6.04133,17.14432c-0.16328,1.30623 -0.32656,2.61247 -0.32656,3.75542c0,1.14295 -0.16328,2.28591 0,3.42886c0.16328,2.12263 1.14295,3.75542 2.28591,4.89838c1.14295,1.14295 2.12263,1.79607 2.77575,2.28591c0.65312,0.48984 0.97968,0.8164 0.97968,0.8164c0,0 -0.48984,-0.16328 -1.14295,-0.65312c-0.8164,-0.48984 -1.79607,-1.14295 -2.93903,-2.28591c-0.65312,-0.65312 -1.14295,-1.30623 -1.63279,-2.12263c-0.48984,-0.8164 -0.8164,-1.79607 -0.97968,-2.93903c-0.16328,-0.97968 -0.16328,-2.28591 -0.16328,-3.42886c0,-1.30623 0.16328,-2.61247 0.32656,-3.9187c0.48984,-2.61247 1.30623,-5.38822 2.28591,-8.32724c1.14295,-2.93903 2.28591,-5.87805 3.59214,-8.98036c2.61247,-6.04133 5.55149,-12.5725 7.67412,-19.43023c1.14295,-3.42886 1.95935,-6.85773 1.95935,-10.28659c0,-3.59214 -0.16328,-7.02101 -0.48984,-10.28659c-0.32656,-3.26559 -0.8164,-6.36789 -1.30623,-9.4702c-0.48984,-2.93903 -1.14295,-5.87805 -1.63279,-8.49052c-1.14295,-5.22494 -2.12263,-9.4702 -2.93903,-12.5725c-0.8164,-2.93903 -1.30623,-4.7351 -1.30623,-4.7351c0,0 0.48984,1.63279 1.63279,4.24526z" fill="#59402f"/><g><g><path d="M390.47589,62.20611c33.14569,-4.57182 70.37336,14.85841 75.43501,24.00205c5.06166,9.14364 6.04133,30.6965 6.04133,30.6965c0,0 33.47225,17.63416 32.81913,24.49189c-0.65312,6.85773 -11.42955,23.02237 -24.98173,24.00205c-13.55218,1.14295 -25.145,2.44919 -40.98309,1.63279c-15.83809,-0.8164 -44.0854,2.77575 -58.45397,-13.22562c0,0 1.95935,7.02101 4.7351,8.98036c0,0 -18.61383,-4.24526 -13.71546,-22.0427c0,0 -3.26559,2.93903 -2.28591,12.24594c0,0 -9.96003,-10.12331 -3.59214,-24.81845c0,0 -4.40854,8.00068 -8.81708,8.00068c0,0 4.24526,-6.20461 4.08198,-16.81776c0,-10.61315 1.95935,-53.22904 29.71682,-57.14774z" fill="#8d674a"/><path d="M395.53755,60.89987c33.30897,-3.26559 65.47498,16.16465 70.53664,25.47156c5.06166,9.30692 6.04133,30.6965 6.04133,30.6965c0,0 33.30897,17.47088 32.65585,24.32861c-0.65312,6.85773 -11.42955,23.02237 -24.98173,24.00205c-13.55218,1.14295 -27.59419,5.71477 -43.269,4.7351c-15.67481,-0.97968 -41.79949,-0.32656 -56.16806,-16.32793c0,0 1.95935,7.02101 4.7351,8.98036c0,0 -18.61383,-4.24526 -13.71546,-22.0427c0,0 -3.26559,2.93903 -2.28591,12.24594c0,0 -9.96003,-10.12331 -3.59214,-24.81845c0,0 -4.40854,8.00068 -8.81708,8.00068c0,0 -7.34757,-24.81845 -7.51085,-35.4316c-0.16328,-10.61315 22.8591,-37.55423 46.37131,-39.84014z" fill="#8d674a"/><path d="M504.77137,141.39654c-0.65312,6.53117 -9.96003,20.73647 -22.20598,23.51221c-4.08198,-2.28591 -8.6538,-5.55149 -8.98036,-9.96003c0,0 -26.28796,-18.124 -1.79607,-38.04407c0.16328,0.16328 33.63553,17.63416 32.98241,24.49189z" fill="#9e7b5c"/><path d="M501.99562,142.86606c-4.89838,-2.44919 -2.44919,-7.34757 -0.8164,-7.34757c1.63279,-0.16328 3.59214,2.28591 4.40854,3.75542c1.46951,2.28591 -0.8164,4.89838 -2.28591,7.51085c-0.97968,-0.65312 -1.95935,-1.46951 -1.30623,-3.9187z" fill="#332721"/><path d="M492.19887,157.07135c-1.30623,-0.32656 -3.26559,-0.65312 -5.06166,-0.8164c-0.97968,0 -1.95935,-0.16328 -2.77575,-0.16328c-0.48984,0 -0.97968,0 -1.30623,0c-0.48984,0 -0.8164,0 -1.14295,0c-0.65312,0 -1.14295,0.16328 -1.63279,0.16328c-0.32656,0 -0.65312,0 -0.65312,0c0,0 0.32656,-0.16328 0.65312,-0.32656c0.32656,-0.16328 0.97968,-0.32656 1.63279,-0.48984c0.65312,-0.16328 1.46951,-0.32656 2.44919,-0.32656c0.97968,0 1.95935,0 2.93903,0.16328c0.97968,0 1.95935,0.32656 2.77575,0.48984c0.8164,0.32656 1.63279,0.48984 2.28591,0.8164c1.30623,0.65312 2.12263,1.14295 2.12263,1.14295c0,0 -0.97968,-0.16328 -2.28591,-0.65312z" fill="#59402f"/><path d="M455.23394,120.15307c-1.52656,-0.14064 -2.58972,-2.14733 -2.37462,-4.48208c0.2151,-2.33475 1.62699,-4.11342 3.15355,-3.97278c1.52656,0.14064 2.58972,2.14733 2.37462,4.48208c-0.2151,2.33475 -1.62699,4.11342 -3.15355,3.97278z" fill="#332010"/><path d="M458.23678,101.55641c2.28591,0.32656 4.08198,1.79607 3.9187,3.59214c-0.16328,1.79607 -2.28591,2.93903 -4.57182,2.77575c-2.28591,-0.16328 -7.34757,-1.30623 -7.18429,-3.10231c0.16328,-1.79607 5.38822,-3.26559 7.8374,-3.26559z" fill="#9e7b5c"/><path d="M470.64601,103.67904c-0.48984,-3.9187 -1.30623,-8.49052 -3.10231,-13.22562c-0.48984,-1.14295 -0.97968,-2.28591 -1.63279,-3.42886c-0.65312,-1.14295 -1.46951,-2.12263 -2.28591,-3.10231c-1.79607,-1.95935 -3.75542,-3.75542 -5.87805,-5.38822c-2.12263,-1.46951 -4.24526,-3.10231 -6.53117,-4.40854c-2.28591,-1.30623 -4.57182,-2.44919 -6.85773,-3.59214c-2.28591,-1.14295 -4.57182,-2.12263 -6.69445,-2.93903c-2.12263,-0.97968 -4.08198,-1.63279 -6.04133,-2.28591c-3.75542,-1.14295 -7.02101,-2.12263 -9.30692,-2.77575c-2.28591,-0.65312 -3.59214,-0.97968 -3.59214,-0.97968c0,0 1.30623,0.32656 3.59214,0.8164c1.14295,0.16328 2.44919,0.65312 4.08198,0.97968c1.63279,0.32656 3.42886,0.8164 5.38822,1.46951c1.95935,0.48984 4.08198,1.14295 6.36789,1.95935c2.12263,0.8164 4.40854,1.63279 6.69445,2.77575c2.28591,0.97968 4.57182,2.28591 6.85773,3.59214c2.28591,1.30623 4.57182,2.77575 6.69445,4.40854c2.12263,1.63279 4.08198,3.59214 5.87805,5.55149c0.97968,1.14295 1.63279,2.12263 2.44919,3.26559c0.65312,1.14295 1.14295,2.44919 1.63279,3.59214c0.97968,2.28591 1.46951,4.7351 1.95935,7.02101c0.48984,2.28591 0.8164,4.57182 0.97968,6.53117c0.48984,4.08198 0.48984,7.51085 0.65312,9.79676c0,2.44919 0,3.75542 0,3.75542c0,0 -0.16328,-5.38822 -1.30623,-13.3889z" fill="#59402f"/><path d="M380.67914,161.80645c-1.30623,-0.48984 -2.77575,-1.30623 -4.24526,-2.28591c-0.65312,-0.48984 -1.46951,-1.14295 -2.12263,-1.79607c-0.65312,-0.8164 -1.30623,-1.46951 -1.79607,-2.28591c-0.65312,-0.8164 -0.97968,-1.79607 -1.30623,-2.61247c-0.48984,-0.8164 -0.48984,-1.79607 -0.8164,-2.61247c-0.16328,-0.97968 -0.16328,-1.79607 -0.16328,-2.61247c0,-0.8164 0.16328,-1.63279 0.16328,-2.28591c0,-0.8164 0.16328,-1.46951 0.32656,-1.95935c0,-0.65312 0.16328,-1.14295 0.32656,-1.46951c0.16328,-0.8164 0.32656,-1.30623 0.32656,-1.30623c0,0 0,0.48984 -0.16328,1.30623c0,0.48984 -0.16328,0.97968 -0.16328,1.46951c-0.16328,0.65312 -0.16328,1.30623 -0.16328,1.95935c0,0.8164 -0.16328,1.46951 0,2.28591c0.16328,0.8164 0.16328,1.63279 0.32656,2.44919c0.32656,0.8164 0.48984,1.63279 0.8164,2.44919c0.48984,0.65312 0.8164,1.63279 1.30623,2.28591c0.48984,0.8164 0.97968,1.46951 1.63279,2.12263c0.65312,0.65312 1.30623,1.30623 1.95935,1.79607c0.65312,0.48984 1.30623,1.14295 1.95935,1.46951c0.65312,0.48984 1.30623,0.8164 1.95935,1.14295c1.30623,0.65312 2.28591,1.14295 3.10231,1.30623c0.65312,0.16328 1.14295,0.32656 1.14295,0.32656c0,0 -1.95935,-0.16328 -4.40854,-1.14295z" fill="#59402f"/><path d="M368.26991,151.68314c-0.65312,-0.48984 -1.30623,-1.30623 -2.12263,-2.28591c-0.32656,-0.65312 -0.8164,-1.14295 -1.14295,-1.79607c-0.32656,-0.65312 -0.65312,-1.30623 -0.97968,-2.12263c-0.16328,-0.32656 -0.32656,-0.8164 -0.48984,-1.14295c-0.16328,-0.32656 -0.16328,-0.8164 -0.32656,-1.14295c-0.16328,-0.8164 -0.32656,-1.63279 -0.48984,-2.44919c-0.16328,-0.97968 -0.16328,-1.79607 -0.16328,-2.61247c0,-0.8164 0.16328,-1.63279 0.16328,-2.44919c0.16328,-0.8164 0.32656,-1.63279 0.48984,-2.28591c0.16328,-0.65312 0.48984,-1.30623 0.65312,-1.95935c0.16328,-0.65312 0.32656,-1.14295 0.65312,-1.63279c0.32656,-0.32656 0.48984,-0.8164 0.65312,-1.14295c0.32656,-0.65312 0.48984,-0.97968 0.48984,-0.97968c0,0 -0.16328,0.48984 -0.32656,1.14295c0,0.32656 -0.16328,0.8164 -0.32656,1.30623c-0.16328,0.48984 -0.32656,0.97968 -0.48984,1.63279c-0.16328,0.65312 -0.32656,1.30623 -0.48984,1.95935c-0.16328,0.8164 -0.16328,1.46951 -0.32656,2.28591c-0.16328,0.8164 -0.16328,1.63279 -0.16328,2.44919c0,0.8164 0,1.63279 0.16328,2.44919c0.16328,0.8164 0.32656,1.63279 0.48984,2.44919c0.16328,0.32656 0.16328,0.8164 0.32656,1.14295c0,0.48984 0.16328,0.8164 0.32656,1.14295c0.16328,0.8164 0.48984,1.46951 0.8164,2.12263c0.32656,0.65312 0.65312,1.30623 0.97968,1.79607c1.30623,2.28591 2.44919,3.42886 2.44919,3.42886c0,0 -0.32656,-0.16328 -0.8164,-1.30623z" fill="#59402f"/><path d="M357.3302,135.19193c0.32656,-0.65312 0.65312,-1.46951 0.97968,-2.61247c0.32656,-1.14295 0.65312,-2.44919 0.97968,-3.9187c0.32656,-1.46951 0.48984,-2.93903 0.65312,-4.57182c0.16328,-1.46951 0.32656,-3.10231 0.48984,-4.57182c0.16328,-1.46951 0.32656,-2.93903 0.32656,-4.08198c0,-1.30623 0.16328,-2.28591 0.16328,-2.93903c0.16328,-0.8164 0.16328,-1.14295 0.16328,-1.14295c0,0 0.16328,0.48984 0.16328,1.14295c0,0.8164 0.16328,1.79607 0.16328,2.93903c0,1.14295 0.16328,2.61247 0,4.08198c0,0.65312 -0.16328,1.46951 -0.16328,2.28591c0,0.8164 0,1.63279 -0.16328,2.44919c-0.16328,1.46951 -0.48984,3.10231 -0.8164,4.57182c-0.32656,1.46951 -0.8164,2.77575 -1.30623,3.9187c-0.48984,1.14295 -1.14295,1.95935 -1.46951,2.61247c-0.32656,0.48984 -0.65312,0.8164 -0.65312,0.8164c0,0 0.16328,-0.32656 0.48984,-0.97968z" fill="#59402f"/><path d="M398.63985,60.57331c-0.48984,0 -1.14295,0 -1.95935,0.16328c-0.8164,0.16328 -1.63279,0.32656 -2.61247,0.48984c-1.95935,0.48984 -4.08198,1.14295 -6.20461,1.95935c-0.97968,0.48984 -2.12263,0.97968 -3.26559,1.46951c-1.14295,0.48984 -2.28591,1.14295 -3.42886,1.63279c-1.14295,0.48984 -2.12263,1.14295 -3.26559,1.79607c-1.14295,0.48984 -2.12263,1.14295 -3.10231,1.79607c-0.97968,0.65312 -2.12263,1.14295 -2.93903,1.79607c-0.97968,0.48984 -1.79607,1.14295 -2.61247,1.63279c-0.8164,0.48984 -1.46951,0.97968 -2.12263,1.46951c-0.65312,0.48984 -1.14295,0.8164 -1.63279,1.14295c-0.97968,0.65312 -1.46951,0.97968 -1.46951,0.97968c0,0 0.48984,-0.48984 1.30623,-1.14295c0.32656,-0.32656 0.8164,-0.8164 1.46951,-1.30623c0.48984,-0.48984 1.14295,-1.14295 1.95935,-1.63279c1.46951,-1.14295 3.26559,-2.44919 5.22494,-3.75542c0.97968,-0.65312 1.95935,-1.30623 3.10231,-1.95935c0.97968,-0.48984 2.12263,-1.30623 3.26559,-1.79607c1.14295,-0.48984 2.28591,-1.14295 3.42886,-1.63279c1.14295,-0.48984 2.28591,-0.97968 3.42886,-1.30623c1.14295,-0.48984 2.28591,-0.65312 3.26559,-0.97968c1.14295,-0.32656 2.12263,-0.48984 3.10231,-0.65312c0.97968,-0.16328 1.79607,-0.32656 2.61247,-0.32656c0.65312,0 1.46951,0 1.95935,0c1.14295,0.16328 1.79607,0.32656 1.79607,0.32656c0,0 -0.65312,-0.16328 -1.30623,-0.16328z" fill="#59402f"/></g><g><path d="M399.12969,78.20747c-13.22562,-20.73647 4.24526,-28.08403 11.75611,-27.10436c7.51085,0.97968 10.28659,14.36857 10.28659,14.36857" fill="#8d674a"/><path d="M410.0694,57.96085c-0.16328,0.8164 -0.32656,1.63279 -0.48984,2.61247c-0.16328,0.8164 -0.32656,1.95935 -0.32656,2.93903c0,0.48984 0,0.97968 0,1.46951c0,0.48984 0,0.97968 0.16328,1.46951c0.16328,0.48984 0.16328,0.8164 0.32656,1.30623c0,0.32656 0.16328,0.8164 0.32656,1.14295c0.16328,0.32656 0.32656,0.65312 0.48984,0.97968c0.16328,0.16328 0.32656,0.48984 0.48984,0.65312c0.16328,0.48984 0.32656,0.65312 0.32656,0.65312c0,0 -0.16328,-0.16328 -0.48984,-0.48984c-0.48984,-0.32656 -0.8164,-0.8164 -1.30623,-1.46951c-0.32656,-0.32656 -0.48984,-0.65312 -0.65312,-1.14295c-0.16328,-0.48984 -0.32656,-0.97968 -0.48984,-1.46951c-0.16328,-0.48984 -0.16328,-1.14295 -0.32656,-1.63279c0,-0.48984 0,-1.14295 0,-1.63279c0,-1.14295 0.16328,-2.12263 0.48984,-3.10231c0.16328,-0.97968 0.48984,-1.79607 0.8164,-2.61247c0.48984,-1.46951 1.14295,-2.44919 1.14295,-2.44919c0,0 -0.32656,0.97968 -0.48984,2.77575z" fill="#59402f"/><g fill="#59402f"><path d="M407.29366,70.04351c0.32656,0.16328 0.65312,0.48984 0.97968,0.8164c0.32656,0.32656 0.48984,0.65312 0.65312,0.97968c0.16328,0.16328 0.16328,0.48984 0.16328,0.48984c0,0 -0.16328,0 -0.48984,-0.16328c-0.32656,-0.16328 -0.65312,-0.48984 -0.97968,-0.8164c-0.32656,-0.32656 -0.48984,-0.65312 -0.65312,-0.97968c-0.16328,-0.16328 -0.16328,-0.48984 -0.16328,-0.48984c0,0 0.32656,0.16328 0.48984,0.16328z"/><path d="M405.3343,72.16614c0.32656,0 0.65312,0.32656 0.8164,0.48984c0.16328,0.32656 0.32656,0.48984 0.48984,0.8164c0.16328,0.32656 0.16328,0.48984 0.16328,0.48984c0,0 -0.16328,0 -0.48984,-0.16328c-0.32656,0 -0.65312,-0.32656 -0.8164,-0.48984c-0.16328,-0.32656 -0.32656,-0.48984 -0.48984,-0.8164c-0.16328,-0.32656 -0.16328,-0.48984 -0.16328,-0.48984c0,0 0.32656,0 0.48984,0.16328z"/></g><path d="M401.25232,53.06247c0.32656,-0.32656 0.8164,-0.48984 1.30623,-0.8164c0.48984,-0.32656 1.14295,-0.65312 1.79607,-0.8164c0.32656,0 0.8164,-0.16328 1.14295,-0.32656c0.32656,-0.16328 0.65312,-0.16328 1.14295,-0.32656c0.48984,-0.16328 0.8164,-0.16328 1.30623,-0.16328c0.32656,0 0.8164,0 1.30623,0c0.48984,0 0.97968,0.16328 1.46951,-0.16328c0.48984,0 0.97968,0.16328 1.46951,0.32656c0.48984,0.16328 0.8164,0.48984 1.30623,0.65312c0.48984,0.32656 0.97968,0.48984 1.30623,0.8164c0.65312,0.65312 1.63279,1.30623 2.12263,2.12263c0.65312,0.8164 1.30623,1.63279 1.63279,2.44919c0.48984,0.8164 0.97968,1.63279 1.14295,2.44919c0.32656,0.8164 0.65312,1.63279 0.8164,2.28591c0.32656,0.65312 0.32656,1.30623 0.48984,1.95935c0.16328,0.48984 0.32656,0.97968 0.32656,1.46951c0.16328,0.8164 0.16328,1.30623 0.16328,1.30623c0,0 -0.16328,-0.48984 -0.48984,-1.30623c-0.16328,-0.48984 -0.32656,-0.97968 -0.48984,-1.46951c-0.16328,-0.48984 -0.32656,-1.14295 -0.65312,-1.79607c-0.32656,-0.65312 -0.65312,-1.30623 -0.97968,-2.12263c-0.16328,-0.8164 -0.8164,-1.46951 -1.14295,-2.28591c-0.48984,-0.8164 -0.97968,-1.46951 -1.63279,-2.12263c-0.48984,-0.65312 -1.30623,-1.14295 -1.95935,-1.79607c-0.32656,-0.32656 -0.8164,-0.48984 -1.14295,-0.65312c-0.32656,-0.32656 -0.65312,-0.48984 -0.97968,-0.65312c-0.48984,0 -0.8164,-0.16328 -1.30623,-0.32656c-0.48984,0 -0.8164,-0.16328 -1.30623,-0.16328c-0.48984,0 -0.8164,0 -1.30623,0c-0.48984,0 -0.97968,0 -1.30623,0c-0.32656,0 -0.8164,0.16328 -1.14295,0.16328c-0.48984,0.16328 -0.8164,0.16328 -1.14295,0.32656c-1.30623,0.32656 -2.44919,0.8164 -3.26559,1.14295c-0.65312,0.48984 -1.14295,0.65312 -1.14295,0.65312c0,0 0.32656,-0.32656 1.14295,-0.8164z" fill="#59402f"/></g></g><g><path d="M346.55377,176.99142c-4.24526,26.61452 -11.75611,35.59488 -11.75611,35.59488c0,0 27.92075,26.7778 29.22699,31.83945c3.42886,13.06234 -21.87942,48.33066 -29.8801,40.1667c-7.67412,-7.8374 -0.32656,-22.20598 -0.32656,-22.20598c0,0 -27.26764,-22.8591 -29.55354,-24.32861c-4.7351,-2.93903 -34.77848,-5.06166 -32.98241,-42.77916c8.32724,-76.41469 81.14979,-55.18839 75.27174,-18.28728z" fill="#8d674a"/><path d="M273.24139,216.01516c-7.34757,-5.55149 -2.77575,-16.32793 -2.77575,-16.32793l-4.24526,5.38822c-1.30623,-7.02101 4.57182,-17.79744 4.57182,-17.79744l-4.57182,1.95935c1.14295,-7.34757 8.16396,-10.77643 8.16396,-10.77643c-2.61247,2.77575 -6.53117,0 -6.53117,0c3.9187,0 15.51153,-17.47088 15.51153,-17.47088" fill="#8d674a"/><path d="M269.15941,177.9711c0.32656,-0.32656 0.97968,-0.8164 1.63279,-1.46951c0.65312,-0.65312 1.30623,-1.46951 2.12263,-2.28591c0.65312,-0.97968 1.46951,-1.79607 2.28591,-2.77575c1.46951,-1.95935 3.10231,-3.75542 4.24526,-5.22494c1.14295,-1.30623 1.95935,-2.28591 1.95935,-2.28591c0,0 -0.48984,1.14295 -1.46951,2.77575c-0.48984,0.8164 -1.14295,1.63279 -1.79607,2.61247c-0.8164,0.97968 -1.46951,1.95935 -2.28591,2.93903c-1.63279,1.79607 -3.26559,3.59214 -4.89838,4.7351c-0.65312,0.65312 -1.46951,0.97968 -1.95935,1.14295c-0.48984,0.16328 -0.8164,0.16328 -0.8164,0.16328c0,0 0.16328,0 0.97968,-0.32656z" fill="#59402f"/><path d="M266.22038,187.11473c0.32656,-1.14295 0.8164,-2.61247 1.63279,-3.9187c0.48984,-0.65312 0.97968,-1.30623 1.46951,-1.79607c0.32656,-0.16328 0.48984,-0.48984 0.8164,-0.65312c0.32656,-0.16328 0.48984,-0.32656 0.8164,-0.48984c0.48984,-0.32656 0.97968,-0.48984 1.30623,-0.65312c0.32656,-0.16328 0.48984,-0.16328 0.48984,-0.16328c0,0 0,0.16328 -0.32656,0.32656c-0.32656,0.16328 -0.65312,0.65312 -0.97968,0.97968c-0.32656,0.16328 -0.48984,0.48984 -0.65312,0.65312c-0.32656,0.32656 -0.48984,0.48984 -0.65312,0.8164c-0.32656,0.65312 -0.8164,1.14295 -1.14295,1.79607c-0.8164,1.30623 -1.46951,2.61247 -1.95935,3.59214c-0.48984,1.14295 -0.8164,1.79607 -0.8164,1.79607c0,0 0,-0.8164 0,-2.28591z" fill="#59402f"/><path d="M266.0571,204.25906c-0.16328,-0.48984 -0.32656,-1.14295 -0.32656,-2.12263c0,-0.97968 0,-1.95935 0.16328,-3.10231c0.16328,-1.14295 0.48984,-2.28591 0.8164,-3.42886c0.65312,-2.28591 1.63279,-4.57182 2.61247,-6.04133c0.48984,-0.8164 0.8164,-1.30623 1.14295,-1.79607c0.32656,-0.48984 0.48984,-0.65312 0.48984,-0.65312c0,0 -0.16328,0.32656 -0.32656,0.8164c-0.16328,0.48984 -0.48984,1.14295 -0.8164,1.95935c-0.16328,0.8164 -0.65312,1.79607 -0.97968,2.77575c-0.48984,0.97968 -0.8164,2.12263 -1.14295,3.26559c-0.8164,2.28591 -1.30623,4.40854 -1.46951,6.20461c-0.32656,1.79607 -0.16328,2.93903 -0.16328,2.93903c0,0 -0.16328,-0.16328 0,-0.8164z" fill="#59402f"/><path d="M323.5314,253.40611c-3.10231,-2.61247 -6.69445,-5.71477 -10.44987,-8.98036c-3.9187,-3.10231 -8.32724,-6.36789 -13.3889,-7.67412c-2.61247,-0.65312 -5.22494,-1.30623 -7.67412,-2.61247c-2.44919,-1.30623 -4.57182,-2.77575 -6.69445,-4.24526c-1.95935,-1.46951 -4.08198,-2.93903 -5.55149,-4.7351c-1.46951,-1.63279 -2.61247,-3.59214 -3.59214,-5.38822c-1.79607,-3.75542 -2.61247,-7.02101 -3.10231,-9.30692c-0.48984,-2.28591 -0.48984,-3.59214 -0.48984,-3.59214c0,0 0.16328,1.30623 0.65312,3.59214c0.48984,2.28591 1.46951,5.55149 3.42886,8.98036c0.97968,1.79607 2.12263,3.59214 3.75542,5.22494c0.8164,0.8164 1.63279,1.63279 2.61247,2.28591c0.97968,0.65312 1.95935,1.30623 2.93903,2.12263c2.12263,1.30623 4.24526,2.77575 6.53117,3.9187c1.14295,0.48984 2.28591,0.97968 3.59214,1.46951c1.14295,0.48984 2.44919,0.8164 3.75542,1.14295c2.61247,0.65312 5.22494,1.95935 7.34757,3.42886c2.12263,1.46951 4.08198,3.26559 6.04133,4.89838c3.75542,3.42886 7.34757,6.53117 10.28659,9.14364c5.87805,5.22494 9.96003,8.81708 9.96003,8.81708c0,0 -4.08198,-3.42886 -9.96003,-8.49052z" fill="#59402f"/><path d="M271.6086,215.19877c-0.32656,-0.32656 -0.8164,-0.8164 -1.30623,-1.46951c-0.16328,-0.32656 -0.48984,-0.65312 -0.65312,-1.14295c-0.16328,-0.32656 -0.32656,-0.8164 -0.48984,-1.30623c-0.32656,-0.97968 -0.48984,-1.95935 -0.48984,-3.10231c0,-0.65312 0,-1.14295 0,-1.63279c0,-0.48984 0.16328,-0.97968 0.16328,-1.46951c0,-0.97968 0.32656,-1.79607 0.48984,-2.61247c0.16328,-0.8164 0.48984,-1.30623 0.65312,-1.79607c0.16328,-0.48984 0.32656,-0.65312 0.32656,-0.65312c0,0 0,0.16328 0,0.65312c0,0.32656 -0.16328,0.97968 -0.16328,1.79607c0,0.8164 -0.16328,1.63279 -0.16328,2.61247c0,0.48984 0,0.97968 0,1.46951c0,0.48984 0,0.97968 0,1.46951c0,0.48984 0,0.97968 0.16328,1.46951c0,0.48984 0,0.97968 0.16328,1.46951c0.16328,0.97968 0.48984,1.79607 0.8164,2.44919c0.65312,1.46951 1.46951,2.12263 1.46951,2.12263c0,0 -0.32656,0 -0.97968,-0.32656z" fill="#59402f"/><path d="M363.53482,254.38579c0.16328,-1.14295 0.32656,-2.28591 0.48984,-3.42886c0.16328,-1.30623 0.16328,-2.44919 0.16328,-3.59214c0,-0.65312 0,-1.30623 0,-1.79607c0,-0.65312 -0.16328,-1.14295 -0.48984,-1.63279c-1.14295,-1.95935 -2.61247,-3.9187 -4.08198,-5.71477c-1.63279,-1.79607 -3.10231,-3.59214 -4.7351,-5.38822c-3.10231,-3.59214 -6.36789,-6.85773 -9.79676,-10.28659c-3.26559,-3.26559 -6.69445,-6.69445 -10.12331,-9.96003l-0.32656,-0.32656l0.16328,-0.32656c0.97968,-1.46951 1.95935,-3.26559 2.77575,-4.89838c0.8164,-1.79607 1.79607,-3.42886 2.44919,-5.22494c0.65312,-1.79607 1.30623,-3.59214 1.95935,-5.38822c0.65312,-1.79607 1.14295,-3.75542 1.63279,-5.55149c-0.16328,0.8164 -0.32656,1.79607 -0.48984,2.77575c-0.16328,0.97968 -0.32656,1.79607 -0.65312,2.77575c-0.48984,1.95935 -1.14295,3.75542 -1.79607,5.55149c-1.30623,3.59214 -2.93903,7.02101 -5.06166,10.28659v-0.65312c3.59214,3.26559 7.02101,6.53117 10.28659,9.96003c3.26559,3.42886 6.69445,6.85773 9.79676,10.44987c1.63279,1.79607 3.10231,3.59214 4.57182,5.55149c1.30623,1.95935 2.77575,3.9187 3.9187,6.04133c0.32656,0.48984 0.65312,1.14295 0.65312,1.79607c0,0.65312 0,1.14295 0,1.79607c-0.16328,1.14295 -0.16328,2.44919 -0.32656,3.59214c-0.16328,1.14295 -0.48984,2.28591 -0.8164,3.42886c-0.32656,1.14295 -0.8164,2.28591 -1.46951,3.26559c0.65312,-0.97968 0.97968,-2.12263 1.30623,-3.10231z" fill="#59402f"/><g><path d="M332.51176,272.67306c0.65312,-0.32656 1.46951,-0.8164 2.28591,-1.46951c0.8164,-0.48984 1.63279,-1.14295 2.28591,-1.63279c0.32656,-0.16328 0.65312,-0.32656 0.8164,-0.48984c0.16328,-0.16328 0.32656,-0.16328 0.32656,-0.16328c0,0 -0.16328,0.48984 -0.65312,1.14295c-0.48984,0.65312 -1.14295,1.46951 -2.12263,2.12263c-0.97968,0.65312 -1.95935,0.97968 -2.77575,1.14295c-0.8164,0 -1.30623,0 -1.30623,0c0,0 0.48984,-0.32656 1.14295,-0.65312z" fill="#59402f"/><path d="M333.49143,281.49014c0.8164,-0.48984 1.79607,-1.14295 2.61247,-1.95935c0.8164,-0.8164 1.63279,-1.63279 2.28591,-2.28591c0.32656,-0.32656 0.65312,-0.65312 0.8164,-0.8164c0.16328,-0.16328 0.32656,-0.32656 0.32656,-0.32656c0,0 -0.16328,0.16328 -0.16328,0.48984c-0.16328,0.32656 -0.32656,0.65312 -0.48984,1.14295c-0.16328,0.32656 -0.48984,0.8164 -0.8164,1.30623c-0.32656,0.48984 -0.8164,0.8164 -1.30623,1.30623c-0.97968,0.97968 -2.12263,1.46951 -3.10231,1.79607c-0.8164,0.32656 -1.46951,0.32656 -1.46951,0.32656c0,0 0.48984,-0.32656 1.30623,-0.97968z" fill="#59402f"/><path d="M331.3688,268.59108c1.30623,-0.8164 3.10231,-1.95935 3.10231,-0.16328c0,1.79607 -4.40854,3.26559 -5.38822,3.26559c-0.65312,0 0.97968,-2.28591 2.28591,-3.10231z" fill="#6c5f57"/><path d="M332.1852,277.57144c1.30623,-0.8164 3.10231,-1.95935 3.10231,-0.16328c0,1.79607 -4.40854,3.26559 -5.38822,3.26559c-0.65312,0 1.14295,-2.12263 2.28591,-3.10231z" fill="#6c5f57"/><path d="M333.65471,283.28621c1.30623,-0.8164 3.10231,-1.95935 3.10231,-0.16328c0,1.79607 -4.40854,3.26559 -5.38822,3.26559c-0.65312,0 1.14295,-2.12263 2.28591,-3.10231z" fill="#6c5f57"/></g><path d="M337.24686,214.70893c-0.8164,-0.8164 -1.95935,-1.63279 -3.10231,-2.28591c-0.65312,-0.32656 -1.14295,-0.65312 -1.79607,-0.97968c-0.48984,-0.32656 -1.14295,-0.65312 -1.63279,-0.8164c-0.48984,-0.16328 -0.8164,-0.32656 -1.14295,-0.48984c-0.32656,0 -0.48984,-0.16328 -0.48984,-0.16328c0,0 0.16328,0 0.48984,0c0.32656,0.16328 0.8164,0 1.30623,0.16328c0.48984,0.16328 1.14295,0.32656 1.79607,0.48984c0.65312,0.32656 1.30623,0.65312 1.95935,0.97968c0.65312,0.32656 1.30623,0.8164 1.79607,1.30623c0.48984,0.48984 0.97968,0.97968 1.30623,1.46951c0.65312,0.97968 0.8164,1.63279 0.8164,1.63279c0,0 -0.48984,-0.65312 -1.30623,-1.30623z" fill="#59402f"/></g></g></g></svg>