<svg version="1.1" xmlns="http://www.w3.org/2000/svg" xmlns:xlink="http://www.w3.org/1999/xlink" width="185.25927" height="140.007" viewBox="0,0,185.25927,140.007"><g transform="translate(-201.19993,-96.9986)"><g data-paper-data="{&quot;isPaintingLayer&quot;:true}" fill-rule="nonzero" stroke="none" stroke-width="1.4" stroke-linecap="butt" stroke-linejoin="miter" stroke-miterlimit="10" stroke-dasharray="" stroke-dashoffset="0" style="mix-blend-mode: normal"><path d="M343.0746,122.5304c-5.1996,0.3766 -7.9114,1.9572 -12.9612,3.6162c-11.9952,3.9536 -19.012,10.8906 -30.1392,10.549c-0.9058,-0.7532 -2.6852,-1.2572 -4.2196,-1.5078l7.8358,-4.2196c-1.1284,-0.98 -3.1626,-1.1312 -3.0128,-2.7132c0.301,-2.4864 5.124,0.1498 6.0284,-2.1098c0.5264,-1.358 -1.1312,-2.0356 -1.8088,-3.3166l12.6588,-4.2196l-4.2938,-3.0898c3.843,-2.184 5.5748,-2.3352 10.0212,-2.3352c1.8816,0 3.465,0 4.8216,0.3024c1.9558,0.434 -3.6176,-4.0684 -1.7332,-4.6718c4.1454,-1.4322 8.5148,1.0556 12.8856,1.0556c4.2196,0 7.3094,-1.3566 11.0768,0.5264c1.4336,-4.2952 2.5634,-8.288 5.8016,-11.529c2.4486,1.4504 1.4224,7.0868 2.5634,9.4948c1.7332,0.2254 3.3838,0.5712 5.2738,0.301c3.0142,4.8216 -5.726,11.2266 -11.4534,10.85c-1.582,6.4036 -2.7874,2.562 -9.345,3.017z" fill="#975b3d"/><path d="M375.1108,144.5356c-7.6118,-1.582 -12.5104,-7.007 -19.9682,-9.947c0,5.425 4.2952,7.5348 8.1368,11.3778c-2.6376,2.6376 -6.405,3.843 -9.9456,2.7888c-3.6176,-1.1298 -2.5634,-6.027 -6.0298,-7.5348c-3.9928,0.6776 -7.0812,-1.96 -11.3022,0.301c-12.131,6.5562 -11.6046,20.5702 -21.8498,29.8396c11.151,8.3622 18.4604,17.1794 19.8912,31.4188c0.6566,6.524 -0.4522,8.5918 0.6048,14.9968c0.7532,4.5206 6.1026,4.7474 7.5348,9.0412c0.5894,1.8242 -1.036,3.871 -2.9974,5.0106c-0.7966,0.329 -1.603,0.616 -2.4164,0.8666c-0.0042,0 -0.0084,0.0014 -0.0126,0.0014c-4.2056,0.455 -7.9954,0.8484 -11.2224,-0.3906c-0.7182,-0.3962 -1.4448,-0.7868 -2.1784,-1.1662c-0.7462,-0.5292 -1.456,-1.176 -2.1238,-1.9852c-1.0556,-1.281 1.5064,-8.8158 1.9586,-15.2964c0.7546,-10.549 0.7546,-17.7058 -5.124,-26.523c-2.4108,-3.6918 -4.9728,-4.9714 -7.5348,-8.4392c-3.0898,0.4522 -6.405,-0.903 -6.405,2.1868c0,3.465 1.2054,5.4992 1.582,8.9656c1.1298,9.5704 -0.301,19.817 -8.8158,24.0366c-6.706,3.318 -9.3422,1.5092 -16.8028,0.378c-0.7742,-0.1246 -1.5218,-0.266 -2.2526,-0.4256c-1.6996,-0.8722 -3.3656,-1.7752 -4.9868,-2.6432c-0.1232,-0.175 -0.2702,-0.3346 -0.3836,-0.5166c-0.2688,-0.882 -0.6902,-1.7052 -1.2768,-2.4108c-0.0756,-0.1624 -0.1526,-0.3234 -0.2282,-0.4858c-0.4284,-4.5178 4.6298,-9.0188 8.5232,-11.9056c1.883,5.8016 9.87,8.8144 14.1652,4.5206c5.1982,-5.1996 7.4592,-13.111 2.7132,-18.6886c-8.6674,2.8644 -14.4676,2.8644 -23.2092,0.6034c-4.6732,-1.2068 -6.6318,-4.0698 -11.4534,-4.5206c0.9786,4.144 -1.8844,8.6632 1.8074,10.85c3.6932,2.1854 7.5348,2.5606 8.7402,6.629c1.0556,3.4678 -2.7118,5.3508 -5.726,7.2352c-0.4942,0.3066 -0.973,0.6062 -1.4392,0.8988c-0.2324,0.147 -0.4634,0.2912 -0.6902,0.434c-3.2312,4.2532 -7.4312,4.2532 -11.5612,4.1244c-0.2562,-0.0028 -0.5138,-0.014 -0.777,-0.0308c0,0 0.1736,-0.385 0.4088,-1.0094c0.077,-0.2072 0.1638,-0.4424 0.2506,-0.7c0.0882,-0.2576 0.1778,-0.5348 0.2674,-0.8288c0.8036,-2.6488 1.4952,-6.6066 -0.9268,-8.0108c-1.4182,1.4168 -3.4944,2.2666 -3.6918,3.766c-0.343,8.211 8.064,13.503 13.3406,19.8828c0.5446,1.3258 1.2278,2.5886 1.8242,3.8878c0.1092,1.19 0.5012,2.331 1.1368,3.325c0.0098,0.056 0.0294,0.1092 0.0392,0.1666c0.0462,0.2618 0.203,0.392 0.3878,0.4396c0.0238,0.0294 0.0462,0.063 0.0672,0.0952c0.0434,0.133 0.077,0.2646 0.1162,0.3976c-0.0392,0.5922 0.007,1.1886 0.175,1.7738c0.0476,0.8722 0.0476,1.5904 0.0378,2.0622c-0.0742,0.105 -0.1344,0.2198 -0.2016,0.3304c-0.1022,0.1204 -0.2016,0.2464 -0.2982,0.3752l-8.3384,1.9236c0,0 -7.0742,-0.8498 -9.0944,-1.0934c-0.3374,-0.0406 -0.532,-0.063 -0.532,-0.063c-0.0476,-0.2464 -0.105,-0.483 -0.1736,-0.7098c0.7546,-2.3772 3.0492,-11.0446 -0.2226,-20.286c-1.862,-5.2584 -6.2076,-5.7344 -9.1182,-10.3222c-1.9586,-3.0898 -1.8074,-9.7958 2.0356,-13.6388c-3.0926,0.6412 -6.9426,-0.4284 -8.5148,-3.4664c-1.5694,-3.0324 0.385,-8.6226 2.0342,-11.3036c2.4122,-3.9186 -1.582,-12.5832 -0.301,-20.6472c1.5834,-9.9456 11.0026,-15.8228 21.0994,-15.0696c7.4592,0.5278 11.5262,2.4108 18.9868,2.4108c18.3092,0 29.4616,-2.2596 45.8136,-10.85c8.6646,-4.522 13.9398,-6.3294 21.7014,-12.3578c2.9386,-2.261 -1.8088,-4.6718 -1.5064,-8.365c0.301,-4.1426 3.843,-6.7816 7.9856,-7.4592c0.4536,6.1782 -1.9572,10.4734 1.659,15.5218c2.4878,3.542 6.9314,0.7546 11.1538,-0.301c1.2054,4.8972 9.1742,10.0184 10.8318,10.094c2.1196,0.0952 2.7118,-2.4864 4.8216,-2.7132c3.843,-0.378 7.0266,0.8302 5.6686,6.8586c1.582,2.0342 1.582,2.562 3.2396,4.7474c3.542,4.6718 -3.3138,8.7416 -9.107,7.5418z" fill="#d1b23e"/><path d="M344.588,228.453c-0.1302,0.2296 -0.1162,0.4382 -0.0294,0.6062c-3.521,2.149 -7.343,3.92 -11.3008,4.4268c-0.5586,0.0714 -1.0934,0.2044 -1.6156,0.3612c-0.5418,0.0042 -1.0808,0.0084 -1.6226,0.0112c-0.7028,-0.2366 -1.4882,-0.3724 -2.3618,-0.3724c-0.0462,0 -0.0882,0.0056 -0.133,0.007c-1.4,-0.8484 -2.828,-1.6618 -4.3092,-2.4276c-1.9712,-1.0206 -3.2396,-1.89 -4.0726,-3.3138c0.2016,-0.6426 0.3892,-1.281 0.5082,-1.9348c2.2078,-0.6874 4.4646,-1.5792 6.8474,-2.7706c4.8272,-2.4136 7.2044,-3.7114 10.2676,-4.8496c0.0098,0.0098 0.0112,0.0224 0.0224,0.0336c0.8834,0.889 1.9502,1.5008 3.0282,2.093c2.1728,1.4252 3.8738,3.2858 5.369,5.3312c-0.0112,0.9772 -0.1092,1.932 -0.5978,2.7986z" fill="#b4762e"/><path d="M265.5888,231.764c0.133,0.3402 0.2422,0.6874 0.3668,1.0304c-0.2086,0.2338 -0.3668,0.5012 -0.539,0.7616c-0.189,0.2086 -0.371,0.4326 -0.5446,0.6734c-0.6048,0.84 -3.2914,1.9222 -6.3938,2.7216c-0.7336,0.0238 -1.4672,0.0462 -2.2008,0.0546c-1.0262,-0.2912 -2.0874,-0.3724 -3.1528,-0.4242c-1.6212,-0.4228 -3.248,-0.812 -4.8944,-1.1102c-0.2352,-0.042 -0.4704,-0.084 -0.7028,-0.1176c-0.6454,-1.0024 -0.7126,-1.2292 -0.7882,-1.4476c-0.3052,-0.8764 -0.7742,-1.6198 -1.3566,-2.233v-2.0692c0.2688,-0.3486 0.497,-0.7336 0.6132,-1.1816c0.0924,-0.357 0.2086,-0.707 0.3178,-1.0598c0.5096,-0.5656 0.8022,-1.2922 0.8778,-2.0552c0.007,-0.0336 0.0266,-0.0644 0.0336,-0.098c3.493,2.191 7.2646,2.1182 11.3092,-0.0546c1.5512,-0.8204 2.7146,-1.7066 3.64,-2.8546c0.4424,0.9464 0.9212,1.8746 1.3566,2.821c0.1092,1.2096 0.4928,2.387 1.1494,3.3894c0.0056,0.0322 0.0168,0.0644 0.0224,0.0966c0.0448,0.2548 0.1932,0.385 0.3696,0.4368c0.0294,0.0364 0.0588,0.0742 0.0882,0.1106c0.042,0.1274 0.0756,0.259 0.1134,0.3878c-0.0532,0.742 0.0294,1.491 0.315,2.2218z" fill="#b4762e"/><path d="M273.4358,195.9282v1.2082c-0.0602,0.0658 -0.1134,0.1428 -0.1456,0.2422c-0.4914,1.5316 -1.4798,2.9624 -2.2904,4.3428c-0.1862,0.315 -0.3444,0.6482 -0.5194,0.9702c-0.9856,0.6888 -1.8592,1.5344 -2.8364,2.2274c-1.3538,0.525 -2.7258,0.9996 -4.0922,1.498c-0.0742,0.028 -0.126,0.0756 -0.182,0.1204c-1.3608,0.2142 -2.632,0.6804 -3.9494,1.1004c-1.925,0.616 -4.0082,0.8932 -6.0214,0.9366c-0.1316,0.0028 -0.2338,0.049 -0.3262,0.1092c-0.0504,0.007 -0.1022,0.0126 -0.1456,0.0294c-0.1064,-0.0098 -0.2114,-0.0168 -0.3206,-0.0364c-0.0224,-0.0084 -0.0406,-0.0014 -0.063,-0.007c-0.2884,-0.6104 -0.56,-1.232 -0.7686,-1.8578c0.0896,-0.105 0.1582,-0.231 0.1694,-0.392c0.1232,-1.7822 0.6944,-3.4888 0.6916,-5.2822c0.1036,-0.084 0.2044,-0.1694 0.3206,-0.2464c5.2752,-3.5042 9.457,-4.7446 12.6588,-10.2466c0.3094,-0.5292 0.6398,-1.1312 0.9912,-1.7206c1.414,0.6594 2.737,1.4448 3.9494,2.387c0.3794,0.4718 0.7994,0.8974 1.2278,1.3328c0.5614,0.5698 0.966,1.316 1.3524,2.0328c0.0238,0.1904 0.0756,0.357 0.1624,0.4928c0.0098,0.1316 0.0434,0.245 0.077,0.3556c-0.0168,0.1456 0.0126,0.2772 0.0602,0.4032z" fill="#b4762e"/><path d="M284.4524,201.6444c-0.9044,5.4614 -1.3566,8.6268 -0.9044,14.1652c0.0238,0.2912 0.0406,0.5796 0.0518,0.8666c-3.759,-1.4714 -7.371,-3.4804 -10.7982,-5.313c-0.1596,-0.2296 -0.3318,-0.4508 -0.476,-0.6902c-0.245,-0.7602 -0.6006,-1.4728 -1.0864,-2.0972c-0.1428,-0.3024 -0.287,-0.6034 -0.427,-0.9114c-0.014,-0.0294 -0.0322,-0.0462 -0.049,-0.07c-0.0126,-0.1512 -0.0728,-0.2884 -0.1834,-0.3892v-0.392c0,-0.1778 -0.0616,-0.3066 -0.147,-0.406c0.049,-0.343 0.098,-0.6874 0.1414,-1.0318c0.5096,-1.0206 1.022,-2.0384 1.568,-3.0394c0.7784,-1.428 1.729,-2.7972 2.2932,-4.3288c0.1974,-0.0826 0.3192,-0.259 0.3738,-0.455c0.0014,-0.0014 0.0028,-0.0014 0.0028,-0.0028c1.3664,-0.791 2.4542,-1.9068 3.6022,-2.9848c0.0182,-0.0182 0.0238,-0.0364 0.035,-0.0546c0.049,-0.0196 0.0868,-0.0518 0.1274,-0.0812c0.084,-0.0126 0.1694,-0.0378 0.259,-0.0994c0.3906,-0.2632 0.8246,-0.4284 1.2586,-0.5978c1.1228,2.2848 2.807,4.0012 4.9588,5.5006c-0.224,0.7588 -0.4578,1.5526 -0.6006,2.4122z" fill="#b4762e"/><path d="M359.211,108.0236c3.6064,-2.1504 6.1614,-1.6534 6.4372,-1.0276c1.274,2.8924 -2.065,8.7822 -4.3134,10.5448c-3.5378,2.7706 -6.9552,3.2536 -11.0236,2.5746c-1.0164,-0.1708 -2.282,-1.4742 -1.2054,-1.2054c5.6392,1.4 13.65,-3.3292 14.42,-9.2442c-3.2452,-0.343 -5.6028,0.8792 -8.2166,3.766c1.8592,-4.62 3.6764,-8.3874 0.1386,-12.803c-3.2508,3.738 -4.081,6.4498 -4.5864,11.9812c0,0 -2.1294,-1.9964 -2.807,-2.9442c-0.7224,1.8312 -0.0714,3.8654 -0.4802,5.7512l-1.0262,-0.2044c-0.6328,-3.7268 -0.8148,-7.5236 -0.616,-11.2966c-10.9158,6.8558 -2.4808,8.743 -2.4654,12.3228c-1.855,0.3556 -4.291,-1.2992 -5.2724,-2.807c-3.0534,-4.6942 4.0376,-11.0642 8.2166,-11.9812c0.4522,-0.0994 2.0468,-0.2072 1.9852,0.616l-0.3416,4.5864l2.3268,2.3282c0.8106,-4.4044 1.6548,-9.5214 5.8884,-11.9826c4.0194,1.4868 3.8234,7.749 2.9414,11.025z" fill="#272525"/><path d="M209.1996,108.6382c21.6342,-0.742 3.7856,24.794 16.7748,27.4554c4.5976,0.9422 9.8056,-4.1706 13.4876,2.6012c0.6342,1.1648 0.2786,2.6376 1.0962,3.6288c11.4044,-7.1428 24.528,-0.1652 36.8354,-1.6436c8.1158,-0.9758 15.169,-1.645 22.0458,-4.109c-1.785,-0.2534 -3.6372,-0.5628 -5.1338,-1.6422c0.308,-2.226 4.5514,-2.9568 6.0942,-4.2448c-0.77,-0.7812 -1.3272,-1.1536 -2.4654,-2.1238c1.8662,-1.9852 4.6788,-2.121 7.0518,-3.15c-0.8582,-0.9156 -1.4686,-1.379 -2.807,-2.464c3.7632,-3.0898 8.561,-4.452 13.349,-4.7922c-1.2586,-0.9408 -2.8504,-1.3146 -3.969,-2.4654c3.2606,-3.1864 9.7944,-3.773 13.6234,-3.7646c-0.6524,-0.9632 -1.0948,-1.757 -1.7794,-2.9442c2.4164,-1.7234 10.668,-1.9222 12.8044,-0.8204c1.0892,0.5614 1.0794,2.7636 0.2394,2.912c-2.562,0.4522 -6.6724,-2.0202 -9.5704,-0.8288c1.0822,0.9534 3.0786,2.6516 3.5798,4.011c-3.4272,-0.1666 -9.6894,-1.4168 -13.4876,2.1224c2.2246,0.875 3.5196,1.5484 5.1352,2.6012c-2.7622,0.6104 -10.5084,1.9054 -14.7896,4.109c0.7098,0.3542 3.5882,1.099 4.725,2.807c0.8834,1.33 -7.5824,2.1658 -9.0468,2.8126c1.2796,0.7532 2.4108,1.3566 3.843,2.8014c-2.9512,0.8736 -5.8058,2.0482 -8.5582,3.4244c0.7266,0.4564 1.6296,0.2856 2.1238,1.0262c6.4162,-1.1214 12.1674,-5.1562 18.2126,-7.3948c5.0442,-1.8676 18.5668,-10.3558 21.7042,-11.228c0.3878,-0.1078 1.4322,0.1554 1.6422,0.5474c0.2254,0.42 -0.301,1.5372 -0.6146,1.7808c-2.9092,2.2512 -6.7186,4.1398 -9.9316,5.9682c-18.291,10.4118 -35.7728,16.919 -56.9618,17.9942c-11.0362,0.5614 -20.8544,-4.4632 -31.0842,1.848c-6.4456,3.976 -9.5564,10.1164 -9.3814,17.7338c0.098,4.2336 2.7454,6.2692 2.807,9.1756l-1.1648,1.0262c-5.1226,-4.7824 -6.4512,-12.3984 -4.0712,-18.935c1.2796,-3.5112 2.8,-6.1712 4.7544,-8.8634c-0.5824,-0.7518 -1.9782,-0.406 -2.807,-0.3416c-6.7914,0.5222 -14.4242,14.1638 -26.061,5.5888c-8.589,-6.3294 -6.6346,-15.5946 -3.9956,-21.2002c2.1406,-4.5472 7.049,-8.3258 5.614,-13.9678c-0.8624,-3.3894 -1.7682,-7.6314 -4.9294,-9.9946c1.9516,0.4256 3.5658,1.694 5.0666,2.9428z" fill="#272525"/><path d="M239.1204,143.1468l-2.4654,1.9852c0.154,-0.6734 -0.637,-1.0682 -1.1648,-1.1648c-6.2006,-1.1242 -12.754,7.5488 -21.0182,6.9146c-4.7726,-0.364 -8.0962,-3.1304 -10.066,-7.3934c-5.0246,-10.8808 12.9948,-18.0222 5.4782,-33.3438c3.3292,0.7588 7.3808,3.8738 8.491,7.1904c1.8606,5.5608 -2.2498,11.6284 1.6422,17.2536c6.1866,8.9404 12.7834,0.2156 17.9382,5.9556c0.7084,0.7896 1.0948,1.5204 1.1648,2.6026z" fill="#975b3d"/><path d="M237.4768,143.1468c-10.0646,-5.4754 -13.2706,5.8506 -22.526,3.15c-2.73,-0.798 -4.5864,-1.8228 -5.7512,-4.5878c-2.7804,-6.6038 1.9054,-11.0264 3.766,-16.7748c1.1298,-3.4916 2.1644,-8.5862 -0.959,-13.1446c1.6198,0.8778 2.8,4.0586 3.4244,5.7512c2.9862,8.092 -7.6622,18.361 -2.9442,24.1682c5.2626,6.4792 13.4064,-3.892 21.4984,-1.0262c1.1606,0.4102 2.2428,1.1326 3.4916,2.464z" fill="#272525"/><path d="M371.244,127.2876c2.737,-7.6398 15.3412,-1.953 10.339,4.9294c2.94,1.8228 5.7792,5.4558 4.6046,9.2862c-2.5158,8.197 -18.9392,5.117 -22.3902,-1.4392c-3.0996,-0.6188 -6.1068,-1.876 -8.2152,-4.3134c0.3514,4.5766 5.7638,7.6804 9.2442,9.8588c-2.4192,6.2748 -11.7922,5.5916 -14.994,0.4802c-0.5292,-0.8442 -0.9884,-3.3054 -2.1238,-3.2858c-3.899,0.063 -7.8918,2.002 -11.0236,-1.918c-1.575,-1.974 -2.0426,-4.7838 -1.0948,-7.1204c3.5686,8.1242 9.9386,5.6252 14.7882,3.8332c0.3094,3.5364 0.812,13.979 11.2966,7.6692c-3.2032,-1.6016 -10.1598,-5.2626 -6.9146,-14.105c0.3234,-0.882 3.689,7.1106 10.5448,7.0532c8.0304,9.5746 27.832,5.0484 14.2926,-5.1786c4.0754,-5.6924 -3.9872,-10.591 -6.23,-4.109c-2.7496,2.7888 -12.698,-6.2258 -13.951,-8.7892c0.287,-1.0542 1.5064,-1.3818 2.464,-1.4378c2.877,2.7272 5.3578,6.5338 9.1588,8.4476z" fill="#272525"/><path d="M355.9238,122.8132c4.494,6.3224 -7.9632,5.6854 -8.694,3.2872c-1.1298,-3.7128 6.237,-6.748 8.694,-3.2872z" fill="#272525"/><path d="M354.7604,125.413c0,0 -1.5876,0.5166 -2.793,0.5026c-1.2054,-0.0112 -3.094,-0.3654 -3.094,-0.3654c0.854,-1.477 2.1154,-2.1084 3.2508,-2.177c1.512,-0.0924 2.8042,0.8106 2.6362,2.0398z" fill="#ffffff"/><path d="M353.926,123.355c0.5194,0 0.9912,0.1736 1.3328,0.4536c0.3402,0.2786 0.5516,0.665 0.5516,1.092c0,0.427 -0.2114,0.8134 -0.5516,1.092c-0.3416,0.28 -0.8134,0.4536 -1.3328,0.4536c-0.5194,0 -0.9912,-0.1736 -1.3328,-0.4536c-0.3402,-0.2786 -0.5516,-0.665 -0.5516,-1.092c0,-0.427 0.2114,-0.8134 0.5516,-1.092c0.3416,-0.28 0.8134,-0.4536 1.3328,-0.4536z" fill="#272525"/><path d="M370.8506,131.1642c0,0 -3.5658,-0.2646 -4.7236,1.1648c-1.0654,1.3132 -0.9716,2.9316 -1.302,4.4506c-6.3406,-6.685 2.5984,-9.3254 6.0256,-5.6154z" fill="#272525"/><path d="M368.3852,136.7796c-1.3846,-5.173 7.5726,-0.7294 5.2724,1.7808c-0.6916,0.7532 -4.809,-0.0602 -5.2724,-1.7808z" fill="#272525"/><path d="M345.1774,225.6488c-0.0056,0.567 -0.0518,1.1256 -0.1764,1.6646c-0.28,0.7518 -0.7294,1.526 -1.1732,2.1686c-3.3208,1.9502 -6.888,3.5252 -10.577,3.9984c-0.5376,0.0686 -1.0514,0.203 -1.5512,0.3612c-0.5656,0.0042 -1.1326,0.0084 -1.6982,0.0112c-0.7,-0.2366 -1.4812,-0.3724 -2.3506,-0.3724c-0.0392,0 -0.077,0.0056 -0.1162,0.0056c-1.4056,-0.8484 -2.8406,-1.6576 -4.326,-2.4262c-1.9698,-1.0192 -3.2424,-1.8788 -4.0768,-3.2998c0.14,-0.4466 0.273,-0.8932 0.3864,-1.3412c0.8064,-2.394 1.7388,-4.5066 2.2344,-7.3444c1.7262,-9.898 2.1448,-19.8296 -4.5878,-30.0566c-1.3916,-2.1154 -5.4936,-8.351 -7.6006,-9.3814c-0.6314,-0.3094 -3.5868,2.1322 -4.7236,2.6012c1.9782,7.5754 3.969,17.9956 0.3416,25.333c-2.2036,4.4632 -7.5824,9.3436 -12.6658,9.9974c-2.198,0.2814 -4.6172,0.1764 -7.0672,-0.2394c-0.0126,0 -0.0196,-0.007 -0.0322,-0.007c-0.0028,0 -0.0056,-0.0014 -0.0084,-0.0014c-0.0126,-0.0028 -0.0266,-0.007 -0.0406,-0.0084c-4.396,-1.4798 -8.6044,-3.8276 -12.565,-5.9472c-0.1372,-0.1988 -0.2898,-0.3906 -0.4158,-0.5964c-0.2618,-0.8358 -0.6524,-1.6198 -1.1998,-2.2946c-0.126,-0.2702 -0.2548,-0.5376 -0.3794,-0.812c-0.014,-0.0294 -0.0322,-0.0462 -0.049,-0.07c-0.0126,-0.1512 -0.0728,-0.2884 -0.1834,-0.3892v-0.392c0,-0.1778 -0.0616,-0.3066 -0.147,-0.406c0.0154,-0.1092 0.028,-0.2184 0.0448,-0.3276c0.0756,-0.3528 0.1554,-0.7056 0.259,-1.0612c0.455,-0.9016 0.9212,-1.7962 1.4056,-2.6824c0.7224,-1.323 1.589,-2.5984 2.1644,-3.997c0.2758,-0.343 0.5586,-0.6804 0.8512,-1.001c1.2054,-0.7728 2.2064,-1.7878 3.2564,-2.772c0.0126,-0.0098 0.0154,-0.0238 0.0266,-0.035c0.0658,-0.0406 0.1316,-0.0756 0.196,-0.1148c0.0644,-0.021 0.1302,-0.0392 0.1988,-0.0854c0.3808,-0.2562 0.8036,-0.42 1.2264,-0.5852c1.1746,2.3898 2.9792,4.137 5.2682,5.6854c0.399,0.2688 0.8428,0.4172 1.2992,0.4648c7.8974,2.786 15.4266,-9.464 9.7972,-17.3096c-7.0868,3.262 -17.1864,3.0912 -25.6326,0.6076c-0.7602,-0.3794 -1.5302,-0.7322 -2.3058,-1.0514c-0.567,-0.2324 -1.155,-0.3542 -1.7276,-0.371c-1.6128,-0.6692 -3.1346,-1.421 -4.4968,-2.2666c0.0364,2.1098 0.7434,4.3064 0,6.3672c0.3696,0.189 0.8008,0.4214 1.2698,0.6846c0.2674,0.7364 0.7546,1.3692 1.498,1.6744c1.47,0.6048 2.8868,1.2852 4.2056,2.1042c1.8564,1.4798 3.4188,3.0982 3.941,4.6018c0.0112,0.0392 0.0224,0.0784 0.0392,0.1148c0.021,0.0658 0.0518,0.1344 0.0686,0.2002c0.0406,0.1638 0.0602,0.3262 0.0868,0.4886c0.0014,0.0056 0.0028,0.0112 0.0028,0.0168c0.0364,0.231 0.056,0.4606 0.0616,0.6902v0.0378c0.0042,0.224 -0.0028,0.4452 -0.0196,0.6664c-0.0518,0.0658 -0.098,0.1386 -0.1274,0.2296c-0.4914,1.5316 -1.4798,2.9624 -2.2904,4.3428c-0.1792,0.3052 -0.3318,0.6258 -0.5026,0.938c-0.0406,0.0392 -0.0882,0.077 -0.1274,0.1162c-0.938,0.6734 -1.785,1.4756 -2.7244,2.1434c-1.3552,0.5236 -2.7286,0.9996 -4.0936,1.498c-0.0644,0.0224 -0.1106,0.063 -0.1624,0.098c-0.0462,0.014 -0.091,0.0266 -0.1372,0.042c-1.3174,0.2226 -2.5522,0.672 -3.8318,1.0794c-0.2576,0.0812 -0.5222,0.1428 -0.784,0.2128c-0.8694,0.2002 -1.7556,0.3766 -2.667,0.5236c-0.8568,0.1106 -1.7192,0.1806 -2.569,0.2002c-0.1302,0.0028 -0.2338,0.049 -0.3262,0.1092c-0.0644,0.0112 -0.1302,0.0196 -0.1848,0.0462c-0.126,-0.0252 -0.252,-0.0476 -0.3738,-0.077c-0.154,-0.035 -0.3052,-0.077 -0.4536,-0.1218c-0.2128,-0.5222 -0.2926,-1.1046 -0.2912,-1.715c0.091,-0.1064 0.1624,-0.2338 0.1736,-0.3976c0.112,-1.6268 0.5838,-3.192 0.6664,-4.8146c0.0938,-0.7658 0.0728,-1.4294 -0.2072,-1.9026c-1.0192,0.861 -2.212,1.4728 -3.2858,2.2596c0.3458,2.6432 1.5988,6.4582 3.2858,8.5568c1.9726,2.4556 4.165,4.4016 6.2272,6.3532c0.1722,0.1638 0.343,0.3262 0.5124,0.4886c0.6174,0.7252 3.4174,2.1252 2.5494,3.8556c0.091,0.224 0.1862,0.4438 0.2842,0.6622c0.4914,1.0948 1.0556,2.156 1.554,3.2424c0.1092,1.2082 0.4928,2.3842 1.1494,3.388c0.007,0.0336 0.0182,0.0658 0.0238,0.098c0.0448,0.2548 0.1932,0.385 0.3696,0.4368c0.0294,0.0364 0.0588,0.0742 0.0882,0.1106c0.0434,0.1372 0.0784,0.2744 0.119,0.413c-0.0504,0.7322 0.0252,1.4728 0.3066,2.1938c0.1344,0.3402 0.245,0.6874 0.3682,1.029c-0.2534,0.2842 -0.4704,0.595 -0.6692,0.9156c-0.1414,0.1666 -0.2814,0.336 -0.4144,0.5208c-0.6048,0.8386 -3.29,1.9208 -6.3924,2.7216c-0.7336,0.0238 -1.4686,0.0462 -2.2022,0.0546c-1.0262,-0.2912 -2.0874,-0.3724 -3.1528,-0.4242c-1.6212,-0.4228 -3.248,-0.812 -4.8944,-1.1102c-0.2352,-0.042 -0.469,-0.084 -0.7028,-0.119c-0.6216,-1.0094 -0.6888,-1.239 -0.7658,-1.4588c-0.308,-0.882 -0.7882,-1.6282 -1.3776,-2.2456v-1.778c0.609,-1.1032 1.2614,-2.1924 1.6128,-3.3978c4.1146,-14.0854 -10.2172,-20.0228 -11.6396,-24.647c-0.8862,-2.884 0.5992,-5.817 1.3006,-8.5582c0.8204,-0.1974 2.2092,-1.1942 2.807,-0.1372c-0.0238,2.4332 -2.541,6.9818 -0.6832,9.037c1.2404,1.3734 3.2186,2.4136 4.571,3.871c5.0526,5.446 7.868,14.5754 6.4526,21.9422c-0.3136,1.6268 -1.0374,3.3278 -1.5064,4.9294c4.5906,2.2904 10.6904,2.1966 14.7882,0.9604c0.7238,-1.2516 0.7714,-3.5462 0.4802,-4.9294c-2.1224,-10.0422 -17.4804,-19.0414 -16.912,-29.4406c1.7794,-1.0528 3.6456,-2.093 4.9294,-3.7646c-4.6116,-10.6064 -15.4112,0.5796 -21.1568,-7.0518c-2.3646,-3.1416 -1.988,-8.1312 -0.3416,-11.5038c0.8708,-2.0538 0.5292,-3.8136 3.2858,-3.1486c0.5782,0.14 1.3958,0.1722 1.6436,0.8204c-1.3356,2.7524 -4.5066,7.063 -2.4654,10.2018c1.7766,2.7328 8.1676,1.4728 11.0236,1.8494c4.6914,0.6188 10.4328,4.914 11.9826,9.5172c0.5936,1.7682 -0.0042,4.529 -0.399,6.9664c-0.0406,0.245 -0.077,0.4858 -0.1092,0.721c0.5138,-0.0168 0.5138,1.3832 0.5138,1.3832c2.8,0 4.2,0 7.574,-1.4196c0.154,-0.07 0.308,-0.1414 0.462,-0.2156c4.1426,-1.9698 7.7462,-4.8804 6.7466,-7.2996c-0.1022,-0.2436 -1.8074,-2.1392 -2.0944,-2.4598c-4.5696,-5.068 -13.5576,-10.2284 -20.09,-10.3432c-0.3906,-0.4872 -0.427,-0.8134 0.1372,-1.1634c3.1906,-1.9824 7.0154,-4.0614 7.3934,-8.3538c0.3122,-3.5462 -0.6972,-7.3976 -5.2724,-10.885c1.9656,-5.3102 10.6778,4.844 9.4724,11.0236c11.4478,5.1954 23.8756,9.3492 36.5358,6.4358c9.6544,8.407 -3.5252,32.8734 -17.2522,18.074c-2.6684,2.212 -4.6998,5.1772 -5.5454,8.5582c2.3884,3.6372 8.078,5.5356 12.1184,6.7102c5.0624,1.4742 12.1254,-1.7598 15.1326,-5.8884c2.6152,-3.5924 3.346,-6.7984 3.9704,-11.0222c0.6146,-4.1538 0.1372,-8.0374 -0.6846,-12.1884c-0.378,-1.9124 -1.2908,-3.486 -1.4364,-5.5454c2.2008,-1.4938 4.8622,-2.3002 6.5702,-4.4506c2.282,2.254 10.7674,11.8692 12.8044,17.3908c4.1748,11.3134 6.7158,24.8416 0.9576,36.1508c4.8076,2.5704 12.2332,3.5196 17.003,0.6286c0.8358,-0.5068 1.3216,-1.407 1.0738,-2.0678c-0.7812,-2.0916 -6.1656,-5.9598 -7.8722,-8.2152c1.323,-14.0952 -1.6156,-29.8956 -12.3242,-40.1212c-1.4126,-1.3482 -9.2974,-6.2748 -8.5596,-7.3948c1.3776,-2.0846 3.0954,-3.8206 4.3876,-6.0536c4.2238,-7.2884 6.8026,-16.1518 14.0308,-21.196c1.5624,-1.0892 3.1304,-2.6432 4.9294,-3.2858l0.4802,0.4774c-0.2282,1.8088 -2.8924,3.1808 -4.109,4.452c-9.0048,9.401 -8.764,20.1124 -15.7486,26.292c12.8324,9.0006 20.0508,23.177 20.6794,38.752c0.0826,2.1028 -0.077,4.0432 -0.1218,6.3798c-0.2912,0.2394 -0.4382,0.6692 -0.1176,0.9898c0.777,0.7812 1.6968,1.3482 2.639,1.8774c1.337,1.0864 2.891,2.3912 4.0446,3.423c0.6034,0.6762 1.1732,1.3846 1.7052,2.1182z" fill="#272525"/><path d="M259.6598,184.4328c-2.1658,-1.2824 -4.7068,-1.526 -7.0518,-2.3282c2.2834,-1.2152 4.116,-2.4626 6.23,-4.5878c0.9492,1.3132 0.8512,5.4824 0.8218,6.916z" fill="#d1b23e"/><path d="M264.725,191.9634c0,3.7632 -3.6302,7.0448 -7.3934,7.875c-0.4326,0.0938 -1.0346,-0.8652 -0.616,-1.1648c4.1524,-2.9806 6.3392,-7.5012 8.0094,-6.7102z" fill="#272525"/><path d="M284.9242,203.946l-0.1372,7.602c-3.955,2.2372 -2.5004,-10.1948 0.1372,-7.602z" fill="#272525"/><path d="M333.3558,221.1618c-1.4308,2.0342 -5.0764,3.066 -6.5548,3.2396c-1.281,0.1498 -1.7682,-0.7434 -1.2054,-1.2054c1.9768,-1.631 4.2826,-2.2792 6.6304,-3.3152c0.4704,-0.2086 1.4238,0.8638 1.1298,1.281z" fill="#272525"/><path d="M260.1904,226.059c-2.4108,1.5078 -7.084,1.7794 -9.3436,0.7532c-0.8722,-0.3948 -0.0756,-1.505 0.5978,-1.5036c2.807,0.1372 5.9556,0.0686 8.2152,-1.7794c0.7532,-0.3444 1.5596,1.8872 0.5306,2.5298z" fill="#272525"/><path d="M368.7716,122.5262c-4.1454,3.7674 -7.5362,2.3352 -7.5894,1.0304c-0.2548,-2.03 1.6744,-4.3778 4.4996,-3.5924c1.3566,0.378 2.4864,1.1298 3.0898,2.562z" fill="#272525"/><path d="M366.9992,122.5178c-1.3706,0.3724 -2.9092,1.3412 -4.5584,1.1396c0.2744,-0.8246 0.7742,-2.0216 1.659,-2.2596c1.176,-0.3206 2.7118,0.2058 2.8994,1.12z" fill="#ffffff"/><path d="M366.435,121.0954c0.4368,0 0.8316,0.1302 1.1186,0.3416c0.2856,0.2114 0.4634,0.504 0.4634,0.826c0,0.322 -0.1778,0.6146 -0.4634,0.826c-0.287,0.2114 -0.6818,0.3416 -1.1186,0.3416c-0.4368,0 -0.8316,-0.1302 -1.1186,-0.3416c-0.2856,-0.2114 -0.4634,-0.504 -0.4634,-0.826c0,-0.322 0.1778,-0.6146 0.4634,-0.826c0.287,-0.2114 0.6818,-0.3416 1.1186,-0.3416z" fill="#272525"/><path d="M375.9928,130.8912c2.464,-3.3894 4.172,4.2462 1.5134,4.0838c-0.798,-0.0504 -2.3338,-2.9554 -1.5134,-4.0838z" fill="#272525"/></g></g></svg>