<svg version="1.1" xmlns="http://www.w3.org/2000/svg" xmlns:xlink="http://www.w3.org/1999/xlink" width="373.8602" height="204.43554" viewBox="0,0,373.8602,204.43554"><g transform="translate(-133.0699,-77.78223)"><g data-paper-data="{&quot;isPaintingLayer&quot;:true}" fill-rule="nonzero" stroke="none" stroke-linecap="butt" stroke-linejoin="miter" stroke-miterlimit="10" stroke-dasharray="" stroke-dashoffset="0" style="mix-blend-mode: normal"><g stroke-width="1.3401"><path d="M384.57266,119.95309c-0.31225,9.17775 -4.41737,17.92541 -11.95976,29.28378c-7.54735,11.36066 -18.46035,14.80556 -25.89006,12.91161c-7.42971,-1.89892 -12.89385,-8.20261 -14.47039,-11.03312c-1.57903,-2.84083 10.41645,-23.53298 10.41645,-23.53298c0,0 1.99632,-10.20656 0.61171,-14.48051c-1.38461,-4.27414 0,-16.93766 0,-16.93766c1.8145,-0.21237 4.41489,-16.91455 19.66582,-16.69951c15.25608,0.21485 18.58582,16.69951 18.58582,16.69951c0,0 3.35514,14.60598 3.04041,23.78889z" fill="#8395d4"/><path d="M383.18041,96.26408c-1.46386,1.85805 -3.50373,-3.04308 -4.04114,-4.62478c-1.70202,-5.01877 -6.67476,-9.91474 -13.14976,-10.84635c-6.31381,-0.91117 -11.89063,1.54331 -15.43026,5.77639c-10.11432,12.09536 -4.24836,25.8362 -6.40854,39.35723c-1.25913,7.88271 -6.67725,13.49773 -8.92165,20.70991c-0.81396,2.61051 0.2456,6.76949 2.44149,8.79388c4.44048,4.10512 13.59761,5.97348 19.8526,4.36371c7.39915,-1.89663 12.6175,-9.30838 15.91649,-14.7009c2.04483,5.87627 -3.65727,11.6603 -8.75798,15.12564c-11.59117,7.88787 -36.77995,4.76801 -34.99619,-10.54689c0.85483,-7.35293 9.30838,-14.48318 11.2432,-22.57063c2.45944,-10.28601 -2.20105,-20.57947 0.5399,-30.72472c2.00396,-7.42455 7.21218,-17.67466 17.74379,-18.49874c14.25286,-1.11322 20.94539,7.64723 23.96803,18.38625z" fill="#272525"/></g><g stroke-width="1.3401"><path d="M198.67661,202.0561c3.11718,-1.03912 7.90563,-1.92986 11.66011,0.5399c4.41489,2.90748 8.30001,6.41885 7.35045,12.03654c-1.04925,-0.09473 -2.07042,0.91881 -2.07042,0.91881c-8.15658,18.71626 -17.5339,21.75667 -17.53658,21.75934c-0.44518,0.0128 -0.85215,0.06398 -1.17205,0.18926c-6.14747,2.33932 -17.37023,-13.12417 -17.5954,-19.14883c-0.11516,-2.99171 0.17914,-6.53649 3.42695,-8.65045c4.32265,-2.82288 22.62697,-4.4762 15.93693,-7.64456z" fill="#8395d4"/><path d="M192.36528,236.76296c-1.73773,-0.93676 -3.54975,-2.4646 -5.26189,-4.32017c2.20086,-0.8216 5.59458,-3.60093 7.77252,-1.43827c1.91439,1.89892 -0.82924,4.0335 -2.51063,5.75844z" fill="#b7cbe7"/><path d="M219.45565,216.66209c0,0 -9.62044,21.39323 -18.0866,24.61297l-0.00267,-0.00267c-0.1228,0.07677 -0.25343,0.12796 -0.37871,0.19709c-5.52812,3.04556 -12.88869,-2.12427 -16.29005,-6.36748c-3.41931,-4.26134 -7.09969,-10.16817 -8.63002,-15.7322c-1.23622,-4.49931 -1.06987,-8.77325 1.80935,-11.76c3.862,-3.99779 6.27294,-2.99705 11.66794,-4.54037c4.47887,-1.27957 3.75964,-2.76921 6.30369,-2.03451c1.22839,0.35561 2.15235,0.69345 2.83052,1.01334c6.68756,3.17104 -11.61676,4.82187 -15.93941,7.64723c-3.24781,2.11415 -3.54211,5.65875 -3.42695,8.65064c0.0128,0.31474 0.06665,0.66022 0.1356,1.02365c0.5632,2.92792 2.93308,7.27349 5.90702,11.01021c0.49903,-0.38903 1.30783,-0.91881 2.64126,-1.78395c6.32393,-4.08717 12.43301,2.25987 9.30055,6.73874c-0.58364,0.83688 -1.17988,1.66363 -1.77879,2.38267c0.48375,0.00267 0.95204,-0.05367 1.38976,-0.21753c0.32237,-0.12528 0.72935,-0.17647 1.17205,-0.18926c0,0 1.12354,-0.38387 2.90748,-1.61245c3.409,-2.35192 9.27496,-7.8596 14.62909,-20.1469c0,0 1.02117,-1.01353 2.07042,-0.91881c0.66022,0.05367 1.33342,0.54773 1.76848,2.02955zM194.87591,231.00452c-2.17794,-2.16018 -5.57166,0.61935 -7.77252,1.43827c1.71214,1.85289 3.52416,3.38341 5.26189,4.32017c1.68139,-1.72493 4.42501,-3.85952 2.51063,-5.75844z" fill="#272525"/></g><g stroke-width="1.3401"><path d="M317.127,226.33123c0.42474,-4.86274 5.83521,-3.82362 8.05421,-3.84921c3.20427,-0.03839 6.44941,0.74215 9.48981,1.97569c-0.82141,0.28666 -1.19267,0.57848 -0.58096,0.76774c10.08624,3.11985 13.05255,13.03212 13.91769,13.69749c4.92156,3.75716 13.64631,0.26107 15.512,6.48798c0.5886,1.98849 -0.63978,4.02835 -1.91954,5.48706c-5.84801,6.67476 -17.1909,11.59117 -26.4122,8.1285c-5.67899,-2.11912 -14.29373,-21.60331 -16.34371,-30.84752c-0.27654,-1.25665 -1.0672,-1.79159 -1.7173,-1.84773z" fill="#8395d4"/><path d="M360.15162,252.39775c-2.06278,-1.67891 -5.8249,-3.78007 -3.86716,-5.84801c2.24975,-2.36987 5.1135,-1.12602 7.37604,-0.10485c0.0128,1.63785 -0.99806,3.24265 -2.05762,4.45309c-0.45052,0.51202 -0.94191,1.01353 -1.45126,1.49977z" fill="#b7cbe7"/><path d="M343.51857,260.0681c-1.27441,-2.82555 -3.32955,-6.48283 -0.26088,-7.55251c4.68857,-1.63288 7.08671,2.94568 9.05724,5.15952c-2.77934,1.28224 -5.78403,2.13955 -8.79636,2.39298z" fill="#b7cbe7"/><path d="M329.58827,260.81789c-6.58004,-7.45778 -13.23417,-22.44 -13.38276,-33.81612c-0.00497,-0.47611 0.41462,-0.72171 0.92148,-0.67569c0.64494,0.0613 1.43579,0.59624 1.71214,1.84525c1.44095,6.50059 6.12436,18.03294 10.75162,25.0633c1.95793,2.97146 3.90822,5.15972 5.59477,5.78919c1.36666,0.50934 2.77685,0.8216 4.20997,0.98794c-0.56034,-1.38193 -0.96732,-2.9304 -1.23354,-4.23308c-1.17988,-5.7149 9.22378,-9.43366 14.25554,-2.76158c1.16441,1.54599 1.98085,2.5748 2.47988,3.32459c1.0544,-0.61935 2.05762,-1.28988 2.99438,-2.00911c-1.44095,-0.83172 -2.92009,-2.31869 -3.97468,-3.54459c-3.08395,-3.5677 2.24975,-9.60249 8.32292,-7.55766c-3.13246,-3.14029 -10.0427,-1.1159 -14.22975,-4.30737c-0.15603,-0.12032 -0.38387,-0.55021 -0.70892,-1.18236c-1.46654,-2.85878 -4.94715,-9.96077 -13.20362,-12.51513c-0.61419,-0.18926 -0.23796,-0.48624 0.57848,-0.76774c1.45107,-0.50419 4.32532,-0.97763 5.65359,-0.80365c7.35809,2.34428 10.91548,10.85666 11.5016,11.37116c2.13191,1.82978 7.76488,1.50225 11.7831,2.71536c1.70698,0.5145 3.13246,1.30268 3.862,2.66169c2.77418,5.15952 -1.70966,13.09094 -5.37209,16.8225c-6.37015,6.5109 -16.74057,10.10668 -26.19964,8.1308c-1.93234,-0.40182 -4.11811,-2.05247 -6.31648,-4.53769zM360.14914,252.39527c0.51183,-0.48624 1.00074,-0.98794 1.45107,-1.49977c1.05956,-1.20795 2.07061,-2.81276 2.05781,-4.45328c-2.26254,-1.02117 -5.12648,-2.26503 -7.37604,0.10504c-1.95526,2.06793 1.80438,4.1691 3.86716,5.84801zM343.51609,260.07058c3.01482,-0.25591 6.01951,-1.11322 8.79885,-2.39547c-1.96805,-2.21633 -4.36868,-6.79489 -9.05724,-5.15952c-3.07135,1.06968 -1.01353,4.72695 0.2584,7.55499z" fill="#272525"/></g><g stroke-width="1.3401"><path d="M501.12413,147.88301c-1.54847,3.68019 -7.77786,6.21908 -11.31482,7.89283c0,0 -0.18945,0.13311 -0.41214,0.47344c-0.33765,0.5145 -0.74979,1.533 -0.68829,3.3221c-0.05386,0.01776 -0.09473,0.02559 -0.14858,0.04603c-0.06894,15.21006 -0.84967,31.05226 -14.5548,41.81419c-24.38513,19.14616 -75.67137,6.14479 -90.76111,-18.35034c-12.26418,5.31575 -2.31354,23.71212 4.85243,29.27346c-4.78081,4.48135 -15.35845,7.34014 -26.60662,-1.97321c-6.5596,5.25941 -15.03607,10.1783 -22.99289,13.36213c-7.42722,2.96382 -18.33239,4.49167 -22.38137,4.75274c0,0 -76.98684,6.28306 -117.52643,-27.9324c-10.31408,-8.70431 -11.63204,-10.9489 -16.59199,-20.24945c-11.70633,-21.94345 -4.68608,-41.56076 -0.41977,-52.09733c0.00764,-0.01031 8.02347,-12.46911 15.01545,-17.54173c21.57772,-15.56318 38.37711,-28.02961 72.28796,-23.78106c36.96176,4.62975 57.58477,21.4828 57.58477,21.4828c2.59771,-2.6002 10.96915,-7.64456 12.5688,-8.59927c18.05604,-7.28896 26.35586,-5.285 38.01616,-3.87728c15.32522,1.85537 28.75648,13.59761 35.16234,26.67575c5.86348,11.97256 7.63444,35.23663 13.82812,49.15929c-3.72125,-0.79333 -10.99741,-2.73579 -10.70827,0.10752c0.31989,3.15576 5.89155,1.15429 10.82343,0.14075c0.37107,0.81911 0.76258,1.60481 1.16708,2.3546c-3.94661,0.49655 -10.31924,1.20299 -9.05743,3.57286c1.41784,2.66418 5.4078,-0.47096 9.37981,-3.01482c1.00074,1.77344 2.09868,3.3475 3.33738,4.59651c4.67081,4.69621 12.45612,7.16596 20.20839,7.68046c-1.97837,3.06867 -3.72889,8.11552 -2.11912,8.16174c1.67127,0.04603 3.55739,-4.39446 3.76995,-8.07217c0.41462,0.0128 0.81128,-0.01031 1.22075,-0.01031c-1.26429,3.92866 -1.876,8.89625 0.90085,8.44591c2.33913,-0.37375 2.22664,-5.00617 1.07751,-8.46119c3.65727,-0.14324 7.15069,-0.70892 10.13227,-1.70966c3.36813,-1.13118 5.98628,-3.20942 8.00819,-5.79167c1.50741,2.03203 4.12556,4.31749 4.61695,3.43192c0.5145,-0.90582 -1.60462,-3.14793 -3.86964,-4.44793c0.28399,-0.4045 0.53494,-0.82924 0.79085,-1.25417c2.77934,1.4589 7.13273,2.88953 7.13789,0.85998c0.01031,-1.67127 -3.95406,-2.10384 -6.68756,-1.62524c2.25987,-4.09748 3.41931,-8.87314 3.80834,-13.12665c0.80613,-8.63766 -7.23013,-8.71195 -11.68074,-13.93297c-2.5874,-3.03028 -3.61889,-9.00873 -1.74537,-12.54588c1.26429,-2.37236 6.14995,-6.1807 9.20582,-5.34115c5.70974,1.57387 5.7149,15.33286 5.7149,15.33286c6.67209,-13.636 23.58932,-8.56604 19.65054,0.79601z" fill="#8395d4"/><path d="M500.26663,155.78348c-1.74021,0.96483 -4.0591,1.98104 -6.31381,2.48255l-0.47592,3.5318c0.25324,1.69438 0.04335,3.94145 0.1969,5.95305c2.53374,14.22211 -5.25673,32.68514 -18.15058,41.0029c-19.35356,12.48438 -52.99322,8.31261 -71.99882,-2.78717c-7.46294,-4.36104 -14.54716,-9.7612 -20.09056,-16.08016c-3.75467,7.20702 5.85049,18.99529 12.63278,22.70107c-3.30931,9.20602 -20.63332,12.46662 -33.94179,5.34649c-12.42537,10.33719 -28.85885,14.76985 -45.13858,16.1493c-84.98224,6.37779 -124.64904,-32.81042 -124.64904,-32.81042l0.03056,-0.01547c-20.85582,-15.279 -27.13888,-48.22769 -18.3937,-69.50595c0.05367,-0.13808 1.3128,-3.07879 1.43827,-3.13246c5.80198,-11.69353 15.06415,-19.50215 15.06415,-19.50215c16.71746,-13.8434 37.76025,-26.29188 59.91358,-27.83767c9.77915,-0.68084 30.11817,1.7173 35.68983,3.46534c0,0 24.38761,5.09306 40.38336,18.19928c0,0 5.81993,-4.41737 9.43882,-6.73091c0.46847,-0.35847 1.01105,-0.66805 1.58418,-0.95223c0.2202,-0.11764 0.42245,-0.21485 0.58364,-0.28647v0.00248c0.87526,-0.39667 1.7658,-0.74998 2.53106,-1.08515c19.13871,-8.46368 46.07801,-5.8123 61.79741,7.78035c16.96574,14.66996 18.10207,30.16916 22.00762,49.94766c1.05956,5.36941 6.928,19.96776 10.44185,24.15748c4.93703,5.88124 13.99198,7.48089 21.51126,6.97403c6.96887,-0.48108 15.73716,-8.20776 17.65155,-14.40125c4.49415,-14.57275 -19.34593,-17.15252 -14.66996,-31.83279c1.30516,-4.10264 5.83254,-8.6071 10.44452,-9.98655c7.39132,-2.21881 15.64263,-0.54258 14.92855,10.56236c16.10575,-16.3208 31.37711,9.97108 15.55286,18.69067zM481.47111,147.09712c0,0 -0.00516,-13.7588 -5.71509,-15.33286c-3.05836,-0.83688 -7.94153,2.96879 -9.20582,5.34134c-1.87333,3.53447 -0.84203,9.51044 1.74556,12.54588c4.45061,5.22102 12.48171,5.29264 11.68074,13.9303c-0.38903,4.25351 -1.54847,9.03184 -3.80834,13.12932c2.73331,-0.47096 6.69768,-0.04106 6.68756,1.62505c-0.00516,2.02955 -4.35855,0.59643 -7.13808,-0.85979c-0.25591,0.42474 -0.51183,0.84967 -0.79085,1.25665c2.26503,1.29752 4.38414,3.53944 3.86983,4.44793c-0.49655,0.88042 -3.10954,-1.40237 -4.61714,-3.43459c-2.02172,2.58492 -4.64254,4.66565 -8.008,5.78919c-2.98158,1.00341 -6.47519,1.5689 -10.13246,1.70966c1.14913,3.4577 1.26181,8.0926 -1.07732,8.46368c-2.77685,0.45052 -2.16533,-4.51458 -0.90105,-8.44821c-0.41194,0 -0.81128,0.02559 -1.22075,0.0128c-0.21237,3.67255 -2.10117,8.118 -3.76976,8.06949c-1.60996,-0.03839 0.14075,-5.09306 2.11912,-8.15906c-7.75227,-0.5145 -15.53778,-2.98426 -20.20839,-7.68066c-1.24653,-1.24882 -2.33664,-2.8204 -3.33738,-4.59651c-3.97201,2.54653 -7.96216,5.67918 -9.38,3.01501c-1.26162,-2.37007 5.11102,-3.08147 9.05743,-3.57286c-0.40431,-0.75514 -0.79333,-1.53816 -1.16708,-2.35975c-4.92405,1.01353 -10.50335,3.01482 -10.82324,-0.13827c-0.28934,-2.84083 6.99198,-0.89818 10.70808,-0.10733c-6.19349,-13.92533 -7.96445,-37.1896 -13.82793,-49.15948c-6.40605,-13.07814 -19.83732,-24.82019 -35.16253,-26.67575c-11.65515,-1.40772 -19.95496,-3.41167 -38.01597,3.87728c-1.59965,0.95471 -9.9686,5.99907 -12.56899,8.59946c0,0 -20.62282,-16.85325 -57.58458,-21.483c-33.91104,-4.24855 -50.71043,8.2154 -72.28796,23.78125c-6.99198,5.07511 -15.00781,17.53123 -15.01545,17.54154c-4.2665,10.53658 -11.28675,30.15388 0.41958,52.10001c4.95747,9.29807 6.27542,11.54247 16.59218,20.24926c40.53959,34.21565 117.52643,27.9324 117.52643,27.9324c4.04878,-0.2584 14.95414,-1.78891 22.38118,-4.75522c7.957,-3.18364 16.43348,-8.10272 22.99308,-13.35965c11.24549,9.30838 21.82829,6.45475 26.60662,1.9734c-7.16615,-5.55886 -17.11929,-23.96039 -4.85243,-29.27366c15.08974,24.49781 66.37579,37.49918 90.76111,18.35034c13.71029,-10.75678 14.49331,-26.60146 14.5548,-41.81419c0.05367,-0.01528 0.09473,-0.02559 0.14839,-0.04335c-0.0613,-1.79159 0.35064,-2.8076 0.68848,-3.3221c0.22268,-0.34033 0.41214,-0.47096 0.41214,-0.47096c3.53696,-1.67623 9.76883,-4.21513 11.31463,-7.89283c3.94145,-9.37733 -12.97578,-14.44728 -19.65035,-0.80116z" fill="#272525"/></g><g stroke-width="1.3401"><g><path d="M334.35629,135.94884c-0.42493,12.41773 -5.97348,24.25718 -16.18768,39.62842c-10.2142,15.37124 -24.97641,20.03957 -35.03458,17.47508c-10.05798,-2.56448 -17.45197,-11.09214 -19.58389,-14.93103c-2.13191,-3.83909 14.09683,-31.84559 14.09683,-31.84559c0,0 2.70256,-13.81017 0.83172,-19.59668c-1.87084,-5.7867 0,-22.92127 0,-22.92127c2.45944,-0.28666 5.97081,-22.89071 26.61693,-22.60138c20.64096,0.29182 25.14523,22.60138 25.14523,22.60138c0,0 4.54037,19.76818 4.11544,32.19107z" fill="#8395d4"/><path d="M332.47513,103.89584c-1.98085,2.51578 -4.74491,-4.11792 -5.47178,-6.25747c-2.3059,-6.79241 -9.03948,-13.41599 -17.78982,-14.68028c-8.54809,-1.23354 -16.09296,2.08837 -20.88408,7.81873c-13.68985,16.36931 -5.75596,34.96277 -8.67605,53.2646c-1.70202,10.66721 -9.03432,18.26574 -12.0774,28.02713c-1.1031,3.53428 0.33784,9.15464 3.30396,11.89311c6.01187,5.55371 18.40936,8.08477 26.87036,5.91199c10.00947,-2.57212 17.07326,-12.59706 21.53666,-19.89862c2.76921,7.95166 -4.94448,15.7807 -11.84708,20.47443c-15.69381,10.67236 -49.77616,6.45208 -47.36274,-14.26814c1.15944,-9.96096 12.59439,-19.607 15.21006,-30.55055c3.32707,-13.91769 -2.97643,-27.85066 0.73203,-41.58387c2.71288,-10.04537 9.7612,-23.91685 24.01138,-25.03007c19.2999,-1.51008 28.35485,10.34216 32.4445,24.87901z" fill="#272525"/></g><g><path d="M318.19171,139.40386c-3.58833,2.93308 -5.56154,5.36177 -6.45972,9.72033c-1.65847,8.17186 -0.49139,15.04371 -7.53475,19.94732c-2.96115,2.05266 -4.88833,4.02319 -8.61207,3.85685c-5.33866,-0.25324 -10.76709,-2.8945 -10.76709,-7.87756c0,-10.64677 10.63149,-15.17415 9.51044,-25.81844c-1.07751,-10.05798 -6.59531,-14.75189 -7.53723,-24.80739c-0.89837,-9.47205 4.98554,-18.81863 15.07179,-19.78098c8.79388,-0.83955 15.07446,2.97643 15.07446,10.55968c0,5.61769 -1.21311,11.77547 1.07484,16.92983c1.84029,4.15134 5.02412,5.44886 7.35809,9.38764c-0.31225,3.85436 -4.03599,5.32339 -7.17876,7.88271z" fill="#b7cbe7"/><path d="M324.77423,129.0873c-0.25343,4.89597 -8.07465,-3.78007 -8.75798,-4.62211c-6.18585,-7.614 2.47224,-13.47996 -0.24579,-21.21161c-1.3974,-3.97717 -5.4078,-8.05937 -10.76957,-8.24099c-6.45456,-0.2202 -12.00579,5.9605 -13.96372,10.50335c-6.02963,14.0149 8.23851,26.71414 5.64079,41.0157c-1.09527,6.01684 -12.24127,15.71157 -9.1598,21.05539c0.99806,1.72761 5.35146,3.24781 7.55518,3.24265c17.38284,-0.04851 9.21098,-29.14283 28.47498,-34.95761c-0.75246,1.86569 -2.63094,3.11202 -4.07457,4.59651c-9.18787,9.48485 -3.51385,23.83244 -14.70071,32.27052c-4.03599,3.04805 -12.00311,3.68019 -16.85058,1.7045c-18.14542,-7.41195 2.00911,-21.58536 4.5608,-28.49293c4.90877,-13.29567 -19.00044,-31.63322 -1.60213,-49.01873c3.42179,-3.41664 10.57515,-6.05026 15.95488,-5.09039c29.05326,5.18512 2.27267,26.71165 17.93821,37.24575z" fill="#272525"/></g></g><g stroke-width="1.3401"><path d="M200.98766,202.94149c0.36859,-2.84599 2.3418,-9.44379 12.86825,-6.83843c11.78559,2.91761 18.41681,15.44286 20.63313,26.07168c-0.37871,0.1587 1.41536,16.45391 5.56154,21.04794c6.25995,6.94844 16.23887,6.13983 11.48365,18.03542c-1.91439,4.78348 -23.43577,2.83587 -33.44276,-0.62183c-13.01665,-4.49663 -10.49571,-12.38966 -12.15934,-20.67668c-2.33149,-11.59633 -2.98158,-28.99463 -4.14351,-35.92531c-0.06646,-0.40431 -0.43238,-0.847 -0.80097,-1.09279z" fill="#8395d4"/><path d="M227.59428,238.10154c-3.57534,1.76065 -6.31133,-1.00074 -4.56061,-5.59725c3.90287,-2.2677 1.39225,2.69225 2.75623,3.46266c0.96235,0.54525 1.876,-0.24312 2.2805,-1.06472c2.03451,-4.13835 -3.26576,-5.8736 -5.69962,-4.53254c-5.92746,3.28372 -0.62451,13.04491 6.17554,10.92579c1.7404,-0.54506 1.83761,-3.28352 3.61125,-3.02265c3.60857,6.69023 -18.73422,6.53153 -14.82103,-3.99244c5.8608,-15.76543 19.01056,-0.50419 10.25774,3.82113z" fill="#272525"/><path d="M232.9381,263.53344c-2.87922,-0.31474 -5.76856,-0.76278 -8.43025,-1.29504c0.76507,-3.24265 1.46635,-7.52443 4.53502,-7.11994c4.41737,0.58096 3.85685,5.33866 3.89523,8.41498z" fill="#b7cbe7"/><path d="M248.15846,263.34666c-1.9375,0.49636 -4.53005,0.70109 -7.46046,0.6755c0.45052,-3.3475 0.2943,-8.72207 3.40384,-8.53262c2.98942,0.18162 3.38092,4.79857 4.05661,7.85712z" fill="#b7cbe7"/><path d="M258.37515,261.96453c-0.87775,1.84793 -2.7717,3.17619 -5.32071,4.08984c-10.73901,3.84921 -33.17653,0.2943 -41.00023,-3.35782c-0.39686,-0.1843 -0.76793,-0.37107 -1.08515,-0.55537c-9.3672,-5.43606 -10.64945,-19.95515 -11.11773,-29.19669c-0.07162,-1.44095 -0.28418,-20.70494 -0.22268,-27.31821c-0.46828,-3.19911 0.7114,-6.6337 0.7114,-6.6337c2.32137,-2.32137 1.62009,3.43707 1.90675,6.90241h-0.00764c1.10807,7.96197 2.49535,27.60487 3.69299,34.06191c1.06987,5.77906 2.07577,12.48954 6.12207,16.87617c1.52784,1.65332 3.47298,2.98922 6.03727,3.8007c0.88558,0.27635 1.88364,0.54506 2.92276,0.81128c0.37107,-1.84793 1.17988,-3.95425 1.92718,-5.60756c2.67964,-5.94789 13.27523,-4.63738 13.04739,3.9848c-0.04603,1.80438 -0.05882,3.06103 -0.11249,3.985c0.57581,0.04354 1.15161,0.08441 1.7173,0.11516c-0.13311,-2.10117 0.50151,-4.99318 1.11838,-7.17379c1.7532,-6.14747 11.39656,-5.80447 12.14138,2.79996c0.07926,0.93924 0.15107,1.69419 0.21237,2.37503c0.19461,-0.2074 0.3789,-0.41729 0.47096,-0.66557c2.25987,-5.96565 0.92645,-8.51486 -1.87848,-10.72087c-2.5133,-1.97588 -6.20896,-3.68038 -9.60516,-7.31206c-4.74758,-5.07511 -7.46294,-17.18059 -7.02273,-25.28866c0,0 0.26107,-0.25591 0.6373,-0.41462c0.7114,-0.29163 1.8401,-0.21485 2.4774,2.67449c0.02292,0.10504 4.04114,19.86807 9.97357,22.77803c16.09047,7.89551 13.17535,17.05779 12.25654,18.99013zM229.04286,255.11846c-3.06867,-0.4045 -3.76995,3.8748 -4.53502,7.11994c2.66169,0.53226 5.55103,0.9803 8.43025,1.29504c-0.03839,-3.07631 0.52214,-7.83401 -3.89523,-8.41498zM248.15846,263.34666c-0.67569,-3.05855 -1.0672,-7.67798 -4.05661,-7.85712c-3.10954,-0.18945 -2.95332,5.18512 -3.40384,8.53262c2.9304,0.02559 5.52296,-0.17914 7.46046,-0.6755z" fill="#272525"/></g><g stroke-width="1.3401"><path d="M305.63056,257.74941c3.55223,3.92598 13.0218,13.1933 9.01122,16.77628c-0.44021,1.16956 -9.07787,4.15382 -24.88416,0.21753c-0.84452,-0.18678 -16.09563,-3.31695 -16.07768,-9.71269c0.02043,-7.41176 19.75023,-15.00017 17.5339,-35.55404c0.4171,-1.81966 -0.77538,-3.1888 -2.28298,-3.85933c2.62331,-4.03866 8.88097,-10.05053 20.07031,-1.44343c0.00248,0.01776 -0.01795,0.04335 -0.0128,0.06894c0.0741,0.36095 6.46984,3.85436 7.58841,8.0313c3.22986,12.06977 -4.66565,19.94732 -10.94623,25.47544z" fill="#8395d4"/><path d="M294.75346,275.6773c-2.55933,-0.37356 -5.11102,-0.88806 -7.50916,-1.52269c0.61171,-2.42621 0.83439,-6.18853 3.96437,-6.3522c3.26061,-0.17417 3.06103,4.83448 3.54479,7.87488z" fill="#b7cbe7"/><path d="M311.30191,275.88471c-2.34428,0.46313 -5.35413,0.62699 -8.66325,0.51698c0.05367,-3.07383 -0.59376,-7.97228 3.89523,-8.56356c3.37061,-0.44518 3.88511,4.76553 4.76801,8.04657z" fill="#b7cbe7"/><path d="M323.15166,273.78354c-0.86514,3.20923 -2.27267,4.74739 -3.80586,5.74564c-0.57313,0.37107 -1.16441,0.67817 -1.75053,0.95204c-8.84755,4.17941 -27.74562,0.2943 -39.201,-6.11939c-6.89745,-3.86449 -11.09462,-8.64014 -8.77077,-13.12932c2.4159,-4.66813 18.75713,-19.88583 14.81835,-32.50065c-1.08763,-3.4936 2.10117,-4.17941 4.48899,-3.11985c1.5076,0.67053 2.70008,2.03967 2.28298,3.85952c2.21633,20.55636 -17.87939,28.6079 -17.16283,35.98394c0.19461,1.986 1.83246,3.74169 4.34327,5.2363c1.58151,0.94191 3.50105,1.78127 5.64576,2.50566c0.04354,-0.48127 0.09721,-1.03664 0.16119,-1.69934c0.77557,-7.84433 10.78504,-8.16174 12.60222,-2.54653c0.70892,2.19074 1.44343,5.19027 1.08515,7.10982c0.6014,0.0613 1.20279,0.11249 1.79655,0.16367c-0.04087,-0.89837 -0.05367,-2.06278 -0.09721,-3.68286c-0.23032,-8.62735 10.36527,-9.92754 13.04739,-3.98996c0.79601,1.75836 1.67891,4.03866 2.00644,5.96584c3.32726,-2.97662 -2.62063,-9.85592 -6.77445,-14.3579c-0.84967,-0.92129 -1.63288,-1.75053 -2.23676,-2.41838c6.28058,-5.52563 14.17609,-13.40319 10.94623,-25.47296c-1.11857,-4.17941 -7.51431,-7.67034 -7.58841,-8.03378c-0.00516,-0.01795 0.01528,-0.04354 0.0128,-0.06646c-0.07677,-0.78073 1.1772,-1.73773 1.66344,-2.219c4.46607,0.92396 9.30838,6.86154 10.21936,10.47794c3.45006,13.6847 -6.49295,18.77757 -9.50776,25.31673c1.01602,0.76526 2.11148,1.57387 3.21191,2.41857c1.65847,1.27193 3.32191,2.63858 4.7577,4.08469c2.83071,2.85878 4.74758,6.0451 3.80586,9.53603zM294.75346,275.6773c-0.48375,-3.04041 -0.28418,-8.04906 -3.54479,-7.87488c-3.12998,0.16367 -3.35266,3.92598 -3.96437,6.3522c2.39814,0.63463 4.94983,1.15161 7.50916,1.52269zM311.30191,275.88203c-0.8829,-3.28104 -1.3974,-8.49175 -4.76801,-8.04638c-4.48899,0.59376 -3.84157,5.48973 -3.89523,8.56337c3.30912,0.1102 6.31897,-0.05367 8.66325,-0.51698z" fill="#272525"/><path d="M307.51152,243.25343c-0.14324,2.09353 -0.89054,5.97348 -3.83374,6.20113c-2.84083,0.21753 -2.77953,-4.39694 -1.00589,-5.22866c-0.48624,1.91954 -0.44537,3.68038 1.30268,3.3221c2.41857,-0.49407 2.61318,-7.14056 -0.30442,-6.36251c-5.63316,1.49977 -3.46801,9.48733 -0.41977,10.24227c0.93408,0.23548 1.91171,0.34052 2.9304,-1.3128c1.73525,-2.81276 2.9791,-5.79186 3.52932,-8.70431c0.29678,2.53125 -1.41784,8.05154 -3.62653,10.58795c-4.43533,5.07759 -9.44646,-1.36169 -8.10807,-6.30884c1.32579,-4.89597 10.09656,-10.64161 9.53603,-2.43634z" fill="#272525"/></g><g stroke-width="1.3401"><path d="M187.8486,144.02711c0.92836,-1.50703 -2.236,-4.67673 -2.236,-4.67673c-4.94353,-4.7684 -8.80343,-4.52681 -12.14215,-1.75759c-8.1858,6.79183 -3.01138,29.66364 -23.95638,26.87552c8.42013,-1.20661 11.88681,-6.36346 13.48321,-12.57911c0.00172,-0.00172 0.00172,-0.00172 0.00191,-0.00535l0.00019,-0.00363c2.46498,-9.60612 0.45587,-21.74082 5.2764,-25.78082c6.12799,-5.71852 12.66849,2.98197 18.59671,8.80935c4.09806,4.18495 3.99626,1.10501 4.23327,-2.50853c0.00382,-0.00344 1.9606,12.17652 -3.25717,11.62688z" fill="#8395d4"/><path d="M186.87631,134.90513c-5.92822,-5.82719 -12.46891,-14.52768 -18.59671,-8.80916c-4.82053,4.04 -2.81333,16.17642 -5.2766,25.78082c0,0.00363 -0.00191,0.00535 -0.0021,0.00898c-1.5964,6.21565 -5.06289,11.3725 -13.48321,12.57911c20.94519,2.78793 15.77058,-20.08368 23.95638,-26.87552c3.33891,-2.76921 7.20053,-3.0089 12.14234,1.75759c0,0 3.16244,3.17142 2.23581,4.67673c-0.92664,1.50531 -5.21777,-0.54964 -5.21777,-0.54964c-5.18015,-4.68074 -6.47462,13.39708 -15.84736,21.31054c-4.15573,3.5106 -11.27605,4.09557 -18.75981,1.30917c0.32257,2.29998 -0.96292,4.91392 0.55709,6.62148c2.22798,2.49974 0.5632,9.95886 -1.6453,9.36281c-2.5937,-4.27968 -3.28028,-9.92964 -1.00322,-15.30325c-3.60437,1.96691 -11.66298,4.55144 -12.31938,2.84656c2.23466,-2.20449 7.54544,-4.76248 11.71168,-5.64347c-5.88831,-1.1667 -10.22929,-5.0795 -12.25826,-9.77074c0.79486,-2.14547 7.83783,0.81759 8.58514,4.08297c0.60694,2.66112 4.58525,2.82021 5.8778,5.39462c0.24866,-0.01146 0.52691,-0.05061 0.75666,-0.04087c-0.07544,0.08422 -0.11688,0.18239 -0.1673,0.27845c22.56089,-10.53791 6.23551,-33.09594 12.5646,-41.54357c3.40384,-4.54533 13.79375,-8.88536 23.68691,1.15333c0,0 6.97479,5.24967 6.7395,8.86492c-0.23529,3.61526 -0.13884,6.69329 -4.2369,2.50814z" fill="#272525"/></g><g stroke-width="1.3401"><g><path d="M384.40383,147.7371c-2.79232,8.72723 -15.93941,13.54891 -21.93352,3.17352c-2.91493,-5.03672 -3.15309,-15.28931 0,-20.26225c8.42796,-13.31095 27.24907,0.48127 21.93352,17.08873zM378.26916,132.95694c-2.68728,-3.29116 -6.59283,-3.31179 -8.6071,-2.78965c-6.34188,1.64816 -5.40264,17.11929 -0.66538,20.25194c12.96546,8.57616 13.39039,-12.41009 9.27248,-17.46229z" fill="#272525"/><path d="M378.26916,132.95961c4.11524,5.04952 3.6905,26.03845 -9.27248,17.45961c-4.73478,-3.13265 -5.67651,-18.60378 0.66538,-20.25194c2.01427,-0.52214 5.91982,-0.50151 8.6071,2.79232z" fill="#ffffff"/><path d="M377.05338,138.73085c1.08782,0 2.07309,0.58096 2.78717,1.52269c0.71408,0.93924 1.15677,2.23944 1.15677,3.67274c0,1.43312 -0.44269,2.73331 -1.15677,3.67255c-0.71408,0.94191 -1.69934,1.52288 -2.78717,1.52288c-1.08763,0 -2.07309,-0.58096 -2.78717,-1.52288c-0.71388,-0.93924 -1.15677,-2.23944 -1.15677,-3.67255c0,-1.43331 0.44288,-2.7335 1.15677,-3.67274c0.71408,-0.94172 1.69953,-1.52269 2.78717,-1.52269z" fill="#272525"/></g><g><path d="M382.07483,129.17686c-2.0475,0.27119 -18.06884,7.55003 -23.31545,11.24053c-0.52462,-3.21955 -1.37429,-5.21854 0.5273,-8.56356c2.15235,-3.77243 4.25867,-6.41102 8.79121,-7.37585c6.62091,-1.42567 9.66914,0.5886 14.15298,4.68608c-0.04851,0.00516 -0.11516,0.00764 -0.15603,0.0128z" fill="#b7cbe7"/><path d="M383.86889,130.68179c-2.99705,2.85611 -24.94318,14.59071 -26.73725,11.57054c-0.20473,-0.34548 0.43505,-1.00055 1.62773,-1.83494c5.24146,-3.69566 21.26279,-10.96934 23.31545,-11.24053c0.04087,-0.00516 0.10485,-0.00764 0.15603,-0.0128c0.8703,-0.07429 3.1634,0.0615 1.63804,1.51772z" fill="#272525"/></g></g><g stroke-width="1.3401"><g><path d="M413.30355,145.35175c-2.70008,9.13172 -12.16946,10.3498 -16.74038,2.42373c-2.219,-3.84424 -2.40062,-11.6731 0,-15.46597c6.4263,-10.15805 20.50766,0.28914 16.74038,13.04224zM408.62262,134.07284c-2.04998,-2.5133 -5.03424,-2.53125 -6.5724,-2.12676c-4.83199,1.25665 -4.1204,13.06267 -0.50667,15.45566c9.89947,6.54681 10.227,-9.47721 7.07907,-13.3289z" fill="#272525"/><path d="M408.6251,134.07284c3.14545,3.85169 2.81791,19.8757 -7.08155,13.3289c-3.61373,-2.39298 -4.32781,-14.19901 0.50667,-15.45566c1.53816,-0.4045 4.52241,-0.38654 6.57488,2.12676z" fill="#ffffff"/><path d="M408.61995,139.18633c0.74234,0 1.41536,0.39667 1.90159,1.03912c0.48643,0.64227 0.78837,1.52784 0.78837,2.50547c0,0.97782 -0.30194,1.8632 -0.78837,2.50566c-0.48624,0.64246 -1.15925,1.03912 -1.90159,1.03912c-0.74215,0 -1.41516,-0.39667 -1.9014,-1.03912c-0.48643,-0.64246 -0.78837,-1.52784 -0.78837,-2.50566c0,-0.97763 0.30194,-1.8632 0.78837,-2.50547c0.48624,-0.64246 1.15925,-1.03912 1.9014,-1.03912z" fill="#272525"/></g><g><path d="M412.29784,131.14759c-2.3905,0.56817 -15.15123,6.38543 -20.07031,9.64603c-1.80171,-2.68213 -0.58593,-8.71195 4.37899,-11.95212c5.09306,-3.30912 13.40835,-3.01997 15.69133,2.30609z" fill="#b7cbe7"/><path d="M414.14042,132.4348c-2.66666,2.53889 -22.22763,12.99621 -23.82728,10.30396c-0.20721,-0.34816 0.58096,-1.05192 1.91439,-1.94513c4.91908,-3.26825 17.67981,-9.07787 20.07031,-9.64603c0.07677,-0.0128 0.18926,-0.05118 0.24312,-0.05901c0.64742,-0.0869 3.03525,-0.03571 1.59946,1.34622z" fill="#272525"/></g></g></g></g></svg>